G04 #@! TF.GenerationSoftware,KiCad,Pcbnew,(5.0.2)-1*
G04 #@! TF.CreationDate,2019-07-09T23:38:42+09:00*
G04 #@! TF.ProjectId,R2-R,52322d52-2e6b-4696-9361-645f70636258,rev?*
G04 #@! TF.SameCoordinates,PX3c8eee0PY21e9a40*
G04 #@! TF.FileFunction,Legend,Bot*
G04 #@! TF.FilePolarity,Positive*
%FSLAX46Y46*%
G04 Gerber Fmt 4.6, Leading zero omitted, Abs format (unit mm)*
G04 Created by KiCad (PCBNEW (5.0.2)-1) date 2019/07/09 23:38:42*
%MOMM*%
%LPD*%
G01*
G04 APERTURE LIST*
%ADD10C,0.200000*%
%ADD11C,0.150000*%
%ADD12O,1.702000X1.702000*%
%ADD13C,1.702000*%
%ADD14R,1.627000X0.752000*%
%ADD15R,1.702000X1.702000*%
%ADD16C,0.100000*%
%ADD17C,0.502000*%
%ADD18C,1.752000*%
%ADD19R,1.752000X1.752000*%
%ADD20C,1.542000*%
%ADD21C,3.302000*%
G04 APERTURE END LIST*
D10*
G04 #@! TO.C,IC11*
X51008000Y-23027000D02*
X52533000Y-23027000D01*
X52883000Y-17997000D02*
X52883000Y-22897000D01*
X56083000Y-17997000D02*
X52883000Y-17997000D01*
X56083000Y-22897000D02*
X56083000Y-17997000D01*
X52883000Y-22897000D02*
X56083000Y-22897000D01*
G04 #@! TO.C,IC9*
X60279000Y-23027000D02*
X61804000Y-23027000D01*
X62154000Y-17997000D02*
X62154000Y-22897000D01*
X65354000Y-17997000D02*
X62154000Y-17997000D01*
X65354000Y-22897000D02*
X65354000Y-17997000D01*
X62154000Y-22897000D02*
X65354000Y-22897000D01*
G04 #@! TO.C,IC13*
X60279000Y-30266000D02*
X61804000Y-30266000D01*
X62154000Y-25236000D02*
X62154000Y-30136000D01*
X65354000Y-25236000D02*
X62154000Y-25236000D01*
X65354000Y-30136000D02*
X65354000Y-25236000D01*
X62154000Y-30136000D02*
X65354000Y-30136000D01*
G04 #@! TO.C,IC15*
X51008000Y-30266000D02*
X52533000Y-30266000D01*
X52883000Y-25236000D02*
X52883000Y-30136000D01*
X56083000Y-25236000D02*
X52883000Y-25236000D01*
X56083000Y-30136000D02*
X56083000Y-25236000D01*
X52883000Y-30136000D02*
X56083000Y-30136000D01*
G04 #@! TO.C,IC17*
X60279000Y-37632000D02*
X61804000Y-37632000D01*
X62154000Y-32602000D02*
X62154000Y-37502000D01*
X65354000Y-32602000D02*
X62154000Y-32602000D01*
X65354000Y-37502000D02*
X65354000Y-32602000D01*
X62154000Y-37502000D02*
X65354000Y-37502000D01*
G04 #@! TO.C,IC19*
X51008000Y-37632000D02*
X52533000Y-37632000D01*
X52883000Y-32602000D02*
X52883000Y-37502000D01*
X56083000Y-32602000D02*
X52883000Y-32602000D01*
X56083000Y-37502000D02*
X56083000Y-32602000D01*
X52883000Y-37502000D02*
X56083000Y-37502000D01*
G04 #@! TO.C,IC21*
X60279000Y-44744000D02*
X61804000Y-44744000D01*
X62154000Y-39714000D02*
X62154000Y-44614000D01*
X65354000Y-39714000D02*
X62154000Y-39714000D01*
X65354000Y-44614000D02*
X65354000Y-39714000D01*
X62154000Y-44614000D02*
X65354000Y-44614000D01*
G04 #@! TO.C,IC23*
X51008000Y-44744000D02*
X52533000Y-44744000D01*
X52883000Y-39714000D02*
X52883000Y-44614000D01*
X56083000Y-39714000D02*
X52883000Y-39714000D01*
X56083000Y-44614000D02*
X56083000Y-39714000D01*
X52883000Y-44614000D02*
X56083000Y-44614000D01*
G04 #@! TO.C,IC25*
X60279000Y-52491000D02*
X61804000Y-52491000D01*
X62154000Y-47461000D02*
X62154000Y-52361000D01*
X65354000Y-47461000D02*
X62154000Y-47461000D01*
X65354000Y-52361000D02*
X65354000Y-47461000D01*
X62154000Y-52361000D02*
X65354000Y-52361000D01*
G04 #@! TO.C,IC27*
X51008000Y-52491000D02*
X52533000Y-52491000D01*
X52883000Y-47461000D02*
X52883000Y-52361000D01*
X56083000Y-47461000D02*
X52883000Y-47461000D01*
X56083000Y-52361000D02*
X56083000Y-47461000D01*
X52883000Y-52361000D02*
X56083000Y-52361000D01*
G04 #@! TO.C,IC29*
X60279000Y-59349000D02*
X61804000Y-59349000D01*
X62154000Y-54319000D02*
X62154000Y-59219000D01*
X65354000Y-54319000D02*
X62154000Y-54319000D01*
X65354000Y-59219000D02*
X65354000Y-54319000D01*
X62154000Y-59219000D02*
X65354000Y-59219000D01*
G04 #@! TO.C,IC31*
X51008000Y-59349000D02*
X52533000Y-59349000D01*
X52883000Y-54319000D02*
X52883000Y-59219000D01*
X56083000Y-54319000D02*
X52883000Y-54319000D01*
X56083000Y-59219000D02*
X56083000Y-54319000D01*
X52883000Y-59219000D02*
X56083000Y-59219000D01*
G04 #@! TO.C,IC33*
X60279000Y-67223000D02*
X61804000Y-67223000D01*
X62154000Y-62193000D02*
X62154000Y-67093000D01*
X65354000Y-62193000D02*
X62154000Y-62193000D01*
X65354000Y-67093000D02*
X65354000Y-62193000D01*
X62154000Y-67093000D02*
X65354000Y-67093000D01*
G04 #@! TO.C,IC35*
X51008000Y-67223000D02*
X52533000Y-67223000D01*
X52883000Y-62193000D02*
X52883000Y-67093000D01*
X56083000Y-62193000D02*
X52883000Y-62193000D01*
X56083000Y-67093000D02*
X56083000Y-62193000D01*
X52883000Y-67093000D02*
X56083000Y-67093000D01*
G04 #@! TO.C,IC37*
X60279000Y-74335000D02*
X61804000Y-74335000D01*
X62154000Y-69305000D02*
X62154000Y-74205000D01*
X65354000Y-69305000D02*
X62154000Y-69305000D01*
X65354000Y-74205000D02*
X65354000Y-69305000D01*
X62154000Y-74205000D02*
X65354000Y-74205000D01*
G04 #@! TO.C,IC39*
X51008000Y-74335000D02*
X52533000Y-74335000D01*
X52883000Y-69305000D02*
X52883000Y-74205000D01*
X56083000Y-69305000D02*
X52883000Y-69305000D01*
X56083000Y-74205000D02*
X56083000Y-69305000D01*
X52883000Y-74205000D02*
X56083000Y-74205000D01*
G04 #@! TO.C,IC11*
X55644904Y-20808904D02*
X55644904Y-20008904D01*
X54806809Y-20732714D02*
X54844904Y-20770809D01*
X54959190Y-20808904D01*
X55035380Y-20808904D01*
X55149666Y-20770809D01*
X55225857Y-20694619D01*
X55263952Y-20618428D01*
X55302047Y-20466047D01*
X55302047Y-20351761D01*
X55263952Y-20199380D01*
X55225857Y-20123190D01*
X55149666Y-20047000D01*
X55035380Y-20008904D01*
X54959190Y-20008904D01*
X54844904Y-20047000D01*
X54806809Y-20085095D01*
X54044904Y-20808904D02*
X54502047Y-20808904D01*
X54273476Y-20808904D02*
X54273476Y-20008904D01*
X54349666Y-20123190D01*
X54425857Y-20199380D01*
X54502047Y-20237476D01*
X53283000Y-20808904D02*
X53740142Y-20808904D01*
X53511571Y-20808904D02*
X53511571Y-20008904D01*
X53587761Y-20123190D01*
X53663952Y-20199380D01*
X53740142Y-20237476D01*
G04 #@! TO.C,C14*
D11*
X15882857Y-37856142D02*
X15930476Y-37903761D01*
X16073333Y-37951380D01*
X16168571Y-37951380D01*
X16311428Y-37903761D01*
X16406666Y-37808523D01*
X16454285Y-37713285D01*
X16501904Y-37522809D01*
X16501904Y-37379952D01*
X16454285Y-37189476D01*
X16406666Y-37094238D01*
X16311428Y-36999000D01*
X16168571Y-36951380D01*
X16073333Y-36951380D01*
X15930476Y-36999000D01*
X15882857Y-37046619D01*
X14930476Y-37951380D02*
X15501904Y-37951380D01*
X15216190Y-37951380D02*
X15216190Y-36951380D01*
X15311428Y-37094238D01*
X15406666Y-37189476D01*
X15501904Y-37237095D01*
X14073333Y-37284714D02*
X14073333Y-37951380D01*
X14311428Y-36903761D02*
X14549523Y-37618047D01*
X13930476Y-37618047D01*
G04 #@! TO.C,C15*
X26296857Y-38012642D02*
X26344476Y-38060261D01*
X26487333Y-38107880D01*
X26582571Y-38107880D01*
X26725428Y-38060261D01*
X26820666Y-37965023D01*
X26868285Y-37869785D01*
X26915904Y-37679309D01*
X26915904Y-37536452D01*
X26868285Y-37345976D01*
X26820666Y-37250738D01*
X26725428Y-37155500D01*
X26582571Y-37107880D01*
X26487333Y-37107880D01*
X26344476Y-37155500D01*
X26296857Y-37203119D01*
X25344476Y-38107880D02*
X25915904Y-38107880D01*
X25630190Y-38107880D02*
X25630190Y-37107880D01*
X25725428Y-37250738D01*
X25820666Y-37345976D01*
X25915904Y-37393595D01*
X24439714Y-37107880D02*
X24915904Y-37107880D01*
X24963523Y-37584071D01*
X24915904Y-37536452D01*
X24820666Y-37488833D01*
X24582571Y-37488833D01*
X24487333Y-37536452D01*
X24439714Y-37584071D01*
X24392095Y-37679309D01*
X24392095Y-37917404D01*
X24439714Y-38012642D01*
X24487333Y-38060261D01*
X24582571Y-38107880D01*
X24820666Y-38107880D01*
X24915904Y-38060261D01*
X24963523Y-38012642D01*
G04 #@! TO.C,C16*
X24772857Y-53697142D02*
X24820476Y-53744761D01*
X24963333Y-53792380D01*
X25058571Y-53792380D01*
X25201428Y-53744761D01*
X25296666Y-53649523D01*
X25344285Y-53554285D01*
X25391904Y-53363809D01*
X25391904Y-53220952D01*
X25344285Y-53030476D01*
X25296666Y-52935238D01*
X25201428Y-52840000D01*
X25058571Y-52792380D01*
X24963333Y-52792380D01*
X24820476Y-52840000D01*
X24772857Y-52887619D01*
X23820476Y-53792380D02*
X24391904Y-53792380D01*
X24106190Y-53792380D02*
X24106190Y-52792380D01*
X24201428Y-52935238D01*
X24296666Y-53030476D01*
X24391904Y-53078095D01*
X22963333Y-52792380D02*
X23153809Y-52792380D01*
X23249047Y-52840000D01*
X23296666Y-52887619D01*
X23391904Y-53030476D01*
X23439523Y-53220952D01*
X23439523Y-53601904D01*
X23391904Y-53697142D01*
X23344285Y-53744761D01*
X23249047Y-53792380D01*
X23058571Y-53792380D01*
X22963333Y-53744761D01*
X22915714Y-53697142D01*
X22868095Y-53601904D01*
X22868095Y-53363809D01*
X22915714Y-53268571D01*
X22963333Y-53220952D01*
X23058571Y-53173333D01*
X23249047Y-53173333D01*
X23344285Y-53220952D01*
X23391904Y-53268571D01*
X23439523Y-53363809D01*
G04 #@! TO.C,C17*
X15120857Y-67447142D02*
X15168476Y-67494761D01*
X15311333Y-67542380D01*
X15406571Y-67542380D01*
X15549428Y-67494761D01*
X15644666Y-67399523D01*
X15692285Y-67304285D01*
X15739904Y-67113809D01*
X15739904Y-66970952D01*
X15692285Y-66780476D01*
X15644666Y-66685238D01*
X15549428Y-66590000D01*
X15406571Y-66542380D01*
X15311333Y-66542380D01*
X15168476Y-66590000D01*
X15120857Y-66637619D01*
X14168476Y-67542380D02*
X14739904Y-67542380D01*
X14454190Y-67542380D02*
X14454190Y-66542380D01*
X14549428Y-66685238D01*
X14644666Y-66780476D01*
X14739904Y-66828095D01*
X13835142Y-66542380D02*
X13168476Y-66542380D01*
X13597047Y-67542380D01*
G04 #@! TO.C,C18*
X46550857Y-19441142D02*
X46598476Y-19488761D01*
X46741333Y-19536380D01*
X46836571Y-19536380D01*
X46979428Y-19488761D01*
X47074666Y-19393523D01*
X47122285Y-19298285D01*
X47169904Y-19107809D01*
X47169904Y-18964952D01*
X47122285Y-18774476D01*
X47074666Y-18679238D01*
X46979428Y-18584000D01*
X46836571Y-18536380D01*
X46741333Y-18536380D01*
X46598476Y-18584000D01*
X46550857Y-18631619D01*
X45598476Y-19536380D02*
X46169904Y-19536380D01*
X45884190Y-19536380D02*
X45884190Y-18536380D01*
X45979428Y-18679238D01*
X46074666Y-18774476D01*
X46169904Y-18822095D01*
X45027047Y-18964952D02*
X45122285Y-18917333D01*
X45169904Y-18869714D01*
X45217523Y-18774476D01*
X45217523Y-18726857D01*
X45169904Y-18631619D01*
X45122285Y-18584000D01*
X45027047Y-18536380D01*
X44836571Y-18536380D01*
X44741333Y-18584000D01*
X44693714Y-18631619D01*
X44646095Y-18726857D01*
X44646095Y-18774476D01*
X44693714Y-18869714D01*
X44741333Y-18917333D01*
X44836571Y-18964952D01*
X45027047Y-18964952D01*
X45122285Y-19012571D01*
X45169904Y-19060190D01*
X45217523Y-19155428D01*
X45217523Y-19345904D01*
X45169904Y-19441142D01*
X45122285Y-19488761D01*
X45027047Y-19536380D01*
X44836571Y-19536380D01*
X44741333Y-19488761D01*
X44693714Y-19441142D01*
X44646095Y-19345904D01*
X44646095Y-19155428D01*
X44693714Y-19060190D01*
X44741333Y-19012571D01*
X44836571Y-18964952D01*
G04 #@! TO.C,C19*
X15120857Y-53477142D02*
X15168476Y-53524761D01*
X15311333Y-53572380D01*
X15406571Y-53572380D01*
X15549428Y-53524761D01*
X15644666Y-53429523D01*
X15692285Y-53334285D01*
X15739904Y-53143809D01*
X15739904Y-53000952D01*
X15692285Y-52810476D01*
X15644666Y-52715238D01*
X15549428Y-52620000D01*
X15406571Y-52572380D01*
X15311333Y-52572380D01*
X15168476Y-52620000D01*
X15120857Y-52667619D01*
X14168476Y-53572380D02*
X14739904Y-53572380D01*
X14454190Y-53572380D02*
X14454190Y-52572380D01*
X14549428Y-52715238D01*
X14644666Y-52810476D01*
X14739904Y-52858095D01*
X13692285Y-53572380D02*
X13501809Y-53572380D01*
X13406571Y-53524761D01*
X13358952Y-53477142D01*
X13263714Y-53334285D01*
X13216095Y-53143809D01*
X13216095Y-52762857D01*
X13263714Y-52667619D01*
X13311333Y-52620000D01*
X13406571Y-52572380D01*
X13597047Y-52572380D01*
X13692285Y-52620000D01*
X13739904Y-52667619D01*
X13787523Y-52762857D01*
X13787523Y-53000952D01*
X13739904Y-53096190D01*
X13692285Y-53143809D01*
X13597047Y-53191428D01*
X13406571Y-53191428D01*
X13311333Y-53143809D01*
X13263714Y-53096190D01*
X13216095Y-53000952D01*
G04 #@! TO.C,C20*
X24772857Y-67447142D02*
X24820476Y-67494761D01*
X24963333Y-67542380D01*
X25058571Y-67542380D01*
X25201428Y-67494761D01*
X25296666Y-67399523D01*
X25344285Y-67304285D01*
X25391904Y-67113809D01*
X25391904Y-66970952D01*
X25344285Y-66780476D01*
X25296666Y-66685238D01*
X25201428Y-66590000D01*
X25058571Y-66542380D01*
X24963333Y-66542380D01*
X24820476Y-66590000D01*
X24772857Y-66637619D01*
X24391904Y-66637619D02*
X24344285Y-66590000D01*
X24249047Y-66542380D01*
X24010952Y-66542380D01*
X23915714Y-66590000D01*
X23868095Y-66637619D01*
X23820476Y-66732857D01*
X23820476Y-66828095D01*
X23868095Y-66970952D01*
X24439523Y-67542380D01*
X23820476Y-67542380D01*
X23201428Y-66542380D02*
X23106190Y-66542380D01*
X23010952Y-66590000D01*
X22963333Y-66637619D01*
X22915714Y-66732857D01*
X22868095Y-66923333D01*
X22868095Y-67161428D01*
X22915714Y-67351904D01*
X22963333Y-67447142D01*
X23010952Y-67494761D01*
X23106190Y-67542380D01*
X23201428Y-67542380D01*
X23296666Y-67494761D01*
X23344285Y-67447142D01*
X23391904Y-67351904D01*
X23439523Y-67161428D01*
X23439523Y-66923333D01*
X23391904Y-66732857D01*
X23344285Y-66637619D01*
X23296666Y-66590000D01*
X23201428Y-66542380D01*
G04 #@! TO.C,C21*
X46525857Y-63129142D02*
X46573476Y-63176761D01*
X46716333Y-63224380D01*
X46811571Y-63224380D01*
X46954428Y-63176761D01*
X47049666Y-63081523D01*
X47097285Y-62986285D01*
X47144904Y-62795809D01*
X47144904Y-62652952D01*
X47097285Y-62462476D01*
X47049666Y-62367238D01*
X46954428Y-62272000D01*
X46811571Y-62224380D01*
X46716333Y-62224380D01*
X46573476Y-62272000D01*
X46525857Y-62319619D01*
X46144904Y-62319619D02*
X46097285Y-62272000D01*
X46002047Y-62224380D01*
X45763952Y-62224380D01*
X45668714Y-62272000D01*
X45621095Y-62319619D01*
X45573476Y-62414857D01*
X45573476Y-62510095D01*
X45621095Y-62652952D01*
X46192523Y-63224380D01*
X45573476Y-63224380D01*
X44621095Y-63224380D02*
X45192523Y-63224380D01*
X44906809Y-63224380D02*
X44906809Y-62224380D01*
X45002047Y-62367238D01*
X45097285Y-62462476D01*
X45192523Y-62510095D01*
G04 #@! TO.C,C22*
X46525857Y-48651142D02*
X46573476Y-48698761D01*
X46716333Y-48746380D01*
X46811571Y-48746380D01*
X46954428Y-48698761D01*
X47049666Y-48603523D01*
X47097285Y-48508285D01*
X47144904Y-48317809D01*
X47144904Y-48174952D01*
X47097285Y-47984476D01*
X47049666Y-47889238D01*
X46954428Y-47794000D01*
X46811571Y-47746380D01*
X46716333Y-47746380D01*
X46573476Y-47794000D01*
X46525857Y-47841619D01*
X46144904Y-47841619D02*
X46097285Y-47794000D01*
X46002047Y-47746380D01*
X45763952Y-47746380D01*
X45668714Y-47794000D01*
X45621095Y-47841619D01*
X45573476Y-47936857D01*
X45573476Y-48032095D01*
X45621095Y-48174952D01*
X46192523Y-48746380D01*
X45573476Y-48746380D01*
X45192523Y-47841619D02*
X45144904Y-47794000D01*
X45049666Y-47746380D01*
X44811571Y-47746380D01*
X44716333Y-47794000D01*
X44668714Y-47841619D01*
X44621095Y-47936857D01*
X44621095Y-48032095D01*
X44668714Y-48174952D01*
X45240142Y-48746380D01*
X44621095Y-48746380D01*
G04 #@! TO.C,C23*
X46550857Y-33919142D02*
X46598476Y-33966761D01*
X46741333Y-34014380D01*
X46836571Y-34014380D01*
X46979428Y-33966761D01*
X47074666Y-33871523D01*
X47122285Y-33776285D01*
X47169904Y-33585809D01*
X47169904Y-33442952D01*
X47122285Y-33252476D01*
X47074666Y-33157238D01*
X46979428Y-33062000D01*
X46836571Y-33014380D01*
X46741333Y-33014380D01*
X46598476Y-33062000D01*
X46550857Y-33109619D01*
X46169904Y-33109619D02*
X46122285Y-33062000D01*
X46027047Y-33014380D01*
X45788952Y-33014380D01*
X45693714Y-33062000D01*
X45646095Y-33109619D01*
X45598476Y-33204857D01*
X45598476Y-33300095D01*
X45646095Y-33442952D01*
X46217523Y-34014380D01*
X45598476Y-34014380D01*
X45265142Y-33014380D02*
X44646095Y-33014380D01*
X44979428Y-33395333D01*
X44836571Y-33395333D01*
X44741333Y-33442952D01*
X44693714Y-33490571D01*
X44646095Y-33585809D01*
X44646095Y-33823904D01*
X44693714Y-33919142D01*
X44741333Y-33966761D01*
X44836571Y-34014380D01*
X45122285Y-34014380D01*
X45217523Y-33966761D01*
X45265142Y-33919142D01*
G04 #@! TO.C,C24*
X88272857Y-19949142D02*
X88320476Y-19996761D01*
X88463333Y-20044380D01*
X88558571Y-20044380D01*
X88701428Y-19996761D01*
X88796666Y-19901523D01*
X88844285Y-19806285D01*
X88891904Y-19615809D01*
X88891904Y-19472952D01*
X88844285Y-19282476D01*
X88796666Y-19187238D01*
X88701428Y-19092000D01*
X88558571Y-19044380D01*
X88463333Y-19044380D01*
X88320476Y-19092000D01*
X88272857Y-19139619D01*
X87891904Y-19139619D02*
X87844285Y-19092000D01*
X87749047Y-19044380D01*
X87510952Y-19044380D01*
X87415714Y-19092000D01*
X87368095Y-19139619D01*
X87320476Y-19234857D01*
X87320476Y-19330095D01*
X87368095Y-19472952D01*
X87939523Y-20044380D01*
X87320476Y-20044380D01*
X86463333Y-19377714D02*
X86463333Y-20044380D01*
X86701428Y-18996761D02*
X86939523Y-19711047D01*
X86320476Y-19711047D01*
G04 #@! TO.C,C25*
X88526857Y-55763142D02*
X88574476Y-55810761D01*
X88717333Y-55858380D01*
X88812571Y-55858380D01*
X88955428Y-55810761D01*
X89050666Y-55715523D01*
X89098285Y-55620285D01*
X89145904Y-55429809D01*
X89145904Y-55286952D01*
X89098285Y-55096476D01*
X89050666Y-55001238D01*
X88955428Y-54906000D01*
X88812571Y-54858380D01*
X88717333Y-54858380D01*
X88574476Y-54906000D01*
X88526857Y-54953619D01*
X88145904Y-54953619D02*
X88098285Y-54906000D01*
X88003047Y-54858380D01*
X87764952Y-54858380D01*
X87669714Y-54906000D01*
X87622095Y-54953619D01*
X87574476Y-55048857D01*
X87574476Y-55144095D01*
X87622095Y-55286952D01*
X88193523Y-55858380D01*
X87574476Y-55858380D01*
X86669714Y-54858380D02*
X87145904Y-54858380D01*
X87193523Y-55334571D01*
X87145904Y-55286952D01*
X87050666Y-55239333D01*
X86812571Y-55239333D01*
X86717333Y-55286952D01*
X86669714Y-55334571D01*
X86622095Y-55429809D01*
X86622095Y-55667904D01*
X86669714Y-55763142D01*
X86717333Y-55810761D01*
X86812571Y-55858380D01*
X87050666Y-55858380D01*
X87145904Y-55810761D01*
X87193523Y-55763142D01*
G04 #@! TO.C,C27*
X64139714Y-24661785D02*
X64168285Y-24690357D01*
X64254000Y-24718928D01*
X64311142Y-24718928D01*
X64396857Y-24690357D01*
X64454000Y-24633214D01*
X64482571Y-24576071D01*
X64511142Y-24461785D01*
X64511142Y-24376071D01*
X64482571Y-24261785D01*
X64454000Y-24204642D01*
X64396857Y-24147500D01*
X64311142Y-24118928D01*
X64254000Y-24118928D01*
X64168285Y-24147500D01*
X64139714Y-24176071D01*
X63911142Y-24176071D02*
X63882571Y-24147500D01*
X63825428Y-24118928D01*
X63682571Y-24118928D01*
X63625428Y-24147500D01*
X63596857Y-24176071D01*
X63568285Y-24233214D01*
X63568285Y-24290357D01*
X63596857Y-24376071D01*
X63939714Y-24718928D01*
X63568285Y-24718928D01*
X63368285Y-24118928D02*
X62968285Y-24118928D01*
X63225428Y-24718928D01*
G04 #@! TO.C,C29*
X54995714Y-24661785D02*
X55024285Y-24690357D01*
X55110000Y-24718928D01*
X55167142Y-24718928D01*
X55252857Y-24690357D01*
X55310000Y-24633214D01*
X55338571Y-24576071D01*
X55367142Y-24461785D01*
X55367142Y-24376071D01*
X55338571Y-24261785D01*
X55310000Y-24204642D01*
X55252857Y-24147500D01*
X55167142Y-24118928D01*
X55110000Y-24118928D01*
X55024285Y-24147500D01*
X54995714Y-24176071D01*
X54767142Y-24176071D02*
X54738571Y-24147500D01*
X54681428Y-24118928D01*
X54538571Y-24118928D01*
X54481428Y-24147500D01*
X54452857Y-24176071D01*
X54424285Y-24233214D01*
X54424285Y-24290357D01*
X54452857Y-24376071D01*
X54795714Y-24718928D01*
X54424285Y-24718928D01*
X54138571Y-24718928D02*
X54024285Y-24718928D01*
X53967142Y-24690357D01*
X53938571Y-24661785D01*
X53881428Y-24576071D01*
X53852857Y-24461785D01*
X53852857Y-24233214D01*
X53881428Y-24176071D01*
X53910000Y-24147500D01*
X53967142Y-24118928D01*
X54081428Y-24118928D01*
X54138571Y-24147500D01*
X54167142Y-24176071D01*
X54195714Y-24233214D01*
X54195714Y-24376071D01*
X54167142Y-24433214D01*
X54138571Y-24461785D01*
X54081428Y-24490357D01*
X53967142Y-24490357D01*
X53910000Y-24461785D01*
X53881428Y-24433214D01*
X53852857Y-24376071D01*
G04 #@! TO.C,C31*
X64139714Y-31900785D02*
X64168285Y-31929357D01*
X64254000Y-31957928D01*
X64311142Y-31957928D01*
X64396857Y-31929357D01*
X64454000Y-31872214D01*
X64482571Y-31815071D01*
X64511142Y-31700785D01*
X64511142Y-31615071D01*
X64482571Y-31500785D01*
X64454000Y-31443642D01*
X64396857Y-31386500D01*
X64311142Y-31357928D01*
X64254000Y-31357928D01*
X64168285Y-31386500D01*
X64139714Y-31415071D01*
X63939714Y-31357928D02*
X63568285Y-31357928D01*
X63768285Y-31586500D01*
X63682571Y-31586500D01*
X63625428Y-31615071D01*
X63596857Y-31643642D01*
X63568285Y-31700785D01*
X63568285Y-31843642D01*
X63596857Y-31900785D01*
X63625428Y-31929357D01*
X63682571Y-31957928D01*
X63854000Y-31957928D01*
X63911142Y-31929357D01*
X63939714Y-31900785D01*
X62996857Y-31957928D02*
X63339714Y-31957928D01*
X63168285Y-31957928D02*
X63168285Y-31357928D01*
X63225428Y-31443642D01*
X63282571Y-31500785D01*
X63339714Y-31529357D01*
G04 #@! TO.C,C33*
X54995714Y-31900785D02*
X55024285Y-31929357D01*
X55110000Y-31957928D01*
X55167142Y-31957928D01*
X55252857Y-31929357D01*
X55310000Y-31872214D01*
X55338571Y-31815071D01*
X55367142Y-31700785D01*
X55367142Y-31615071D01*
X55338571Y-31500785D01*
X55310000Y-31443642D01*
X55252857Y-31386500D01*
X55167142Y-31357928D01*
X55110000Y-31357928D01*
X55024285Y-31386500D01*
X54995714Y-31415071D01*
X54795714Y-31357928D02*
X54424285Y-31357928D01*
X54624285Y-31586500D01*
X54538571Y-31586500D01*
X54481428Y-31615071D01*
X54452857Y-31643642D01*
X54424285Y-31700785D01*
X54424285Y-31843642D01*
X54452857Y-31900785D01*
X54481428Y-31929357D01*
X54538571Y-31957928D01*
X54710000Y-31957928D01*
X54767142Y-31929357D01*
X54795714Y-31900785D01*
X54224285Y-31357928D02*
X53852857Y-31357928D01*
X54052857Y-31586500D01*
X53967142Y-31586500D01*
X53910000Y-31615071D01*
X53881428Y-31643642D01*
X53852857Y-31700785D01*
X53852857Y-31843642D01*
X53881428Y-31900785D01*
X53910000Y-31929357D01*
X53967142Y-31957928D01*
X54138571Y-31957928D01*
X54195714Y-31929357D01*
X54224285Y-31900785D01*
G04 #@! TO.C,C35*
X64139714Y-39266785D02*
X64168285Y-39295357D01*
X64254000Y-39323928D01*
X64311142Y-39323928D01*
X64396857Y-39295357D01*
X64454000Y-39238214D01*
X64482571Y-39181071D01*
X64511142Y-39066785D01*
X64511142Y-38981071D01*
X64482571Y-38866785D01*
X64454000Y-38809642D01*
X64396857Y-38752500D01*
X64311142Y-38723928D01*
X64254000Y-38723928D01*
X64168285Y-38752500D01*
X64139714Y-38781071D01*
X63939714Y-38723928D02*
X63568285Y-38723928D01*
X63768285Y-38952500D01*
X63682571Y-38952500D01*
X63625428Y-38981071D01*
X63596857Y-39009642D01*
X63568285Y-39066785D01*
X63568285Y-39209642D01*
X63596857Y-39266785D01*
X63625428Y-39295357D01*
X63682571Y-39323928D01*
X63854000Y-39323928D01*
X63911142Y-39295357D01*
X63939714Y-39266785D01*
X63025428Y-38723928D02*
X63311142Y-38723928D01*
X63339714Y-39009642D01*
X63311142Y-38981071D01*
X63254000Y-38952500D01*
X63111142Y-38952500D01*
X63054000Y-38981071D01*
X63025428Y-39009642D01*
X62996857Y-39066785D01*
X62996857Y-39209642D01*
X63025428Y-39266785D01*
X63054000Y-39295357D01*
X63111142Y-39323928D01*
X63254000Y-39323928D01*
X63311142Y-39295357D01*
X63339714Y-39266785D01*
G04 #@! TO.C,C37*
X54995714Y-39266785D02*
X55024285Y-39295357D01*
X55110000Y-39323928D01*
X55167142Y-39323928D01*
X55252857Y-39295357D01*
X55310000Y-39238214D01*
X55338571Y-39181071D01*
X55367142Y-39066785D01*
X55367142Y-38981071D01*
X55338571Y-38866785D01*
X55310000Y-38809642D01*
X55252857Y-38752500D01*
X55167142Y-38723928D01*
X55110000Y-38723928D01*
X55024285Y-38752500D01*
X54995714Y-38781071D01*
X54795714Y-38723928D02*
X54424285Y-38723928D01*
X54624285Y-38952500D01*
X54538571Y-38952500D01*
X54481428Y-38981071D01*
X54452857Y-39009642D01*
X54424285Y-39066785D01*
X54424285Y-39209642D01*
X54452857Y-39266785D01*
X54481428Y-39295357D01*
X54538571Y-39323928D01*
X54710000Y-39323928D01*
X54767142Y-39295357D01*
X54795714Y-39266785D01*
X54224285Y-38723928D02*
X53824285Y-38723928D01*
X54081428Y-39323928D01*
G04 #@! TO.C,C40*
X64139714Y-46442285D02*
X64168285Y-46470857D01*
X64254000Y-46499428D01*
X64311142Y-46499428D01*
X64396857Y-46470857D01*
X64454000Y-46413714D01*
X64482571Y-46356571D01*
X64511142Y-46242285D01*
X64511142Y-46156571D01*
X64482571Y-46042285D01*
X64454000Y-45985142D01*
X64396857Y-45928000D01*
X64311142Y-45899428D01*
X64254000Y-45899428D01*
X64168285Y-45928000D01*
X64139714Y-45956571D01*
X63625428Y-46099428D02*
X63625428Y-46499428D01*
X63768285Y-45870857D02*
X63911142Y-46299428D01*
X63539714Y-46299428D01*
X63196857Y-45899428D02*
X63139714Y-45899428D01*
X63082571Y-45928000D01*
X63054000Y-45956571D01*
X63025428Y-46013714D01*
X62996857Y-46128000D01*
X62996857Y-46270857D01*
X63025428Y-46385142D01*
X63054000Y-46442285D01*
X63082571Y-46470857D01*
X63139714Y-46499428D01*
X63196857Y-46499428D01*
X63254000Y-46470857D01*
X63282571Y-46442285D01*
X63311142Y-46385142D01*
X63339714Y-46270857D01*
X63339714Y-46128000D01*
X63311142Y-46013714D01*
X63282571Y-45956571D01*
X63254000Y-45928000D01*
X63196857Y-45899428D01*
G04 #@! TO.C,C42*
X54995714Y-46378785D02*
X55024285Y-46407357D01*
X55110000Y-46435928D01*
X55167142Y-46435928D01*
X55252857Y-46407357D01*
X55310000Y-46350214D01*
X55338571Y-46293071D01*
X55367142Y-46178785D01*
X55367142Y-46093071D01*
X55338571Y-45978785D01*
X55310000Y-45921642D01*
X55252857Y-45864500D01*
X55167142Y-45835928D01*
X55110000Y-45835928D01*
X55024285Y-45864500D01*
X54995714Y-45893071D01*
X54481428Y-46035928D02*
X54481428Y-46435928D01*
X54624285Y-45807357D02*
X54767142Y-46235928D01*
X54395714Y-46235928D01*
X54195714Y-45893071D02*
X54167142Y-45864500D01*
X54110000Y-45835928D01*
X53967142Y-45835928D01*
X53910000Y-45864500D01*
X53881428Y-45893071D01*
X53852857Y-45950214D01*
X53852857Y-46007357D01*
X53881428Y-46093071D01*
X54224285Y-46435928D01*
X53852857Y-46435928D01*
G04 #@! TO.C,C43*
X64139714Y-54062285D02*
X64168285Y-54090857D01*
X64254000Y-54119428D01*
X64311142Y-54119428D01*
X64396857Y-54090857D01*
X64454000Y-54033714D01*
X64482571Y-53976571D01*
X64511142Y-53862285D01*
X64511142Y-53776571D01*
X64482571Y-53662285D01*
X64454000Y-53605142D01*
X64396857Y-53548000D01*
X64311142Y-53519428D01*
X64254000Y-53519428D01*
X64168285Y-53548000D01*
X64139714Y-53576571D01*
X63625428Y-53719428D02*
X63625428Y-54119428D01*
X63768285Y-53490857D02*
X63911142Y-53919428D01*
X63539714Y-53919428D01*
X63368285Y-53519428D02*
X62996857Y-53519428D01*
X63196857Y-53748000D01*
X63111142Y-53748000D01*
X63054000Y-53776571D01*
X63025428Y-53805142D01*
X62996857Y-53862285D01*
X62996857Y-54005142D01*
X63025428Y-54062285D01*
X63054000Y-54090857D01*
X63111142Y-54119428D01*
X63282571Y-54119428D01*
X63339714Y-54090857D01*
X63368285Y-54062285D01*
G04 #@! TO.C,C45*
X54995714Y-54062285D02*
X55024285Y-54090857D01*
X55110000Y-54119428D01*
X55167142Y-54119428D01*
X55252857Y-54090857D01*
X55310000Y-54033714D01*
X55338571Y-53976571D01*
X55367142Y-53862285D01*
X55367142Y-53776571D01*
X55338571Y-53662285D01*
X55310000Y-53605142D01*
X55252857Y-53548000D01*
X55167142Y-53519428D01*
X55110000Y-53519428D01*
X55024285Y-53548000D01*
X54995714Y-53576571D01*
X54481428Y-53719428D02*
X54481428Y-54119428D01*
X54624285Y-53490857D02*
X54767142Y-53919428D01*
X54395714Y-53919428D01*
X53881428Y-53519428D02*
X54167142Y-53519428D01*
X54195714Y-53805142D01*
X54167142Y-53776571D01*
X54110000Y-53748000D01*
X53967142Y-53748000D01*
X53910000Y-53776571D01*
X53881428Y-53805142D01*
X53852857Y-53862285D01*
X53852857Y-54005142D01*
X53881428Y-54062285D01*
X53910000Y-54090857D01*
X53967142Y-54119428D01*
X54110000Y-54119428D01*
X54167142Y-54090857D01*
X54195714Y-54062285D01*
G04 #@! TO.C,C47*
X64139714Y-61047285D02*
X64168285Y-61075857D01*
X64254000Y-61104428D01*
X64311142Y-61104428D01*
X64396857Y-61075857D01*
X64454000Y-61018714D01*
X64482571Y-60961571D01*
X64511142Y-60847285D01*
X64511142Y-60761571D01*
X64482571Y-60647285D01*
X64454000Y-60590142D01*
X64396857Y-60533000D01*
X64311142Y-60504428D01*
X64254000Y-60504428D01*
X64168285Y-60533000D01*
X64139714Y-60561571D01*
X63625428Y-60704428D02*
X63625428Y-61104428D01*
X63768285Y-60475857D02*
X63911142Y-60904428D01*
X63539714Y-60904428D01*
X63368285Y-60504428D02*
X62968285Y-60504428D01*
X63225428Y-61104428D01*
G04 #@! TO.C,C49*
X54868714Y-61047285D02*
X54897285Y-61075857D01*
X54983000Y-61104428D01*
X55040142Y-61104428D01*
X55125857Y-61075857D01*
X55183000Y-61018714D01*
X55211571Y-60961571D01*
X55240142Y-60847285D01*
X55240142Y-60761571D01*
X55211571Y-60647285D01*
X55183000Y-60590142D01*
X55125857Y-60533000D01*
X55040142Y-60504428D01*
X54983000Y-60504428D01*
X54897285Y-60533000D01*
X54868714Y-60561571D01*
X54354428Y-60704428D02*
X54354428Y-61104428D01*
X54497285Y-60475857D02*
X54640142Y-60904428D01*
X54268714Y-60904428D01*
X54011571Y-61104428D02*
X53897285Y-61104428D01*
X53840142Y-61075857D01*
X53811571Y-61047285D01*
X53754428Y-60961571D01*
X53725857Y-60847285D01*
X53725857Y-60618714D01*
X53754428Y-60561571D01*
X53783000Y-60533000D01*
X53840142Y-60504428D01*
X53954428Y-60504428D01*
X54011571Y-60533000D01*
X54040142Y-60561571D01*
X54068714Y-60618714D01*
X54068714Y-60761571D01*
X54040142Y-60818714D01*
X54011571Y-60847285D01*
X53954428Y-60875857D01*
X53840142Y-60875857D01*
X53783000Y-60847285D01*
X53754428Y-60818714D01*
X53725857Y-60761571D01*
G04 #@! TO.C,C51*
X64139714Y-68857785D02*
X64168285Y-68886357D01*
X64254000Y-68914928D01*
X64311142Y-68914928D01*
X64396857Y-68886357D01*
X64454000Y-68829214D01*
X64482571Y-68772071D01*
X64511142Y-68657785D01*
X64511142Y-68572071D01*
X64482571Y-68457785D01*
X64454000Y-68400642D01*
X64396857Y-68343500D01*
X64311142Y-68314928D01*
X64254000Y-68314928D01*
X64168285Y-68343500D01*
X64139714Y-68372071D01*
X63596857Y-68314928D02*
X63882571Y-68314928D01*
X63911142Y-68600642D01*
X63882571Y-68572071D01*
X63825428Y-68543500D01*
X63682571Y-68543500D01*
X63625428Y-68572071D01*
X63596857Y-68600642D01*
X63568285Y-68657785D01*
X63568285Y-68800642D01*
X63596857Y-68857785D01*
X63625428Y-68886357D01*
X63682571Y-68914928D01*
X63825428Y-68914928D01*
X63882571Y-68886357D01*
X63911142Y-68857785D01*
X62996857Y-68914928D02*
X63339714Y-68914928D01*
X63168285Y-68914928D02*
X63168285Y-68314928D01*
X63225428Y-68400642D01*
X63282571Y-68457785D01*
X63339714Y-68486357D01*
G04 #@! TO.C,C53*
X54868714Y-68857785D02*
X54897285Y-68886357D01*
X54983000Y-68914928D01*
X55040142Y-68914928D01*
X55125857Y-68886357D01*
X55183000Y-68829214D01*
X55211571Y-68772071D01*
X55240142Y-68657785D01*
X55240142Y-68572071D01*
X55211571Y-68457785D01*
X55183000Y-68400642D01*
X55125857Y-68343500D01*
X55040142Y-68314928D01*
X54983000Y-68314928D01*
X54897285Y-68343500D01*
X54868714Y-68372071D01*
X54325857Y-68314928D02*
X54611571Y-68314928D01*
X54640142Y-68600642D01*
X54611571Y-68572071D01*
X54554428Y-68543500D01*
X54411571Y-68543500D01*
X54354428Y-68572071D01*
X54325857Y-68600642D01*
X54297285Y-68657785D01*
X54297285Y-68800642D01*
X54325857Y-68857785D01*
X54354428Y-68886357D01*
X54411571Y-68914928D01*
X54554428Y-68914928D01*
X54611571Y-68886357D01*
X54640142Y-68857785D01*
X54097285Y-68314928D02*
X53725857Y-68314928D01*
X53925857Y-68543500D01*
X53840142Y-68543500D01*
X53783000Y-68572071D01*
X53754428Y-68600642D01*
X53725857Y-68657785D01*
X53725857Y-68800642D01*
X53754428Y-68857785D01*
X53783000Y-68886357D01*
X53840142Y-68914928D01*
X54011571Y-68914928D01*
X54068714Y-68886357D01*
X54097285Y-68857785D01*
G04 #@! TO.C,C55*
X64139714Y-76223785D02*
X64168285Y-76252357D01*
X64254000Y-76280928D01*
X64311142Y-76280928D01*
X64396857Y-76252357D01*
X64454000Y-76195214D01*
X64482571Y-76138071D01*
X64511142Y-76023785D01*
X64511142Y-75938071D01*
X64482571Y-75823785D01*
X64454000Y-75766642D01*
X64396857Y-75709500D01*
X64311142Y-75680928D01*
X64254000Y-75680928D01*
X64168285Y-75709500D01*
X64139714Y-75738071D01*
X63596857Y-75680928D02*
X63882571Y-75680928D01*
X63911142Y-75966642D01*
X63882571Y-75938071D01*
X63825428Y-75909500D01*
X63682571Y-75909500D01*
X63625428Y-75938071D01*
X63596857Y-75966642D01*
X63568285Y-76023785D01*
X63568285Y-76166642D01*
X63596857Y-76223785D01*
X63625428Y-76252357D01*
X63682571Y-76280928D01*
X63825428Y-76280928D01*
X63882571Y-76252357D01*
X63911142Y-76223785D01*
X63025428Y-75680928D02*
X63311142Y-75680928D01*
X63339714Y-75966642D01*
X63311142Y-75938071D01*
X63254000Y-75909500D01*
X63111142Y-75909500D01*
X63054000Y-75938071D01*
X63025428Y-75966642D01*
X62996857Y-76023785D01*
X62996857Y-76166642D01*
X63025428Y-76223785D01*
X63054000Y-76252357D01*
X63111142Y-76280928D01*
X63254000Y-76280928D01*
X63311142Y-76252357D01*
X63339714Y-76223785D01*
G04 #@! TO.C,C57*
X54802714Y-76223785D02*
X54831285Y-76252357D01*
X54917000Y-76280928D01*
X54974142Y-76280928D01*
X55059857Y-76252357D01*
X55117000Y-76195214D01*
X55145571Y-76138071D01*
X55174142Y-76023785D01*
X55174142Y-75938071D01*
X55145571Y-75823785D01*
X55117000Y-75766642D01*
X55059857Y-75709500D01*
X54974142Y-75680928D01*
X54917000Y-75680928D01*
X54831285Y-75709500D01*
X54802714Y-75738071D01*
X54259857Y-75680928D02*
X54545571Y-75680928D01*
X54574142Y-75966642D01*
X54545571Y-75938071D01*
X54488428Y-75909500D01*
X54345571Y-75909500D01*
X54288428Y-75938071D01*
X54259857Y-75966642D01*
X54231285Y-76023785D01*
X54231285Y-76166642D01*
X54259857Y-76223785D01*
X54288428Y-76252357D01*
X54345571Y-76280928D01*
X54488428Y-76280928D01*
X54545571Y-76252357D01*
X54574142Y-76223785D01*
X54031285Y-75680928D02*
X53631285Y-75680928D01*
X53888428Y-76280928D01*
G04 #@! TO.C,C58*
X88018857Y-63095142D02*
X88066476Y-63142761D01*
X88209333Y-63190380D01*
X88304571Y-63190380D01*
X88447428Y-63142761D01*
X88542666Y-63047523D01*
X88590285Y-62952285D01*
X88637904Y-62761809D01*
X88637904Y-62618952D01*
X88590285Y-62428476D01*
X88542666Y-62333238D01*
X88447428Y-62238000D01*
X88304571Y-62190380D01*
X88209333Y-62190380D01*
X88066476Y-62238000D01*
X88018857Y-62285619D01*
X87114095Y-62190380D02*
X87590285Y-62190380D01*
X87637904Y-62666571D01*
X87590285Y-62618952D01*
X87495047Y-62571333D01*
X87256952Y-62571333D01*
X87161714Y-62618952D01*
X87114095Y-62666571D01*
X87066476Y-62761809D01*
X87066476Y-62999904D01*
X87114095Y-63095142D01*
X87161714Y-63142761D01*
X87256952Y-63190380D01*
X87495047Y-63190380D01*
X87590285Y-63142761D01*
X87637904Y-63095142D01*
X86495047Y-62618952D02*
X86590285Y-62571333D01*
X86637904Y-62523714D01*
X86685523Y-62428476D01*
X86685523Y-62380857D01*
X86637904Y-62285619D01*
X86590285Y-62238000D01*
X86495047Y-62190380D01*
X86304571Y-62190380D01*
X86209333Y-62238000D01*
X86161714Y-62285619D01*
X86114095Y-62380857D01*
X86114095Y-62428476D01*
X86161714Y-62523714D01*
X86209333Y-62571333D01*
X86304571Y-62618952D01*
X86495047Y-62618952D01*
X86590285Y-62666571D01*
X86637904Y-62714190D01*
X86685523Y-62809428D01*
X86685523Y-62999904D01*
X86637904Y-63095142D01*
X86590285Y-63142761D01*
X86495047Y-63190380D01*
X86304571Y-63190380D01*
X86209333Y-63142761D01*
X86161714Y-63095142D01*
X86114095Y-62999904D01*
X86114095Y-62809428D01*
X86161714Y-62714190D01*
X86209333Y-62666571D01*
X86304571Y-62618952D01*
G04 #@! TO.C,C59*
X87952857Y-27027142D02*
X88000476Y-27074761D01*
X88143333Y-27122380D01*
X88238571Y-27122380D01*
X88381428Y-27074761D01*
X88476666Y-26979523D01*
X88524285Y-26884285D01*
X88571904Y-26693809D01*
X88571904Y-26550952D01*
X88524285Y-26360476D01*
X88476666Y-26265238D01*
X88381428Y-26170000D01*
X88238571Y-26122380D01*
X88143333Y-26122380D01*
X88000476Y-26170000D01*
X87952857Y-26217619D01*
X87048095Y-26122380D02*
X87524285Y-26122380D01*
X87571904Y-26598571D01*
X87524285Y-26550952D01*
X87429047Y-26503333D01*
X87190952Y-26503333D01*
X87095714Y-26550952D01*
X87048095Y-26598571D01*
X87000476Y-26693809D01*
X87000476Y-26931904D01*
X87048095Y-27027142D01*
X87095714Y-27074761D01*
X87190952Y-27122380D01*
X87429047Y-27122380D01*
X87524285Y-27074761D01*
X87571904Y-27027142D01*
X86524285Y-27122380D02*
X86333809Y-27122380D01*
X86238571Y-27074761D01*
X86190952Y-27027142D01*
X86095714Y-26884285D01*
X86048095Y-26693809D01*
X86048095Y-26312857D01*
X86095714Y-26217619D01*
X86143333Y-26170000D01*
X86238571Y-26122380D01*
X86429047Y-26122380D01*
X86524285Y-26170000D01*
X86571904Y-26217619D01*
X86619523Y-26312857D01*
X86619523Y-26550952D01*
X86571904Y-26646190D01*
X86524285Y-26693809D01*
X86429047Y-26741428D01*
X86238571Y-26741428D01*
X86143333Y-26693809D01*
X86095714Y-26646190D01*
X86048095Y-26550952D01*
G04 #@! TO.C,C60*
X93443857Y-23251142D02*
X93491476Y-23298761D01*
X93634333Y-23346380D01*
X93729571Y-23346380D01*
X93872428Y-23298761D01*
X93967666Y-23203523D01*
X94015285Y-23108285D01*
X94062904Y-22917809D01*
X94062904Y-22774952D01*
X94015285Y-22584476D01*
X93967666Y-22489238D01*
X93872428Y-22394000D01*
X93729571Y-22346380D01*
X93634333Y-22346380D01*
X93491476Y-22394000D01*
X93443857Y-22441619D01*
X92586714Y-22346380D02*
X92777190Y-22346380D01*
X92872428Y-22394000D01*
X92920047Y-22441619D01*
X93015285Y-22584476D01*
X93062904Y-22774952D01*
X93062904Y-23155904D01*
X93015285Y-23251142D01*
X92967666Y-23298761D01*
X92872428Y-23346380D01*
X92681952Y-23346380D01*
X92586714Y-23298761D01*
X92539095Y-23251142D01*
X92491476Y-23155904D01*
X92491476Y-22917809D01*
X92539095Y-22822571D01*
X92586714Y-22774952D01*
X92681952Y-22727333D01*
X92872428Y-22727333D01*
X92967666Y-22774952D01*
X93015285Y-22822571D01*
X93062904Y-22917809D01*
X91872428Y-22346380D02*
X91777190Y-22346380D01*
X91681952Y-22394000D01*
X91634333Y-22441619D01*
X91586714Y-22536857D01*
X91539095Y-22727333D01*
X91539095Y-22965428D01*
X91586714Y-23155904D01*
X91634333Y-23251142D01*
X91681952Y-23298761D01*
X91777190Y-23346380D01*
X91872428Y-23346380D01*
X91967666Y-23298761D01*
X92015285Y-23251142D01*
X92062904Y-23155904D01*
X92110523Y-22965428D01*
X92110523Y-22727333D01*
X92062904Y-22536857D01*
X92015285Y-22441619D01*
X91967666Y-22394000D01*
X91872428Y-22346380D01*
G04 #@! TO.C,C61*
X93352857Y-59065142D02*
X93400476Y-59112761D01*
X93543333Y-59160380D01*
X93638571Y-59160380D01*
X93781428Y-59112761D01*
X93876666Y-59017523D01*
X93924285Y-58922285D01*
X93971904Y-58731809D01*
X93971904Y-58588952D01*
X93924285Y-58398476D01*
X93876666Y-58303238D01*
X93781428Y-58208000D01*
X93638571Y-58160380D01*
X93543333Y-58160380D01*
X93400476Y-58208000D01*
X93352857Y-58255619D01*
X92495714Y-58160380D02*
X92686190Y-58160380D01*
X92781428Y-58208000D01*
X92829047Y-58255619D01*
X92924285Y-58398476D01*
X92971904Y-58588952D01*
X92971904Y-58969904D01*
X92924285Y-59065142D01*
X92876666Y-59112761D01*
X92781428Y-59160380D01*
X92590952Y-59160380D01*
X92495714Y-59112761D01*
X92448095Y-59065142D01*
X92400476Y-58969904D01*
X92400476Y-58731809D01*
X92448095Y-58636571D01*
X92495714Y-58588952D01*
X92590952Y-58541333D01*
X92781428Y-58541333D01*
X92876666Y-58588952D01*
X92924285Y-58636571D01*
X92971904Y-58731809D01*
X91448095Y-59160380D02*
X92019523Y-59160380D01*
X91733809Y-59160380D02*
X91733809Y-58160380D01*
X91829047Y-58303238D01*
X91924285Y-58398476D01*
X92019523Y-58446095D01*
G04 #@! TO.C,C62*
X88018857Y-49921142D02*
X88066476Y-49968761D01*
X88209333Y-50016380D01*
X88304571Y-50016380D01*
X88447428Y-49968761D01*
X88542666Y-49873523D01*
X88590285Y-49778285D01*
X88637904Y-49587809D01*
X88637904Y-49444952D01*
X88590285Y-49254476D01*
X88542666Y-49159238D01*
X88447428Y-49064000D01*
X88304571Y-49016380D01*
X88209333Y-49016380D01*
X88066476Y-49064000D01*
X88018857Y-49111619D01*
X87161714Y-49016380D02*
X87352190Y-49016380D01*
X87447428Y-49064000D01*
X87495047Y-49111619D01*
X87590285Y-49254476D01*
X87637904Y-49444952D01*
X87637904Y-49825904D01*
X87590285Y-49921142D01*
X87542666Y-49968761D01*
X87447428Y-50016380D01*
X87256952Y-50016380D01*
X87161714Y-49968761D01*
X87114095Y-49921142D01*
X87066476Y-49825904D01*
X87066476Y-49587809D01*
X87114095Y-49492571D01*
X87161714Y-49444952D01*
X87256952Y-49397333D01*
X87447428Y-49397333D01*
X87542666Y-49444952D01*
X87590285Y-49492571D01*
X87637904Y-49587809D01*
X86685523Y-49111619D02*
X86637904Y-49064000D01*
X86542666Y-49016380D01*
X86304571Y-49016380D01*
X86209333Y-49064000D01*
X86161714Y-49111619D01*
X86114095Y-49206857D01*
X86114095Y-49302095D01*
X86161714Y-49444952D01*
X86733142Y-50016380D01*
X86114095Y-50016380D01*
G04 #@! TO.C,C63*
X93352857Y-46111142D02*
X93400476Y-46158761D01*
X93543333Y-46206380D01*
X93638571Y-46206380D01*
X93781428Y-46158761D01*
X93876666Y-46063523D01*
X93924285Y-45968285D01*
X93971904Y-45777809D01*
X93971904Y-45634952D01*
X93924285Y-45444476D01*
X93876666Y-45349238D01*
X93781428Y-45254000D01*
X93638571Y-45206380D01*
X93543333Y-45206380D01*
X93400476Y-45254000D01*
X93352857Y-45301619D01*
X92495714Y-45206380D02*
X92686190Y-45206380D01*
X92781428Y-45254000D01*
X92829047Y-45301619D01*
X92924285Y-45444476D01*
X92971904Y-45634952D01*
X92971904Y-46015904D01*
X92924285Y-46111142D01*
X92876666Y-46158761D01*
X92781428Y-46206380D01*
X92590952Y-46206380D01*
X92495714Y-46158761D01*
X92448095Y-46111142D01*
X92400476Y-46015904D01*
X92400476Y-45777809D01*
X92448095Y-45682571D01*
X92495714Y-45634952D01*
X92590952Y-45587333D01*
X92781428Y-45587333D01*
X92876666Y-45634952D01*
X92924285Y-45682571D01*
X92971904Y-45777809D01*
X92067142Y-45206380D02*
X91448095Y-45206380D01*
X91781428Y-45587333D01*
X91638571Y-45587333D01*
X91543333Y-45634952D01*
X91495714Y-45682571D01*
X91448095Y-45777809D01*
X91448095Y-46015904D01*
X91495714Y-46111142D01*
X91543333Y-46158761D01*
X91638571Y-46206380D01*
X91924285Y-46206380D01*
X92019523Y-46158761D01*
X92067142Y-46111142D01*
G04 #@! TO.C,IC9*
D10*
X64534952Y-20808904D02*
X64534952Y-20008904D01*
X63696857Y-20732714D02*
X63734952Y-20770809D01*
X63849238Y-20808904D01*
X63925428Y-20808904D01*
X64039714Y-20770809D01*
X64115904Y-20694619D01*
X64154000Y-20618428D01*
X64192095Y-20466047D01*
X64192095Y-20351761D01*
X64154000Y-20199380D01*
X64115904Y-20123190D01*
X64039714Y-20047000D01*
X63925428Y-20008904D01*
X63849238Y-20008904D01*
X63734952Y-20047000D01*
X63696857Y-20085095D01*
X63315904Y-20808904D02*
X63163523Y-20808904D01*
X63087333Y-20770809D01*
X63049238Y-20732714D01*
X62973047Y-20618428D01*
X62934952Y-20466047D01*
X62934952Y-20161285D01*
X62973047Y-20085095D01*
X63011142Y-20047000D01*
X63087333Y-20008904D01*
X63239714Y-20008904D01*
X63315904Y-20047000D01*
X63354000Y-20085095D01*
X63392095Y-20161285D01*
X63392095Y-20351761D01*
X63354000Y-20427952D01*
X63315904Y-20466047D01*
X63239714Y-20504142D01*
X63087333Y-20504142D01*
X63011142Y-20466047D01*
X62973047Y-20427952D01*
X62934952Y-20351761D01*
G04 #@! TO.C,IC13*
X64915904Y-28047904D02*
X64915904Y-27247904D01*
X64077809Y-27971714D02*
X64115904Y-28009809D01*
X64230190Y-28047904D01*
X64306380Y-28047904D01*
X64420666Y-28009809D01*
X64496857Y-27933619D01*
X64534952Y-27857428D01*
X64573047Y-27705047D01*
X64573047Y-27590761D01*
X64534952Y-27438380D01*
X64496857Y-27362190D01*
X64420666Y-27286000D01*
X64306380Y-27247904D01*
X64230190Y-27247904D01*
X64115904Y-27286000D01*
X64077809Y-27324095D01*
X63315904Y-28047904D02*
X63773047Y-28047904D01*
X63544476Y-28047904D02*
X63544476Y-27247904D01*
X63620666Y-27362190D01*
X63696857Y-27438380D01*
X63773047Y-27476476D01*
X63049238Y-27247904D02*
X62554000Y-27247904D01*
X62820666Y-27552666D01*
X62706380Y-27552666D01*
X62630190Y-27590761D01*
X62592095Y-27628857D01*
X62554000Y-27705047D01*
X62554000Y-27895523D01*
X62592095Y-27971714D01*
X62630190Y-28009809D01*
X62706380Y-28047904D01*
X62934952Y-28047904D01*
X63011142Y-28009809D01*
X63049238Y-27971714D01*
G04 #@! TO.C,IC15*
X55644904Y-28047904D02*
X55644904Y-27247904D01*
X54806809Y-27971714D02*
X54844904Y-28009809D01*
X54959190Y-28047904D01*
X55035380Y-28047904D01*
X55149666Y-28009809D01*
X55225857Y-27933619D01*
X55263952Y-27857428D01*
X55302047Y-27705047D01*
X55302047Y-27590761D01*
X55263952Y-27438380D01*
X55225857Y-27362190D01*
X55149666Y-27286000D01*
X55035380Y-27247904D01*
X54959190Y-27247904D01*
X54844904Y-27286000D01*
X54806809Y-27324095D01*
X54044904Y-28047904D02*
X54502047Y-28047904D01*
X54273476Y-28047904D02*
X54273476Y-27247904D01*
X54349666Y-27362190D01*
X54425857Y-27438380D01*
X54502047Y-27476476D01*
X53321095Y-27247904D02*
X53702047Y-27247904D01*
X53740142Y-27628857D01*
X53702047Y-27590761D01*
X53625857Y-27552666D01*
X53435380Y-27552666D01*
X53359190Y-27590761D01*
X53321095Y-27628857D01*
X53283000Y-27705047D01*
X53283000Y-27895523D01*
X53321095Y-27971714D01*
X53359190Y-28009809D01*
X53435380Y-28047904D01*
X53625857Y-28047904D01*
X53702047Y-28009809D01*
X53740142Y-27971714D01*
G04 #@! TO.C,IC17*
X64915904Y-35413904D02*
X64915904Y-34613904D01*
X64077809Y-35337714D02*
X64115904Y-35375809D01*
X64230190Y-35413904D01*
X64306380Y-35413904D01*
X64420666Y-35375809D01*
X64496857Y-35299619D01*
X64534952Y-35223428D01*
X64573047Y-35071047D01*
X64573047Y-34956761D01*
X64534952Y-34804380D01*
X64496857Y-34728190D01*
X64420666Y-34652000D01*
X64306380Y-34613904D01*
X64230190Y-34613904D01*
X64115904Y-34652000D01*
X64077809Y-34690095D01*
X63315904Y-35413904D02*
X63773047Y-35413904D01*
X63544476Y-35413904D02*
X63544476Y-34613904D01*
X63620666Y-34728190D01*
X63696857Y-34804380D01*
X63773047Y-34842476D01*
X63049238Y-34613904D02*
X62515904Y-34613904D01*
X62858761Y-35413904D01*
G04 #@! TO.C,IC19*
X55644904Y-35413904D02*
X55644904Y-34613904D01*
X54806809Y-35337714D02*
X54844904Y-35375809D01*
X54959190Y-35413904D01*
X55035380Y-35413904D01*
X55149666Y-35375809D01*
X55225857Y-35299619D01*
X55263952Y-35223428D01*
X55302047Y-35071047D01*
X55302047Y-34956761D01*
X55263952Y-34804380D01*
X55225857Y-34728190D01*
X55149666Y-34652000D01*
X55035380Y-34613904D01*
X54959190Y-34613904D01*
X54844904Y-34652000D01*
X54806809Y-34690095D01*
X54044904Y-35413904D02*
X54502047Y-35413904D01*
X54273476Y-35413904D02*
X54273476Y-34613904D01*
X54349666Y-34728190D01*
X54425857Y-34804380D01*
X54502047Y-34842476D01*
X53663952Y-35413904D02*
X53511571Y-35413904D01*
X53435380Y-35375809D01*
X53397285Y-35337714D01*
X53321095Y-35223428D01*
X53283000Y-35071047D01*
X53283000Y-34766285D01*
X53321095Y-34690095D01*
X53359190Y-34652000D01*
X53435380Y-34613904D01*
X53587761Y-34613904D01*
X53663952Y-34652000D01*
X53702047Y-34690095D01*
X53740142Y-34766285D01*
X53740142Y-34956761D01*
X53702047Y-35032952D01*
X53663952Y-35071047D01*
X53587761Y-35109142D01*
X53435380Y-35109142D01*
X53359190Y-35071047D01*
X53321095Y-35032952D01*
X53283000Y-34956761D01*
G04 #@! TO.C,IC21*
X64915904Y-42525904D02*
X64915904Y-41725904D01*
X64077809Y-42449714D02*
X64115904Y-42487809D01*
X64230190Y-42525904D01*
X64306380Y-42525904D01*
X64420666Y-42487809D01*
X64496857Y-42411619D01*
X64534952Y-42335428D01*
X64573047Y-42183047D01*
X64573047Y-42068761D01*
X64534952Y-41916380D01*
X64496857Y-41840190D01*
X64420666Y-41764000D01*
X64306380Y-41725904D01*
X64230190Y-41725904D01*
X64115904Y-41764000D01*
X64077809Y-41802095D01*
X63773047Y-41802095D02*
X63734952Y-41764000D01*
X63658761Y-41725904D01*
X63468285Y-41725904D01*
X63392095Y-41764000D01*
X63354000Y-41802095D01*
X63315904Y-41878285D01*
X63315904Y-41954476D01*
X63354000Y-42068761D01*
X63811142Y-42525904D01*
X63315904Y-42525904D01*
X62554000Y-42525904D02*
X63011142Y-42525904D01*
X62782571Y-42525904D02*
X62782571Y-41725904D01*
X62858761Y-41840190D01*
X62934952Y-41916380D01*
X63011142Y-41954476D01*
G04 #@! TO.C,IC23*
X55644904Y-42525904D02*
X55644904Y-41725904D01*
X54806809Y-42449714D02*
X54844904Y-42487809D01*
X54959190Y-42525904D01*
X55035380Y-42525904D01*
X55149666Y-42487809D01*
X55225857Y-42411619D01*
X55263952Y-42335428D01*
X55302047Y-42183047D01*
X55302047Y-42068761D01*
X55263952Y-41916380D01*
X55225857Y-41840190D01*
X55149666Y-41764000D01*
X55035380Y-41725904D01*
X54959190Y-41725904D01*
X54844904Y-41764000D01*
X54806809Y-41802095D01*
X54502047Y-41802095D02*
X54463952Y-41764000D01*
X54387761Y-41725904D01*
X54197285Y-41725904D01*
X54121095Y-41764000D01*
X54083000Y-41802095D01*
X54044904Y-41878285D01*
X54044904Y-41954476D01*
X54083000Y-42068761D01*
X54540142Y-42525904D01*
X54044904Y-42525904D01*
X53778238Y-41725904D02*
X53283000Y-41725904D01*
X53549666Y-42030666D01*
X53435380Y-42030666D01*
X53359190Y-42068761D01*
X53321095Y-42106857D01*
X53283000Y-42183047D01*
X53283000Y-42373523D01*
X53321095Y-42449714D01*
X53359190Y-42487809D01*
X53435380Y-42525904D01*
X53663952Y-42525904D01*
X53740142Y-42487809D01*
X53778238Y-42449714D01*
G04 #@! TO.C,IC25*
X64915904Y-50272904D02*
X64915904Y-49472904D01*
X64077809Y-50196714D02*
X64115904Y-50234809D01*
X64230190Y-50272904D01*
X64306380Y-50272904D01*
X64420666Y-50234809D01*
X64496857Y-50158619D01*
X64534952Y-50082428D01*
X64573047Y-49930047D01*
X64573047Y-49815761D01*
X64534952Y-49663380D01*
X64496857Y-49587190D01*
X64420666Y-49511000D01*
X64306380Y-49472904D01*
X64230190Y-49472904D01*
X64115904Y-49511000D01*
X64077809Y-49549095D01*
X63773047Y-49549095D02*
X63734952Y-49511000D01*
X63658761Y-49472904D01*
X63468285Y-49472904D01*
X63392095Y-49511000D01*
X63354000Y-49549095D01*
X63315904Y-49625285D01*
X63315904Y-49701476D01*
X63354000Y-49815761D01*
X63811142Y-50272904D01*
X63315904Y-50272904D01*
X62592095Y-49472904D02*
X62973047Y-49472904D01*
X63011142Y-49853857D01*
X62973047Y-49815761D01*
X62896857Y-49777666D01*
X62706380Y-49777666D01*
X62630190Y-49815761D01*
X62592095Y-49853857D01*
X62554000Y-49930047D01*
X62554000Y-50120523D01*
X62592095Y-50196714D01*
X62630190Y-50234809D01*
X62706380Y-50272904D01*
X62896857Y-50272904D01*
X62973047Y-50234809D01*
X63011142Y-50196714D01*
G04 #@! TO.C,IC27*
X55517904Y-50399904D02*
X55517904Y-49599904D01*
X54679809Y-50323714D02*
X54717904Y-50361809D01*
X54832190Y-50399904D01*
X54908380Y-50399904D01*
X55022666Y-50361809D01*
X55098857Y-50285619D01*
X55136952Y-50209428D01*
X55175047Y-50057047D01*
X55175047Y-49942761D01*
X55136952Y-49790380D01*
X55098857Y-49714190D01*
X55022666Y-49638000D01*
X54908380Y-49599904D01*
X54832190Y-49599904D01*
X54717904Y-49638000D01*
X54679809Y-49676095D01*
X54375047Y-49676095D02*
X54336952Y-49638000D01*
X54260761Y-49599904D01*
X54070285Y-49599904D01*
X53994095Y-49638000D01*
X53956000Y-49676095D01*
X53917904Y-49752285D01*
X53917904Y-49828476D01*
X53956000Y-49942761D01*
X54413142Y-50399904D01*
X53917904Y-50399904D01*
X53651238Y-49599904D02*
X53117904Y-49599904D01*
X53460761Y-50399904D01*
G04 #@! TO.C,IC29*
X64915904Y-57130904D02*
X64915904Y-56330904D01*
X64077809Y-57054714D02*
X64115904Y-57092809D01*
X64230190Y-57130904D01*
X64306380Y-57130904D01*
X64420666Y-57092809D01*
X64496857Y-57016619D01*
X64534952Y-56940428D01*
X64573047Y-56788047D01*
X64573047Y-56673761D01*
X64534952Y-56521380D01*
X64496857Y-56445190D01*
X64420666Y-56369000D01*
X64306380Y-56330904D01*
X64230190Y-56330904D01*
X64115904Y-56369000D01*
X64077809Y-56407095D01*
X63773047Y-56407095D02*
X63734952Y-56369000D01*
X63658761Y-56330904D01*
X63468285Y-56330904D01*
X63392095Y-56369000D01*
X63354000Y-56407095D01*
X63315904Y-56483285D01*
X63315904Y-56559476D01*
X63354000Y-56673761D01*
X63811142Y-57130904D01*
X63315904Y-57130904D01*
X62934952Y-57130904D02*
X62782571Y-57130904D01*
X62706380Y-57092809D01*
X62668285Y-57054714D01*
X62592095Y-56940428D01*
X62554000Y-56788047D01*
X62554000Y-56483285D01*
X62592095Y-56407095D01*
X62630190Y-56369000D01*
X62706380Y-56330904D01*
X62858761Y-56330904D01*
X62934952Y-56369000D01*
X62973047Y-56407095D01*
X63011142Y-56483285D01*
X63011142Y-56673761D01*
X62973047Y-56749952D01*
X62934952Y-56788047D01*
X62858761Y-56826142D01*
X62706380Y-56826142D01*
X62630190Y-56788047D01*
X62592095Y-56749952D01*
X62554000Y-56673761D01*
G04 #@! TO.C,IC31*
X55644904Y-57130904D02*
X55644904Y-56330904D01*
X54806809Y-57054714D02*
X54844904Y-57092809D01*
X54959190Y-57130904D01*
X55035380Y-57130904D01*
X55149666Y-57092809D01*
X55225857Y-57016619D01*
X55263952Y-56940428D01*
X55302047Y-56788047D01*
X55302047Y-56673761D01*
X55263952Y-56521380D01*
X55225857Y-56445190D01*
X55149666Y-56369000D01*
X55035380Y-56330904D01*
X54959190Y-56330904D01*
X54844904Y-56369000D01*
X54806809Y-56407095D01*
X54540142Y-56330904D02*
X54044904Y-56330904D01*
X54311571Y-56635666D01*
X54197285Y-56635666D01*
X54121095Y-56673761D01*
X54083000Y-56711857D01*
X54044904Y-56788047D01*
X54044904Y-56978523D01*
X54083000Y-57054714D01*
X54121095Y-57092809D01*
X54197285Y-57130904D01*
X54425857Y-57130904D01*
X54502047Y-57092809D01*
X54540142Y-57054714D01*
X53283000Y-57130904D02*
X53740142Y-57130904D01*
X53511571Y-57130904D02*
X53511571Y-56330904D01*
X53587761Y-56445190D01*
X53663952Y-56521380D01*
X53740142Y-56559476D01*
G04 #@! TO.C,IC33*
X64915904Y-65004904D02*
X64915904Y-64204904D01*
X64077809Y-64928714D02*
X64115904Y-64966809D01*
X64230190Y-65004904D01*
X64306380Y-65004904D01*
X64420666Y-64966809D01*
X64496857Y-64890619D01*
X64534952Y-64814428D01*
X64573047Y-64662047D01*
X64573047Y-64547761D01*
X64534952Y-64395380D01*
X64496857Y-64319190D01*
X64420666Y-64243000D01*
X64306380Y-64204904D01*
X64230190Y-64204904D01*
X64115904Y-64243000D01*
X64077809Y-64281095D01*
X63811142Y-64204904D02*
X63315904Y-64204904D01*
X63582571Y-64509666D01*
X63468285Y-64509666D01*
X63392095Y-64547761D01*
X63354000Y-64585857D01*
X63315904Y-64662047D01*
X63315904Y-64852523D01*
X63354000Y-64928714D01*
X63392095Y-64966809D01*
X63468285Y-65004904D01*
X63696857Y-65004904D01*
X63773047Y-64966809D01*
X63811142Y-64928714D01*
X63049238Y-64204904D02*
X62554000Y-64204904D01*
X62820666Y-64509666D01*
X62706380Y-64509666D01*
X62630190Y-64547761D01*
X62592095Y-64585857D01*
X62554000Y-64662047D01*
X62554000Y-64852523D01*
X62592095Y-64928714D01*
X62630190Y-64966809D01*
X62706380Y-65004904D01*
X62934952Y-65004904D01*
X63011142Y-64966809D01*
X63049238Y-64928714D01*
G04 #@! TO.C,IC35*
X55644904Y-65004904D02*
X55644904Y-64204904D01*
X54806809Y-64928714D02*
X54844904Y-64966809D01*
X54959190Y-65004904D01*
X55035380Y-65004904D01*
X55149666Y-64966809D01*
X55225857Y-64890619D01*
X55263952Y-64814428D01*
X55302047Y-64662047D01*
X55302047Y-64547761D01*
X55263952Y-64395380D01*
X55225857Y-64319190D01*
X55149666Y-64243000D01*
X55035380Y-64204904D01*
X54959190Y-64204904D01*
X54844904Y-64243000D01*
X54806809Y-64281095D01*
X54540142Y-64204904D02*
X54044904Y-64204904D01*
X54311571Y-64509666D01*
X54197285Y-64509666D01*
X54121095Y-64547761D01*
X54083000Y-64585857D01*
X54044904Y-64662047D01*
X54044904Y-64852523D01*
X54083000Y-64928714D01*
X54121095Y-64966809D01*
X54197285Y-65004904D01*
X54425857Y-65004904D01*
X54502047Y-64966809D01*
X54540142Y-64928714D01*
X53321095Y-64204904D02*
X53702047Y-64204904D01*
X53740142Y-64585857D01*
X53702047Y-64547761D01*
X53625857Y-64509666D01*
X53435380Y-64509666D01*
X53359190Y-64547761D01*
X53321095Y-64585857D01*
X53283000Y-64662047D01*
X53283000Y-64852523D01*
X53321095Y-64928714D01*
X53359190Y-64966809D01*
X53435380Y-65004904D01*
X53625857Y-65004904D01*
X53702047Y-64966809D01*
X53740142Y-64928714D01*
G04 #@! TO.C,IC37*
X64915904Y-72116904D02*
X64915904Y-71316904D01*
X64077809Y-72040714D02*
X64115904Y-72078809D01*
X64230190Y-72116904D01*
X64306380Y-72116904D01*
X64420666Y-72078809D01*
X64496857Y-72002619D01*
X64534952Y-71926428D01*
X64573047Y-71774047D01*
X64573047Y-71659761D01*
X64534952Y-71507380D01*
X64496857Y-71431190D01*
X64420666Y-71355000D01*
X64306380Y-71316904D01*
X64230190Y-71316904D01*
X64115904Y-71355000D01*
X64077809Y-71393095D01*
X63811142Y-71316904D02*
X63315904Y-71316904D01*
X63582571Y-71621666D01*
X63468285Y-71621666D01*
X63392095Y-71659761D01*
X63354000Y-71697857D01*
X63315904Y-71774047D01*
X63315904Y-71964523D01*
X63354000Y-72040714D01*
X63392095Y-72078809D01*
X63468285Y-72116904D01*
X63696857Y-72116904D01*
X63773047Y-72078809D01*
X63811142Y-72040714D01*
X63049238Y-71316904D02*
X62515904Y-71316904D01*
X62858761Y-72116904D01*
G04 #@! TO.C,IC39*
X55644904Y-72116904D02*
X55644904Y-71316904D01*
X54806809Y-72040714D02*
X54844904Y-72078809D01*
X54959190Y-72116904D01*
X55035380Y-72116904D01*
X55149666Y-72078809D01*
X55225857Y-72002619D01*
X55263952Y-71926428D01*
X55302047Y-71774047D01*
X55302047Y-71659761D01*
X55263952Y-71507380D01*
X55225857Y-71431190D01*
X55149666Y-71355000D01*
X55035380Y-71316904D01*
X54959190Y-71316904D01*
X54844904Y-71355000D01*
X54806809Y-71393095D01*
X54540142Y-71316904D02*
X54044904Y-71316904D01*
X54311571Y-71621666D01*
X54197285Y-71621666D01*
X54121095Y-71659761D01*
X54083000Y-71697857D01*
X54044904Y-71774047D01*
X54044904Y-71964523D01*
X54083000Y-72040714D01*
X54121095Y-72078809D01*
X54197285Y-72116904D01*
X54425857Y-72116904D01*
X54502047Y-72078809D01*
X54540142Y-72040714D01*
X53663952Y-72116904D02*
X53511571Y-72116904D01*
X53435380Y-72078809D01*
X53397285Y-72040714D01*
X53321095Y-71926428D01*
X53283000Y-71774047D01*
X53283000Y-71469285D01*
X53321095Y-71393095D01*
X53359190Y-71355000D01*
X53435380Y-71316904D01*
X53587761Y-71316904D01*
X53663952Y-71355000D01*
X53702047Y-71393095D01*
X53740142Y-71469285D01*
X53740142Y-71659761D01*
X53702047Y-71735952D01*
X53663952Y-71774047D01*
X53587761Y-71812142D01*
X53435380Y-71812142D01*
X53359190Y-71774047D01*
X53321095Y-71735952D01*
X53283000Y-71659761D01*
G04 #@! TD*
%LPC*%
D12*
G04 #@! TO.C,C5*
X91948000Y-34290000D03*
D13*
X91948000Y-41790000D03*
G04 #@! TD*
D14*
G04 #@! TO.C,IC11*
X57195000Y-22352000D03*
X57195000Y-21082000D03*
X57195000Y-19812000D03*
X57195000Y-18542000D03*
X51771000Y-18542000D03*
X51771000Y-19812000D03*
X51771000Y-21082000D03*
X51771000Y-22352000D03*
G04 #@! TD*
D13*
G04 #@! TO.C,C1*
X67818000Y-5842000D03*
D12*
X67818000Y-13342000D03*
G04 #@! TD*
D13*
G04 #@! TO.C,C2*
X87122000Y-65398000D03*
D12*
X87122000Y-72898000D03*
G04 #@! TD*
D13*
G04 #@! TO.C,C3*
X80772000Y-5842000D03*
D12*
X80772000Y-13342000D03*
G04 #@! TD*
G04 #@! TO.C,C4*
X74168000Y-13342000D03*
D13*
X74168000Y-5842000D03*
G04 #@! TD*
G04 #@! TO.C,C6*
X94742000Y-65398000D03*
D12*
X94742000Y-72898000D03*
G04 #@! TD*
G04 #@! TO.C,C7*
X90932000Y-65398000D03*
D13*
X90932000Y-72898000D03*
G04 #@! TD*
D15*
G04 #@! TO.C,C8*
X7874000Y-12232000D03*
D13*
X7874000Y-14732000D03*
G04 #@! TD*
G04 #@! TO.C,C9*
X23622000Y-14692000D03*
D15*
X23622000Y-12192000D03*
G04 #@! TD*
G04 #@! TO.C,C10*
X47244000Y-12446000D03*
D13*
X44744000Y-12446000D03*
G04 #@! TD*
G04 #@! TO.C,C11*
X38608000Y-12446000D03*
D15*
X41108000Y-12446000D03*
G04 #@! TD*
G04 #@! TO.C,C12*
X14224000Y-12232000D03*
D13*
X14224000Y-14732000D03*
G04 #@! TD*
G04 #@! TO.C,C13*
X32258000Y-14946000D03*
D15*
X32258000Y-12446000D03*
G04 #@! TD*
D16*
G04 #@! TO.C,C14*
G36*
X15727801Y-36198604D02*
X15739984Y-36200411D01*
X15751931Y-36203404D01*
X15763527Y-36207553D01*
X15774660Y-36212819D01*
X15785224Y-36219151D01*
X15795116Y-36226487D01*
X15804242Y-36234758D01*
X15812513Y-36243884D01*
X15819849Y-36253776D01*
X15826181Y-36264340D01*
X15831447Y-36275473D01*
X15835596Y-36287069D01*
X15838589Y-36299016D01*
X15840396Y-36311199D01*
X15841000Y-36323500D01*
X15841000Y-36574500D01*
X15840396Y-36586801D01*
X15838589Y-36598984D01*
X15835596Y-36610931D01*
X15831447Y-36622527D01*
X15826181Y-36633660D01*
X15819849Y-36644224D01*
X15812513Y-36654116D01*
X15804242Y-36663242D01*
X15795116Y-36671513D01*
X15785224Y-36678849D01*
X15774660Y-36685181D01*
X15763527Y-36690447D01*
X15751931Y-36694596D01*
X15739984Y-36697589D01*
X15727801Y-36699396D01*
X15715500Y-36700000D01*
X15404500Y-36700000D01*
X15392199Y-36699396D01*
X15380016Y-36697589D01*
X15368069Y-36694596D01*
X15356473Y-36690447D01*
X15345340Y-36685181D01*
X15334776Y-36678849D01*
X15324884Y-36671513D01*
X15315758Y-36663242D01*
X15307487Y-36654116D01*
X15300151Y-36644224D01*
X15293819Y-36633660D01*
X15288553Y-36622527D01*
X15284404Y-36610931D01*
X15281411Y-36598984D01*
X15279604Y-36586801D01*
X15279000Y-36574500D01*
X15279000Y-36323500D01*
X15279604Y-36311199D01*
X15281411Y-36299016D01*
X15284404Y-36287069D01*
X15288553Y-36275473D01*
X15293819Y-36264340D01*
X15300151Y-36253776D01*
X15307487Y-36243884D01*
X15315758Y-36234758D01*
X15324884Y-36226487D01*
X15334776Y-36219151D01*
X15345340Y-36212819D01*
X15356473Y-36207553D01*
X15368069Y-36203404D01*
X15380016Y-36200411D01*
X15392199Y-36198604D01*
X15404500Y-36198000D01*
X15715500Y-36198000D01*
X15727801Y-36198604D01*
X15727801Y-36198604D01*
G37*
D17*
X15560000Y-36449000D03*
D16*
G36*
X15087801Y-36198604D02*
X15099984Y-36200411D01*
X15111931Y-36203404D01*
X15123527Y-36207553D01*
X15134660Y-36212819D01*
X15145224Y-36219151D01*
X15155116Y-36226487D01*
X15164242Y-36234758D01*
X15172513Y-36243884D01*
X15179849Y-36253776D01*
X15186181Y-36264340D01*
X15191447Y-36275473D01*
X15195596Y-36287069D01*
X15198589Y-36299016D01*
X15200396Y-36311199D01*
X15201000Y-36323500D01*
X15201000Y-36574500D01*
X15200396Y-36586801D01*
X15198589Y-36598984D01*
X15195596Y-36610931D01*
X15191447Y-36622527D01*
X15186181Y-36633660D01*
X15179849Y-36644224D01*
X15172513Y-36654116D01*
X15164242Y-36663242D01*
X15155116Y-36671513D01*
X15145224Y-36678849D01*
X15134660Y-36685181D01*
X15123527Y-36690447D01*
X15111931Y-36694596D01*
X15099984Y-36697589D01*
X15087801Y-36699396D01*
X15075500Y-36700000D01*
X14764500Y-36700000D01*
X14752199Y-36699396D01*
X14740016Y-36697589D01*
X14728069Y-36694596D01*
X14716473Y-36690447D01*
X14705340Y-36685181D01*
X14694776Y-36678849D01*
X14684884Y-36671513D01*
X14675758Y-36663242D01*
X14667487Y-36654116D01*
X14660151Y-36644224D01*
X14653819Y-36633660D01*
X14648553Y-36622527D01*
X14644404Y-36610931D01*
X14641411Y-36598984D01*
X14639604Y-36586801D01*
X14639000Y-36574500D01*
X14639000Y-36323500D01*
X14639604Y-36311199D01*
X14641411Y-36299016D01*
X14644404Y-36287069D01*
X14648553Y-36275473D01*
X14653819Y-36264340D01*
X14660151Y-36253776D01*
X14667487Y-36243884D01*
X14675758Y-36234758D01*
X14684884Y-36226487D01*
X14694776Y-36219151D01*
X14705340Y-36212819D01*
X14716473Y-36207553D01*
X14728069Y-36203404D01*
X14740016Y-36200411D01*
X14752199Y-36198604D01*
X14764500Y-36198000D01*
X15075500Y-36198000D01*
X15087801Y-36198604D01*
X15087801Y-36198604D01*
G37*
D17*
X14920000Y-36449000D03*
G04 #@! TD*
D16*
G04 #@! TO.C,C15*
G36*
X25501801Y-36325604D02*
X25513984Y-36327411D01*
X25525931Y-36330404D01*
X25537527Y-36334553D01*
X25548660Y-36339819D01*
X25559224Y-36346151D01*
X25569116Y-36353487D01*
X25578242Y-36361758D01*
X25586513Y-36370884D01*
X25593849Y-36380776D01*
X25600181Y-36391340D01*
X25605447Y-36402473D01*
X25609596Y-36414069D01*
X25612589Y-36426016D01*
X25614396Y-36438199D01*
X25615000Y-36450500D01*
X25615000Y-36701500D01*
X25614396Y-36713801D01*
X25612589Y-36725984D01*
X25609596Y-36737931D01*
X25605447Y-36749527D01*
X25600181Y-36760660D01*
X25593849Y-36771224D01*
X25586513Y-36781116D01*
X25578242Y-36790242D01*
X25569116Y-36798513D01*
X25559224Y-36805849D01*
X25548660Y-36812181D01*
X25537527Y-36817447D01*
X25525931Y-36821596D01*
X25513984Y-36824589D01*
X25501801Y-36826396D01*
X25489500Y-36827000D01*
X25178500Y-36827000D01*
X25166199Y-36826396D01*
X25154016Y-36824589D01*
X25142069Y-36821596D01*
X25130473Y-36817447D01*
X25119340Y-36812181D01*
X25108776Y-36805849D01*
X25098884Y-36798513D01*
X25089758Y-36790242D01*
X25081487Y-36781116D01*
X25074151Y-36771224D01*
X25067819Y-36760660D01*
X25062553Y-36749527D01*
X25058404Y-36737931D01*
X25055411Y-36725984D01*
X25053604Y-36713801D01*
X25053000Y-36701500D01*
X25053000Y-36450500D01*
X25053604Y-36438199D01*
X25055411Y-36426016D01*
X25058404Y-36414069D01*
X25062553Y-36402473D01*
X25067819Y-36391340D01*
X25074151Y-36380776D01*
X25081487Y-36370884D01*
X25089758Y-36361758D01*
X25098884Y-36353487D01*
X25108776Y-36346151D01*
X25119340Y-36339819D01*
X25130473Y-36334553D01*
X25142069Y-36330404D01*
X25154016Y-36327411D01*
X25166199Y-36325604D01*
X25178500Y-36325000D01*
X25489500Y-36325000D01*
X25501801Y-36325604D01*
X25501801Y-36325604D01*
G37*
D17*
X25334000Y-36576000D03*
D16*
G36*
X26141801Y-36325604D02*
X26153984Y-36327411D01*
X26165931Y-36330404D01*
X26177527Y-36334553D01*
X26188660Y-36339819D01*
X26199224Y-36346151D01*
X26209116Y-36353487D01*
X26218242Y-36361758D01*
X26226513Y-36370884D01*
X26233849Y-36380776D01*
X26240181Y-36391340D01*
X26245447Y-36402473D01*
X26249596Y-36414069D01*
X26252589Y-36426016D01*
X26254396Y-36438199D01*
X26255000Y-36450500D01*
X26255000Y-36701500D01*
X26254396Y-36713801D01*
X26252589Y-36725984D01*
X26249596Y-36737931D01*
X26245447Y-36749527D01*
X26240181Y-36760660D01*
X26233849Y-36771224D01*
X26226513Y-36781116D01*
X26218242Y-36790242D01*
X26209116Y-36798513D01*
X26199224Y-36805849D01*
X26188660Y-36812181D01*
X26177527Y-36817447D01*
X26165931Y-36821596D01*
X26153984Y-36824589D01*
X26141801Y-36826396D01*
X26129500Y-36827000D01*
X25818500Y-36827000D01*
X25806199Y-36826396D01*
X25794016Y-36824589D01*
X25782069Y-36821596D01*
X25770473Y-36817447D01*
X25759340Y-36812181D01*
X25748776Y-36805849D01*
X25738884Y-36798513D01*
X25729758Y-36790242D01*
X25721487Y-36781116D01*
X25714151Y-36771224D01*
X25707819Y-36760660D01*
X25702553Y-36749527D01*
X25698404Y-36737931D01*
X25695411Y-36725984D01*
X25693604Y-36713801D01*
X25693000Y-36701500D01*
X25693000Y-36450500D01*
X25693604Y-36438199D01*
X25695411Y-36426016D01*
X25698404Y-36414069D01*
X25702553Y-36402473D01*
X25707819Y-36391340D01*
X25714151Y-36380776D01*
X25721487Y-36370884D01*
X25729758Y-36361758D01*
X25738884Y-36353487D01*
X25748776Y-36346151D01*
X25759340Y-36339819D01*
X25770473Y-36334553D01*
X25782069Y-36330404D01*
X25794016Y-36327411D01*
X25806199Y-36325604D01*
X25818500Y-36325000D01*
X26129500Y-36325000D01*
X26141801Y-36325604D01*
X26141801Y-36325604D01*
G37*
D17*
X25974000Y-36576000D03*
G04 #@! TD*
D16*
G04 #@! TO.C,C16*
G36*
X24617801Y-51819604D02*
X24629984Y-51821411D01*
X24641931Y-51824404D01*
X24653527Y-51828553D01*
X24664660Y-51833819D01*
X24675224Y-51840151D01*
X24685116Y-51847487D01*
X24694242Y-51855758D01*
X24702513Y-51864884D01*
X24709849Y-51874776D01*
X24716181Y-51885340D01*
X24721447Y-51896473D01*
X24725596Y-51908069D01*
X24728589Y-51920016D01*
X24730396Y-51932199D01*
X24731000Y-51944500D01*
X24731000Y-52195500D01*
X24730396Y-52207801D01*
X24728589Y-52219984D01*
X24725596Y-52231931D01*
X24721447Y-52243527D01*
X24716181Y-52254660D01*
X24709849Y-52265224D01*
X24702513Y-52275116D01*
X24694242Y-52284242D01*
X24685116Y-52292513D01*
X24675224Y-52299849D01*
X24664660Y-52306181D01*
X24653527Y-52311447D01*
X24641931Y-52315596D01*
X24629984Y-52318589D01*
X24617801Y-52320396D01*
X24605500Y-52321000D01*
X24294500Y-52321000D01*
X24282199Y-52320396D01*
X24270016Y-52318589D01*
X24258069Y-52315596D01*
X24246473Y-52311447D01*
X24235340Y-52306181D01*
X24224776Y-52299849D01*
X24214884Y-52292513D01*
X24205758Y-52284242D01*
X24197487Y-52275116D01*
X24190151Y-52265224D01*
X24183819Y-52254660D01*
X24178553Y-52243527D01*
X24174404Y-52231931D01*
X24171411Y-52219984D01*
X24169604Y-52207801D01*
X24169000Y-52195500D01*
X24169000Y-51944500D01*
X24169604Y-51932199D01*
X24171411Y-51920016D01*
X24174404Y-51908069D01*
X24178553Y-51896473D01*
X24183819Y-51885340D01*
X24190151Y-51874776D01*
X24197487Y-51864884D01*
X24205758Y-51855758D01*
X24214884Y-51847487D01*
X24224776Y-51840151D01*
X24235340Y-51833819D01*
X24246473Y-51828553D01*
X24258069Y-51824404D01*
X24270016Y-51821411D01*
X24282199Y-51819604D01*
X24294500Y-51819000D01*
X24605500Y-51819000D01*
X24617801Y-51819604D01*
X24617801Y-51819604D01*
G37*
D17*
X24450000Y-52070000D03*
D16*
G36*
X23977801Y-51819604D02*
X23989984Y-51821411D01*
X24001931Y-51824404D01*
X24013527Y-51828553D01*
X24024660Y-51833819D01*
X24035224Y-51840151D01*
X24045116Y-51847487D01*
X24054242Y-51855758D01*
X24062513Y-51864884D01*
X24069849Y-51874776D01*
X24076181Y-51885340D01*
X24081447Y-51896473D01*
X24085596Y-51908069D01*
X24088589Y-51920016D01*
X24090396Y-51932199D01*
X24091000Y-51944500D01*
X24091000Y-52195500D01*
X24090396Y-52207801D01*
X24088589Y-52219984D01*
X24085596Y-52231931D01*
X24081447Y-52243527D01*
X24076181Y-52254660D01*
X24069849Y-52265224D01*
X24062513Y-52275116D01*
X24054242Y-52284242D01*
X24045116Y-52292513D01*
X24035224Y-52299849D01*
X24024660Y-52306181D01*
X24013527Y-52311447D01*
X24001931Y-52315596D01*
X23989984Y-52318589D01*
X23977801Y-52320396D01*
X23965500Y-52321000D01*
X23654500Y-52321000D01*
X23642199Y-52320396D01*
X23630016Y-52318589D01*
X23618069Y-52315596D01*
X23606473Y-52311447D01*
X23595340Y-52306181D01*
X23584776Y-52299849D01*
X23574884Y-52292513D01*
X23565758Y-52284242D01*
X23557487Y-52275116D01*
X23550151Y-52265224D01*
X23543819Y-52254660D01*
X23538553Y-52243527D01*
X23534404Y-52231931D01*
X23531411Y-52219984D01*
X23529604Y-52207801D01*
X23529000Y-52195500D01*
X23529000Y-51944500D01*
X23529604Y-51932199D01*
X23531411Y-51920016D01*
X23534404Y-51908069D01*
X23538553Y-51896473D01*
X23543819Y-51885340D01*
X23550151Y-51874776D01*
X23557487Y-51864884D01*
X23565758Y-51855758D01*
X23574884Y-51847487D01*
X23584776Y-51840151D01*
X23595340Y-51833819D01*
X23606473Y-51828553D01*
X23618069Y-51824404D01*
X23630016Y-51821411D01*
X23642199Y-51819604D01*
X23654500Y-51819000D01*
X23965500Y-51819000D01*
X23977801Y-51819604D01*
X23977801Y-51819604D01*
G37*
D17*
X23810000Y-52070000D03*
G04 #@! TD*
D16*
G04 #@! TO.C,C17*
G36*
X14965801Y-65789604D02*
X14977984Y-65791411D01*
X14989931Y-65794404D01*
X15001527Y-65798553D01*
X15012660Y-65803819D01*
X15023224Y-65810151D01*
X15033116Y-65817487D01*
X15042242Y-65825758D01*
X15050513Y-65834884D01*
X15057849Y-65844776D01*
X15064181Y-65855340D01*
X15069447Y-65866473D01*
X15073596Y-65878069D01*
X15076589Y-65890016D01*
X15078396Y-65902199D01*
X15079000Y-65914500D01*
X15079000Y-66165500D01*
X15078396Y-66177801D01*
X15076589Y-66189984D01*
X15073596Y-66201931D01*
X15069447Y-66213527D01*
X15064181Y-66224660D01*
X15057849Y-66235224D01*
X15050513Y-66245116D01*
X15042242Y-66254242D01*
X15033116Y-66262513D01*
X15023224Y-66269849D01*
X15012660Y-66276181D01*
X15001527Y-66281447D01*
X14989931Y-66285596D01*
X14977984Y-66288589D01*
X14965801Y-66290396D01*
X14953500Y-66291000D01*
X14642500Y-66291000D01*
X14630199Y-66290396D01*
X14618016Y-66288589D01*
X14606069Y-66285596D01*
X14594473Y-66281447D01*
X14583340Y-66276181D01*
X14572776Y-66269849D01*
X14562884Y-66262513D01*
X14553758Y-66254242D01*
X14545487Y-66245116D01*
X14538151Y-66235224D01*
X14531819Y-66224660D01*
X14526553Y-66213527D01*
X14522404Y-66201931D01*
X14519411Y-66189984D01*
X14517604Y-66177801D01*
X14517000Y-66165500D01*
X14517000Y-65914500D01*
X14517604Y-65902199D01*
X14519411Y-65890016D01*
X14522404Y-65878069D01*
X14526553Y-65866473D01*
X14531819Y-65855340D01*
X14538151Y-65844776D01*
X14545487Y-65834884D01*
X14553758Y-65825758D01*
X14562884Y-65817487D01*
X14572776Y-65810151D01*
X14583340Y-65803819D01*
X14594473Y-65798553D01*
X14606069Y-65794404D01*
X14618016Y-65791411D01*
X14630199Y-65789604D01*
X14642500Y-65789000D01*
X14953500Y-65789000D01*
X14965801Y-65789604D01*
X14965801Y-65789604D01*
G37*
D17*
X14798000Y-66040000D03*
D16*
G36*
X14325801Y-65789604D02*
X14337984Y-65791411D01*
X14349931Y-65794404D01*
X14361527Y-65798553D01*
X14372660Y-65803819D01*
X14383224Y-65810151D01*
X14393116Y-65817487D01*
X14402242Y-65825758D01*
X14410513Y-65834884D01*
X14417849Y-65844776D01*
X14424181Y-65855340D01*
X14429447Y-65866473D01*
X14433596Y-65878069D01*
X14436589Y-65890016D01*
X14438396Y-65902199D01*
X14439000Y-65914500D01*
X14439000Y-66165500D01*
X14438396Y-66177801D01*
X14436589Y-66189984D01*
X14433596Y-66201931D01*
X14429447Y-66213527D01*
X14424181Y-66224660D01*
X14417849Y-66235224D01*
X14410513Y-66245116D01*
X14402242Y-66254242D01*
X14393116Y-66262513D01*
X14383224Y-66269849D01*
X14372660Y-66276181D01*
X14361527Y-66281447D01*
X14349931Y-66285596D01*
X14337984Y-66288589D01*
X14325801Y-66290396D01*
X14313500Y-66291000D01*
X14002500Y-66291000D01*
X13990199Y-66290396D01*
X13978016Y-66288589D01*
X13966069Y-66285596D01*
X13954473Y-66281447D01*
X13943340Y-66276181D01*
X13932776Y-66269849D01*
X13922884Y-66262513D01*
X13913758Y-66254242D01*
X13905487Y-66245116D01*
X13898151Y-66235224D01*
X13891819Y-66224660D01*
X13886553Y-66213527D01*
X13882404Y-66201931D01*
X13879411Y-66189984D01*
X13877604Y-66177801D01*
X13877000Y-66165500D01*
X13877000Y-65914500D01*
X13877604Y-65902199D01*
X13879411Y-65890016D01*
X13882404Y-65878069D01*
X13886553Y-65866473D01*
X13891819Y-65855340D01*
X13898151Y-65844776D01*
X13905487Y-65834884D01*
X13913758Y-65825758D01*
X13922884Y-65817487D01*
X13932776Y-65810151D01*
X13943340Y-65803819D01*
X13954473Y-65798553D01*
X13966069Y-65794404D01*
X13978016Y-65791411D01*
X13990199Y-65789604D01*
X14002500Y-65789000D01*
X14313500Y-65789000D01*
X14325801Y-65789604D01*
X14325801Y-65789604D01*
G37*
D17*
X14158000Y-66040000D03*
G04 #@! TD*
D16*
G04 #@! TO.C,C18*
G36*
X46395801Y-17783604D02*
X46407984Y-17785411D01*
X46419931Y-17788404D01*
X46431527Y-17792553D01*
X46442660Y-17797819D01*
X46453224Y-17804151D01*
X46463116Y-17811487D01*
X46472242Y-17819758D01*
X46480513Y-17828884D01*
X46487849Y-17838776D01*
X46494181Y-17849340D01*
X46499447Y-17860473D01*
X46503596Y-17872069D01*
X46506589Y-17884016D01*
X46508396Y-17896199D01*
X46509000Y-17908500D01*
X46509000Y-18159500D01*
X46508396Y-18171801D01*
X46506589Y-18183984D01*
X46503596Y-18195931D01*
X46499447Y-18207527D01*
X46494181Y-18218660D01*
X46487849Y-18229224D01*
X46480513Y-18239116D01*
X46472242Y-18248242D01*
X46463116Y-18256513D01*
X46453224Y-18263849D01*
X46442660Y-18270181D01*
X46431527Y-18275447D01*
X46419931Y-18279596D01*
X46407984Y-18282589D01*
X46395801Y-18284396D01*
X46383500Y-18285000D01*
X46072500Y-18285000D01*
X46060199Y-18284396D01*
X46048016Y-18282589D01*
X46036069Y-18279596D01*
X46024473Y-18275447D01*
X46013340Y-18270181D01*
X46002776Y-18263849D01*
X45992884Y-18256513D01*
X45983758Y-18248242D01*
X45975487Y-18239116D01*
X45968151Y-18229224D01*
X45961819Y-18218660D01*
X45956553Y-18207527D01*
X45952404Y-18195931D01*
X45949411Y-18183984D01*
X45947604Y-18171801D01*
X45947000Y-18159500D01*
X45947000Y-17908500D01*
X45947604Y-17896199D01*
X45949411Y-17884016D01*
X45952404Y-17872069D01*
X45956553Y-17860473D01*
X45961819Y-17849340D01*
X45968151Y-17838776D01*
X45975487Y-17828884D01*
X45983758Y-17819758D01*
X45992884Y-17811487D01*
X46002776Y-17804151D01*
X46013340Y-17797819D01*
X46024473Y-17792553D01*
X46036069Y-17788404D01*
X46048016Y-17785411D01*
X46060199Y-17783604D01*
X46072500Y-17783000D01*
X46383500Y-17783000D01*
X46395801Y-17783604D01*
X46395801Y-17783604D01*
G37*
D17*
X46228000Y-18034000D03*
D16*
G36*
X45755801Y-17783604D02*
X45767984Y-17785411D01*
X45779931Y-17788404D01*
X45791527Y-17792553D01*
X45802660Y-17797819D01*
X45813224Y-17804151D01*
X45823116Y-17811487D01*
X45832242Y-17819758D01*
X45840513Y-17828884D01*
X45847849Y-17838776D01*
X45854181Y-17849340D01*
X45859447Y-17860473D01*
X45863596Y-17872069D01*
X45866589Y-17884016D01*
X45868396Y-17896199D01*
X45869000Y-17908500D01*
X45869000Y-18159500D01*
X45868396Y-18171801D01*
X45866589Y-18183984D01*
X45863596Y-18195931D01*
X45859447Y-18207527D01*
X45854181Y-18218660D01*
X45847849Y-18229224D01*
X45840513Y-18239116D01*
X45832242Y-18248242D01*
X45823116Y-18256513D01*
X45813224Y-18263849D01*
X45802660Y-18270181D01*
X45791527Y-18275447D01*
X45779931Y-18279596D01*
X45767984Y-18282589D01*
X45755801Y-18284396D01*
X45743500Y-18285000D01*
X45432500Y-18285000D01*
X45420199Y-18284396D01*
X45408016Y-18282589D01*
X45396069Y-18279596D01*
X45384473Y-18275447D01*
X45373340Y-18270181D01*
X45362776Y-18263849D01*
X45352884Y-18256513D01*
X45343758Y-18248242D01*
X45335487Y-18239116D01*
X45328151Y-18229224D01*
X45321819Y-18218660D01*
X45316553Y-18207527D01*
X45312404Y-18195931D01*
X45309411Y-18183984D01*
X45307604Y-18171801D01*
X45307000Y-18159500D01*
X45307000Y-17908500D01*
X45307604Y-17896199D01*
X45309411Y-17884016D01*
X45312404Y-17872069D01*
X45316553Y-17860473D01*
X45321819Y-17849340D01*
X45328151Y-17838776D01*
X45335487Y-17828884D01*
X45343758Y-17819758D01*
X45352884Y-17811487D01*
X45362776Y-17804151D01*
X45373340Y-17797819D01*
X45384473Y-17792553D01*
X45396069Y-17788404D01*
X45408016Y-17785411D01*
X45420199Y-17783604D01*
X45432500Y-17783000D01*
X45743500Y-17783000D01*
X45755801Y-17783604D01*
X45755801Y-17783604D01*
G37*
D17*
X45588000Y-18034000D03*
G04 #@! TD*
D16*
G04 #@! TO.C,C19*
G36*
X14965801Y-51819604D02*
X14977984Y-51821411D01*
X14989931Y-51824404D01*
X15001527Y-51828553D01*
X15012660Y-51833819D01*
X15023224Y-51840151D01*
X15033116Y-51847487D01*
X15042242Y-51855758D01*
X15050513Y-51864884D01*
X15057849Y-51874776D01*
X15064181Y-51885340D01*
X15069447Y-51896473D01*
X15073596Y-51908069D01*
X15076589Y-51920016D01*
X15078396Y-51932199D01*
X15079000Y-51944500D01*
X15079000Y-52195500D01*
X15078396Y-52207801D01*
X15076589Y-52219984D01*
X15073596Y-52231931D01*
X15069447Y-52243527D01*
X15064181Y-52254660D01*
X15057849Y-52265224D01*
X15050513Y-52275116D01*
X15042242Y-52284242D01*
X15033116Y-52292513D01*
X15023224Y-52299849D01*
X15012660Y-52306181D01*
X15001527Y-52311447D01*
X14989931Y-52315596D01*
X14977984Y-52318589D01*
X14965801Y-52320396D01*
X14953500Y-52321000D01*
X14642500Y-52321000D01*
X14630199Y-52320396D01*
X14618016Y-52318589D01*
X14606069Y-52315596D01*
X14594473Y-52311447D01*
X14583340Y-52306181D01*
X14572776Y-52299849D01*
X14562884Y-52292513D01*
X14553758Y-52284242D01*
X14545487Y-52275116D01*
X14538151Y-52265224D01*
X14531819Y-52254660D01*
X14526553Y-52243527D01*
X14522404Y-52231931D01*
X14519411Y-52219984D01*
X14517604Y-52207801D01*
X14517000Y-52195500D01*
X14517000Y-51944500D01*
X14517604Y-51932199D01*
X14519411Y-51920016D01*
X14522404Y-51908069D01*
X14526553Y-51896473D01*
X14531819Y-51885340D01*
X14538151Y-51874776D01*
X14545487Y-51864884D01*
X14553758Y-51855758D01*
X14562884Y-51847487D01*
X14572776Y-51840151D01*
X14583340Y-51833819D01*
X14594473Y-51828553D01*
X14606069Y-51824404D01*
X14618016Y-51821411D01*
X14630199Y-51819604D01*
X14642500Y-51819000D01*
X14953500Y-51819000D01*
X14965801Y-51819604D01*
X14965801Y-51819604D01*
G37*
D17*
X14798000Y-52070000D03*
D16*
G36*
X14325801Y-51819604D02*
X14337984Y-51821411D01*
X14349931Y-51824404D01*
X14361527Y-51828553D01*
X14372660Y-51833819D01*
X14383224Y-51840151D01*
X14393116Y-51847487D01*
X14402242Y-51855758D01*
X14410513Y-51864884D01*
X14417849Y-51874776D01*
X14424181Y-51885340D01*
X14429447Y-51896473D01*
X14433596Y-51908069D01*
X14436589Y-51920016D01*
X14438396Y-51932199D01*
X14439000Y-51944500D01*
X14439000Y-52195500D01*
X14438396Y-52207801D01*
X14436589Y-52219984D01*
X14433596Y-52231931D01*
X14429447Y-52243527D01*
X14424181Y-52254660D01*
X14417849Y-52265224D01*
X14410513Y-52275116D01*
X14402242Y-52284242D01*
X14393116Y-52292513D01*
X14383224Y-52299849D01*
X14372660Y-52306181D01*
X14361527Y-52311447D01*
X14349931Y-52315596D01*
X14337984Y-52318589D01*
X14325801Y-52320396D01*
X14313500Y-52321000D01*
X14002500Y-52321000D01*
X13990199Y-52320396D01*
X13978016Y-52318589D01*
X13966069Y-52315596D01*
X13954473Y-52311447D01*
X13943340Y-52306181D01*
X13932776Y-52299849D01*
X13922884Y-52292513D01*
X13913758Y-52284242D01*
X13905487Y-52275116D01*
X13898151Y-52265224D01*
X13891819Y-52254660D01*
X13886553Y-52243527D01*
X13882404Y-52231931D01*
X13879411Y-52219984D01*
X13877604Y-52207801D01*
X13877000Y-52195500D01*
X13877000Y-51944500D01*
X13877604Y-51932199D01*
X13879411Y-51920016D01*
X13882404Y-51908069D01*
X13886553Y-51896473D01*
X13891819Y-51885340D01*
X13898151Y-51874776D01*
X13905487Y-51864884D01*
X13913758Y-51855758D01*
X13922884Y-51847487D01*
X13932776Y-51840151D01*
X13943340Y-51833819D01*
X13954473Y-51828553D01*
X13966069Y-51824404D01*
X13978016Y-51821411D01*
X13990199Y-51819604D01*
X14002500Y-51819000D01*
X14313500Y-51819000D01*
X14325801Y-51819604D01*
X14325801Y-51819604D01*
G37*
D17*
X14158000Y-52070000D03*
G04 #@! TD*
D16*
G04 #@! TO.C,C20*
G36*
X23977801Y-65789604D02*
X23989984Y-65791411D01*
X24001931Y-65794404D01*
X24013527Y-65798553D01*
X24024660Y-65803819D01*
X24035224Y-65810151D01*
X24045116Y-65817487D01*
X24054242Y-65825758D01*
X24062513Y-65834884D01*
X24069849Y-65844776D01*
X24076181Y-65855340D01*
X24081447Y-65866473D01*
X24085596Y-65878069D01*
X24088589Y-65890016D01*
X24090396Y-65902199D01*
X24091000Y-65914500D01*
X24091000Y-66165500D01*
X24090396Y-66177801D01*
X24088589Y-66189984D01*
X24085596Y-66201931D01*
X24081447Y-66213527D01*
X24076181Y-66224660D01*
X24069849Y-66235224D01*
X24062513Y-66245116D01*
X24054242Y-66254242D01*
X24045116Y-66262513D01*
X24035224Y-66269849D01*
X24024660Y-66276181D01*
X24013527Y-66281447D01*
X24001931Y-66285596D01*
X23989984Y-66288589D01*
X23977801Y-66290396D01*
X23965500Y-66291000D01*
X23654500Y-66291000D01*
X23642199Y-66290396D01*
X23630016Y-66288589D01*
X23618069Y-66285596D01*
X23606473Y-66281447D01*
X23595340Y-66276181D01*
X23584776Y-66269849D01*
X23574884Y-66262513D01*
X23565758Y-66254242D01*
X23557487Y-66245116D01*
X23550151Y-66235224D01*
X23543819Y-66224660D01*
X23538553Y-66213527D01*
X23534404Y-66201931D01*
X23531411Y-66189984D01*
X23529604Y-66177801D01*
X23529000Y-66165500D01*
X23529000Y-65914500D01*
X23529604Y-65902199D01*
X23531411Y-65890016D01*
X23534404Y-65878069D01*
X23538553Y-65866473D01*
X23543819Y-65855340D01*
X23550151Y-65844776D01*
X23557487Y-65834884D01*
X23565758Y-65825758D01*
X23574884Y-65817487D01*
X23584776Y-65810151D01*
X23595340Y-65803819D01*
X23606473Y-65798553D01*
X23618069Y-65794404D01*
X23630016Y-65791411D01*
X23642199Y-65789604D01*
X23654500Y-65789000D01*
X23965500Y-65789000D01*
X23977801Y-65789604D01*
X23977801Y-65789604D01*
G37*
D17*
X23810000Y-66040000D03*
D16*
G36*
X24617801Y-65789604D02*
X24629984Y-65791411D01*
X24641931Y-65794404D01*
X24653527Y-65798553D01*
X24664660Y-65803819D01*
X24675224Y-65810151D01*
X24685116Y-65817487D01*
X24694242Y-65825758D01*
X24702513Y-65834884D01*
X24709849Y-65844776D01*
X24716181Y-65855340D01*
X24721447Y-65866473D01*
X24725596Y-65878069D01*
X24728589Y-65890016D01*
X24730396Y-65902199D01*
X24731000Y-65914500D01*
X24731000Y-66165500D01*
X24730396Y-66177801D01*
X24728589Y-66189984D01*
X24725596Y-66201931D01*
X24721447Y-66213527D01*
X24716181Y-66224660D01*
X24709849Y-66235224D01*
X24702513Y-66245116D01*
X24694242Y-66254242D01*
X24685116Y-66262513D01*
X24675224Y-66269849D01*
X24664660Y-66276181D01*
X24653527Y-66281447D01*
X24641931Y-66285596D01*
X24629984Y-66288589D01*
X24617801Y-66290396D01*
X24605500Y-66291000D01*
X24294500Y-66291000D01*
X24282199Y-66290396D01*
X24270016Y-66288589D01*
X24258069Y-66285596D01*
X24246473Y-66281447D01*
X24235340Y-66276181D01*
X24224776Y-66269849D01*
X24214884Y-66262513D01*
X24205758Y-66254242D01*
X24197487Y-66245116D01*
X24190151Y-66235224D01*
X24183819Y-66224660D01*
X24178553Y-66213527D01*
X24174404Y-66201931D01*
X24171411Y-66189984D01*
X24169604Y-66177801D01*
X24169000Y-66165500D01*
X24169000Y-65914500D01*
X24169604Y-65902199D01*
X24171411Y-65890016D01*
X24174404Y-65878069D01*
X24178553Y-65866473D01*
X24183819Y-65855340D01*
X24190151Y-65844776D01*
X24197487Y-65834884D01*
X24205758Y-65825758D01*
X24214884Y-65817487D01*
X24224776Y-65810151D01*
X24235340Y-65803819D01*
X24246473Y-65798553D01*
X24258069Y-65794404D01*
X24270016Y-65791411D01*
X24282199Y-65789604D01*
X24294500Y-65789000D01*
X24605500Y-65789000D01*
X24617801Y-65789604D01*
X24617801Y-65789604D01*
G37*
D17*
X24450000Y-66040000D03*
G04 #@! TD*
D16*
G04 #@! TO.C,C21*
G36*
X45730801Y-61471604D02*
X45742984Y-61473411D01*
X45754931Y-61476404D01*
X45766527Y-61480553D01*
X45777660Y-61485819D01*
X45788224Y-61492151D01*
X45798116Y-61499487D01*
X45807242Y-61507758D01*
X45815513Y-61516884D01*
X45822849Y-61526776D01*
X45829181Y-61537340D01*
X45834447Y-61548473D01*
X45838596Y-61560069D01*
X45841589Y-61572016D01*
X45843396Y-61584199D01*
X45844000Y-61596500D01*
X45844000Y-61847500D01*
X45843396Y-61859801D01*
X45841589Y-61871984D01*
X45838596Y-61883931D01*
X45834447Y-61895527D01*
X45829181Y-61906660D01*
X45822849Y-61917224D01*
X45815513Y-61927116D01*
X45807242Y-61936242D01*
X45798116Y-61944513D01*
X45788224Y-61951849D01*
X45777660Y-61958181D01*
X45766527Y-61963447D01*
X45754931Y-61967596D01*
X45742984Y-61970589D01*
X45730801Y-61972396D01*
X45718500Y-61973000D01*
X45407500Y-61973000D01*
X45395199Y-61972396D01*
X45383016Y-61970589D01*
X45371069Y-61967596D01*
X45359473Y-61963447D01*
X45348340Y-61958181D01*
X45337776Y-61951849D01*
X45327884Y-61944513D01*
X45318758Y-61936242D01*
X45310487Y-61927116D01*
X45303151Y-61917224D01*
X45296819Y-61906660D01*
X45291553Y-61895527D01*
X45287404Y-61883931D01*
X45284411Y-61871984D01*
X45282604Y-61859801D01*
X45282000Y-61847500D01*
X45282000Y-61596500D01*
X45282604Y-61584199D01*
X45284411Y-61572016D01*
X45287404Y-61560069D01*
X45291553Y-61548473D01*
X45296819Y-61537340D01*
X45303151Y-61526776D01*
X45310487Y-61516884D01*
X45318758Y-61507758D01*
X45327884Y-61499487D01*
X45337776Y-61492151D01*
X45348340Y-61485819D01*
X45359473Y-61480553D01*
X45371069Y-61476404D01*
X45383016Y-61473411D01*
X45395199Y-61471604D01*
X45407500Y-61471000D01*
X45718500Y-61471000D01*
X45730801Y-61471604D01*
X45730801Y-61471604D01*
G37*
D17*
X45563000Y-61722000D03*
D16*
G36*
X46370801Y-61471604D02*
X46382984Y-61473411D01*
X46394931Y-61476404D01*
X46406527Y-61480553D01*
X46417660Y-61485819D01*
X46428224Y-61492151D01*
X46438116Y-61499487D01*
X46447242Y-61507758D01*
X46455513Y-61516884D01*
X46462849Y-61526776D01*
X46469181Y-61537340D01*
X46474447Y-61548473D01*
X46478596Y-61560069D01*
X46481589Y-61572016D01*
X46483396Y-61584199D01*
X46484000Y-61596500D01*
X46484000Y-61847500D01*
X46483396Y-61859801D01*
X46481589Y-61871984D01*
X46478596Y-61883931D01*
X46474447Y-61895527D01*
X46469181Y-61906660D01*
X46462849Y-61917224D01*
X46455513Y-61927116D01*
X46447242Y-61936242D01*
X46438116Y-61944513D01*
X46428224Y-61951849D01*
X46417660Y-61958181D01*
X46406527Y-61963447D01*
X46394931Y-61967596D01*
X46382984Y-61970589D01*
X46370801Y-61972396D01*
X46358500Y-61973000D01*
X46047500Y-61973000D01*
X46035199Y-61972396D01*
X46023016Y-61970589D01*
X46011069Y-61967596D01*
X45999473Y-61963447D01*
X45988340Y-61958181D01*
X45977776Y-61951849D01*
X45967884Y-61944513D01*
X45958758Y-61936242D01*
X45950487Y-61927116D01*
X45943151Y-61917224D01*
X45936819Y-61906660D01*
X45931553Y-61895527D01*
X45927404Y-61883931D01*
X45924411Y-61871984D01*
X45922604Y-61859801D01*
X45922000Y-61847500D01*
X45922000Y-61596500D01*
X45922604Y-61584199D01*
X45924411Y-61572016D01*
X45927404Y-61560069D01*
X45931553Y-61548473D01*
X45936819Y-61537340D01*
X45943151Y-61526776D01*
X45950487Y-61516884D01*
X45958758Y-61507758D01*
X45967884Y-61499487D01*
X45977776Y-61492151D01*
X45988340Y-61485819D01*
X45999473Y-61480553D01*
X46011069Y-61476404D01*
X46023016Y-61473411D01*
X46035199Y-61471604D01*
X46047500Y-61471000D01*
X46358500Y-61471000D01*
X46370801Y-61471604D01*
X46370801Y-61471604D01*
G37*
D17*
X46203000Y-61722000D03*
G04 #@! TD*
D16*
G04 #@! TO.C,C22*
G36*
X45730801Y-46993604D02*
X45742984Y-46995411D01*
X45754931Y-46998404D01*
X45766527Y-47002553D01*
X45777660Y-47007819D01*
X45788224Y-47014151D01*
X45798116Y-47021487D01*
X45807242Y-47029758D01*
X45815513Y-47038884D01*
X45822849Y-47048776D01*
X45829181Y-47059340D01*
X45834447Y-47070473D01*
X45838596Y-47082069D01*
X45841589Y-47094016D01*
X45843396Y-47106199D01*
X45844000Y-47118500D01*
X45844000Y-47369500D01*
X45843396Y-47381801D01*
X45841589Y-47393984D01*
X45838596Y-47405931D01*
X45834447Y-47417527D01*
X45829181Y-47428660D01*
X45822849Y-47439224D01*
X45815513Y-47449116D01*
X45807242Y-47458242D01*
X45798116Y-47466513D01*
X45788224Y-47473849D01*
X45777660Y-47480181D01*
X45766527Y-47485447D01*
X45754931Y-47489596D01*
X45742984Y-47492589D01*
X45730801Y-47494396D01*
X45718500Y-47495000D01*
X45407500Y-47495000D01*
X45395199Y-47494396D01*
X45383016Y-47492589D01*
X45371069Y-47489596D01*
X45359473Y-47485447D01*
X45348340Y-47480181D01*
X45337776Y-47473849D01*
X45327884Y-47466513D01*
X45318758Y-47458242D01*
X45310487Y-47449116D01*
X45303151Y-47439224D01*
X45296819Y-47428660D01*
X45291553Y-47417527D01*
X45287404Y-47405931D01*
X45284411Y-47393984D01*
X45282604Y-47381801D01*
X45282000Y-47369500D01*
X45282000Y-47118500D01*
X45282604Y-47106199D01*
X45284411Y-47094016D01*
X45287404Y-47082069D01*
X45291553Y-47070473D01*
X45296819Y-47059340D01*
X45303151Y-47048776D01*
X45310487Y-47038884D01*
X45318758Y-47029758D01*
X45327884Y-47021487D01*
X45337776Y-47014151D01*
X45348340Y-47007819D01*
X45359473Y-47002553D01*
X45371069Y-46998404D01*
X45383016Y-46995411D01*
X45395199Y-46993604D01*
X45407500Y-46993000D01*
X45718500Y-46993000D01*
X45730801Y-46993604D01*
X45730801Y-46993604D01*
G37*
D17*
X45563000Y-47244000D03*
D16*
G36*
X46370801Y-46993604D02*
X46382984Y-46995411D01*
X46394931Y-46998404D01*
X46406527Y-47002553D01*
X46417660Y-47007819D01*
X46428224Y-47014151D01*
X46438116Y-47021487D01*
X46447242Y-47029758D01*
X46455513Y-47038884D01*
X46462849Y-47048776D01*
X46469181Y-47059340D01*
X46474447Y-47070473D01*
X46478596Y-47082069D01*
X46481589Y-47094016D01*
X46483396Y-47106199D01*
X46484000Y-47118500D01*
X46484000Y-47369500D01*
X46483396Y-47381801D01*
X46481589Y-47393984D01*
X46478596Y-47405931D01*
X46474447Y-47417527D01*
X46469181Y-47428660D01*
X46462849Y-47439224D01*
X46455513Y-47449116D01*
X46447242Y-47458242D01*
X46438116Y-47466513D01*
X46428224Y-47473849D01*
X46417660Y-47480181D01*
X46406527Y-47485447D01*
X46394931Y-47489596D01*
X46382984Y-47492589D01*
X46370801Y-47494396D01*
X46358500Y-47495000D01*
X46047500Y-47495000D01*
X46035199Y-47494396D01*
X46023016Y-47492589D01*
X46011069Y-47489596D01*
X45999473Y-47485447D01*
X45988340Y-47480181D01*
X45977776Y-47473849D01*
X45967884Y-47466513D01*
X45958758Y-47458242D01*
X45950487Y-47449116D01*
X45943151Y-47439224D01*
X45936819Y-47428660D01*
X45931553Y-47417527D01*
X45927404Y-47405931D01*
X45924411Y-47393984D01*
X45922604Y-47381801D01*
X45922000Y-47369500D01*
X45922000Y-47118500D01*
X45922604Y-47106199D01*
X45924411Y-47094016D01*
X45927404Y-47082069D01*
X45931553Y-47070473D01*
X45936819Y-47059340D01*
X45943151Y-47048776D01*
X45950487Y-47038884D01*
X45958758Y-47029758D01*
X45967884Y-47021487D01*
X45977776Y-47014151D01*
X45988340Y-47007819D01*
X45999473Y-47002553D01*
X46011069Y-46998404D01*
X46023016Y-46995411D01*
X46035199Y-46993604D01*
X46047500Y-46993000D01*
X46358500Y-46993000D01*
X46370801Y-46993604D01*
X46370801Y-46993604D01*
G37*
D17*
X46203000Y-47244000D03*
G04 #@! TD*
D16*
G04 #@! TO.C,C23*
G36*
X46395801Y-32261604D02*
X46407984Y-32263411D01*
X46419931Y-32266404D01*
X46431527Y-32270553D01*
X46442660Y-32275819D01*
X46453224Y-32282151D01*
X46463116Y-32289487D01*
X46472242Y-32297758D01*
X46480513Y-32306884D01*
X46487849Y-32316776D01*
X46494181Y-32327340D01*
X46499447Y-32338473D01*
X46503596Y-32350069D01*
X46506589Y-32362016D01*
X46508396Y-32374199D01*
X46509000Y-32386500D01*
X46509000Y-32637500D01*
X46508396Y-32649801D01*
X46506589Y-32661984D01*
X46503596Y-32673931D01*
X46499447Y-32685527D01*
X46494181Y-32696660D01*
X46487849Y-32707224D01*
X46480513Y-32717116D01*
X46472242Y-32726242D01*
X46463116Y-32734513D01*
X46453224Y-32741849D01*
X46442660Y-32748181D01*
X46431527Y-32753447D01*
X46419931Y-32757596D01*
X46407984Y-32760589D01*
X46395801Y-32762396D01*
X46383500Y-32763000D01*
X46072500Y-32763000D01*
X46060199Y-32762396D01*
X46048016Y-32760589D01*
X46036069Y-32757596D01*
X46024473Y-32753447D01*
X46013340Y-32748181D01*
X46002776Y-32741849D01*
X45992884Y-32734513D01*
X45983758Y-32726242D01*
X45975487Y-32717116D01*
X45968151Y-32707224D01*
X45961819Y-32696660D01*
X45956553Y-32685527D01*
X45952404Y-32673931D01*
X45949411Y-32661984D01*
X45947604Y-32649801D01*
X45947000Y-32637500D01*
X45947000Y-32386500D01*
X45947604Y-32374199D01*
X45949411Y-32362016D01*
X45952404Y-32350069D01*
X45956553Y-32338473D01*
X45961819Y-32327340D01*
X45968151Y-32316776D01*
X45975487Y-32306884D01*
X45983758Y-32297758D01*
X45992884Y-32289487D01*
X46002776Y-32282151D01*
X46013340Y-32275819D01*
X46024473Y-32270553D01*
X46036069Y-32266404D01*
X46048016Y-32263411D01*
X46060199Y-32261604D01*
X46072500Y-32261000D01*
X46383500Y-32261000D01*
X46395801Y-32261604D01*
X46395801Y-32261604D01*
G37*
D17*
X46228000Y-32512000D03*
D16*
G36*
X45755801Y-32261604D02*
X45767984Y-32263411D01*
X45779931Y-32266404D01*
X45791527Y-32270553D01*
X45802660Y-32275819D01*
X45813224Y-32282151D01*
X45823116Y-32289487D01*
X45832242Y-32297758D01*
X45840513Y-32306884D01*
X45847849Y-32316776D01*
X45854181Y-32327340D01*
X45859447Y-32338473D01*
X45863596Y-32350069D01*
X45866589Y-32362016D01*
X45868396Y-32374199D01*
X45869000Y-32386500D01*
X45869000Y-32637500D01*
X45868396Y-32649801D01*
X45866589Y-32661984D01*
X45863596Y-32673931D01*
X45859447Y-32685527D01*
X45854181Y-32696660D01*
X45847849Y-32707224D01*
X45840513Y-32717116D01*
X45832242Y-32726242D01*
X45823116Y-32734513D01*
X45813224Y-32741849D01*
X45802660Y-32748181D01*
X45791527Y-32753447D01*
X45779931Y-32757596D01*
X45767984Y-32760589D01*
X45755801Y-32762396D01*
X45743500Y-32763000D01*
X45432500Y-32763000D01*
X45420199Y-32762396D01*
X45408016Y-32760589D01*
X45396069Y-32757596D01*
X45384473Y-32753447D01*
X45373340Y-32748181D01*
X45362776Y-32741849D01*
X45352884Y-32734513D01*
X45343758Y-32726242D01*
X45335487Y-32717116D01*
X45328151Y-32707224D01*
X45321819Y-32696660D01*
X45316553Y-32685527D01*
X45312404Y-32673931D01*
X45309411Y-32661984D01*
X45307604Y-32649801D01*
X45307000Y-32637500D01*
X45307000Y-32386500D01*
X45307604Y-32374199D01*
X45309411Y-32362016D01*
X45312404Y-32350069D01*
X45316553Y-32338473D01*
X45321819Y-32327340D01*
X45328151Y-32316776D01*
X45335487Y-32306884D01*
X45343758Y-32297758D01*
X45352884Y-32289487D01*
X45362776Y-32282151D01*
X45373340Y-32275819D01*
X45384473Y-32270553D01*
X45396069Y-32266404D01*
X45408016Y-32263411D01*
X45420199Y-32261604D01*
X45432500Y-32261000D01*
X45743500Y-32261000D01*
X45755801Y-32261604D01*
X45755801Y-32261604D01*
G37*
D17*
X45588000Y-32512000D03*
G04 #@! TD*
D16*
G04 #@! TO.C,C24*
G36*
X88117801Y-18291604D02*
X88129984Y-18293411D01*
X88141931Y-18296404D01*
X88153527Y-18300553D01*
X88164660Y-18305819D01*
X88175224Y-18312151D01*
X88185116Y-18319487D01*
X88194242Y-18327758D01*
X88202513Y-18336884D01*
X88209849Y-18346776D01*
X88216181Y-18357340D01*
X88221447Y-18368473D01*
X88225596Y-18380069D01*
X88228589Y-18392016D01*
X88230396Y-18404199D01*
X88231000Y-18416500D01*
X88231000Y-18667500D01*
X88230396Y-18679801D01*
X88228589Y-18691984D01*
X88225596Y-18703931D01*
X88221447Y-18715527D01*
X88216181Y-18726660D01*
X88209849Y-18737224D01*
X88202513Y-18747116D01*
X88194242Y-18756242D01*
X88185116Y-18764513D01*
X88175224Y-18771849D01*
X88164660Y-18778181D01*
X88153527Y-18783447D01*
X88141931Y-18787596D01*
X88129984Y-18790589D01*
X88117801Y-18792396D01*
X88105500Y-18793000D01*
X87794500Y-18793000D01*
X87782199Y-18792396D01*
X87770016Y-18790589D01*
X87758069Y-18787596D01*
X87746473Y-18783447D01*
X87735340Y-18778181D01*
X87724776Y-18771849D01*
X87714884Y-18764513D01*
X87705758Y-18756242D01*
X87697487Y-18747116D01*
X87690151Y-18737224D01*
X87683819Y-18726660D01*
X87678553Y-18715527D01*
X87674404Y-18703931D01*
X87671411Y-18691984D01*
X87669604Y-18679801D01*
X87669000Y-18667500D01*
X87669000Y-18416500D01*
X87669604Y-18404199D01*
X87671411Y-18392016D01*
X87674404Y-18380069D01*
X87678553Y-18368473D01*
X87683819Y-18357340D01*
X87690151Y-18346776D01*
X87697487Y-18336884D01*
X87705758Y-18327758D01*
X87714884Y-18319487D01*
X87724776Y-18312151D01*
X87735340Y-18305819D01*
X87746473Y-18300553D01*
X87758069Y-18296404D01*
X87770016Y-18293411D01*
X87782199Y-18291604D01*
X87794500Y-18291000D01*
X88105500Y-18291000D01*
X88117801Y-18291604D01*
X88117801Y-18291604D01*
G37*
D17*
X87950000Y-18542000D03*
D16*
G36*
X87477801Y-18291604D02*
X87489984Y-18293411D01*
X87501931Y-18296404D01*
X87513527Y-18300553D01*
X87524660Y-18305819D01*
X87535224Y-18312151D01*
X87545116Y-18319487D01*
X87554242Y-18327758D01*
X87562513Y-18336884D01*
X87569849Y-18346776D01*
X87576181Y-18357340D01*
X87581447Y-18368473D01*
X87585596Y-18380069D01*
X87588589Y-18392016D01*
X87590396Y-18404199D01*
X87591000Y-18416500D01*
X87591000Y-18667500D01*
X87590396Y-18679801D01*
X87588589Y-18691984D01*
X87585596Y-18703931D01*
X87581447Y-18715527D01*
X87576181Y-18726660D01*
X87569849Y-18737224D01*
X87562513Y-18747116D01*
X87554242Y-18756242D01*
X87545116Y-18764513D01*
X87535224Y-18771849D01*
X87524660Y-18778181D01*
X87513527Y-18783447D01*
X87501931Y-18787596D01*
X87489984Y-18790589D01*
X87477801Y-18792396D01*
X87465500Y-18793000D01*
X87154500Y-18793000D01*
X87142199Y-18792396D01*
X87130016Y-18790589D01*
X87118069Y-18787596D01*
X87106473Y-18783447D01*
X87095340Y-18778181D01*
X87084776Y-18771849D01*
X87074884Y-18764513D01*
X87065758Y-18756242D01*
X87057487Y-18747116D01*
X87050151Y-18737224D01*
X87043819Y-18726660D01*
X87038553Y-18715527D01*
X87034404Y-18703931D01*
X87031411Y-18691984D01*
X87029604Y-18679801D01*
X87029000Y-18667500D01*
X87029000Y-18416500D01*
X87029604Y-18404199D01*
X87031411Y-18392016D01*
X87034404Y-18380069D01*
X87038553Y-18368473D01*
X87043819Y-18357340D01*
X87050151Y-18346776D01*
X87057487Y-18336884D01*
X87065758Y-18327758D01*
X87074884Y-18319487D01*
X87084776Y-18312151D01*
X87095340Y-18305819D01*
X87106473Y-18300553D01*
X87118069Y-18296404D01*
X87130016Y-18293411D01*
X87142199Y-18291604D01*
X87154500Y-18291000D01*
X87465500Y-18291000D01*
X87477801Y-18291604D01*
X87477801Y-18291604D01*
G37*
D17*
X87310000Y-18542000D03*
G04 #@! TD*
D16*
G04 #@! TO.C,C25*
G36*
X87731801Y-54105604D02*
X87743984Y-54107411D01*
X87755931Y-54110404D01*
X87767527Y-54114553D01*
X87778660Y-54119819D01*
X87789224Y-54126151D01*
X87799116Y-54133487D01*
X87808242Y-54141758D01*
X87816513Y-54150884D01*
X87823849Y-54160776D01*
X87830181Y-54171340D01*
X87835447Y-54182473D01*
X87839596Y-54194069D01*
X87842589Y-54206016D01*
X87844396Y-54218199D01*
X87845000Y-54230500D01*
X87845000Y-54481500D01*
X87844396Y-54493801D01*
X87842589Y-54505984D01*
X87839596Y-54517931D01*
X87835447Y-54529527D01*
X87830181Y-54540660D01*
X87823849Y-54551224D01*
X87816513Y-54561116D01*
X87808242Y-54570242D01*
X87799116Y-54578513D01*
X87789224Y-54585849D01*
X87778660Y-54592181D01*
X87767527Y-54597447D01*
X87755931Y-54601596D01*
X87743984Y-54604589D01*
X87731801Y-54606396D01*
X87719500Y-54607000D01*
X87408500Y-54607000D01*
X87396199Y-54606396D01*
X87384016Y-54604589D01*
X87372069Y-54601596D01*
X87360473Y-54597447D01*
X87349340Y-54592181D01*
X87338776Y-54585849D01*
X87328884Y-54578513D01*
X87319758Y-54570242D01*
X87311487Y-54561116D01*
X87304151Y-54551224D01*
X87297819Y-54540660D01*
X87292553Y-54529527D01*
X87288404Y-54517931D01*
X87285411Y-54505984D01*
X87283604Y-54493801D01*
X87283000Y-54481500D01*
X87283000Y-54230500D01*
X87283604Y-54218199D01*
X87285411Y-54206016D01*
X87288404Y-54194069D01*
X87292553Y-54182473D01*
X87297819Y-54171340D01*
X87304151Y-54160776D01*
X87311487Y-54150884D01*
X87319758Y-54141758D01*
X87328884Y-54133487D01*
X87338776Y-54126151D01*
X87349340Y-54119819D01*
X87360473Y-54114553D01*
X87372069Y-54110404D01*
X87384016Y-54107411D01*
X87396199Y-54105604D01*
X87408500Y-54105000D01*
X87719500Y-54105000D01*
X87731801Y-54105604D01*
X87731801Y-54105604D01*
G37*
D17*
X87564000Y-54356000D03*
D16*
G36*
X88371801Y-54105604D02*
X88383984Y-54107411D01*
X88395931Y-54110404D01*
X88407527Y-54114553D01*
X88418660Y-54119819D01*
X88429224Y-54126151D01*
X88439116Y-54133487D01*
X88448242Y-54141758D01*
X88456513Y-54150884D01*
X88463849Y-54160776D01*
X88470181Y-54171340D01*
X88475447Y-54182473D01*
X88479596Y-54194069D01*
X88482589Y-54206016D01*
X88484396Y-54218199D01*
X88485000Y-54230500D01*
X88485000Y-54481500D01*
X88484396Y-54493801D01*
X88482589Y-54505984D01*
X88479596Y-54517931D01*
X88475447Y-54529527D01*
X88470181Y-54540660D01*
X88463849Y-54551224D01*
X88456513Y-54561116D01*
X88448242Y-54570242D01*
X88439116Y-54578513D01*
X88429224Y-54585849D01*
X88418660Y-54592181D01*
X88407527Y-54597447D01*
X88395931Y-54601596D01*
X88383984Y-54604589D01*
X88371801Y-54606396D01*
X88359500Y-54607000D01*
X88048500Y-54607000D01*
X88036199Y-54606396D01*
X88024016Y-54604589D01*
X88012069Y-54601596D01*
X88000473Y-54597447D01*
X87989340Y-54592181D01*
X87978776Y-54585849D01*
X87968884Y-54578513D01*
X87959758Y-54570242D01*
X87951487Y-54561116D01*
X87944151Y-54551224D01*
X87937819Y-54540660D01*
X87932553Y-54529527D01*
X87928404Y-54517931D01*
X87925411Y-54505984D01*
X87923604Y-54493801D01*
X87923000Y-54481500D01*
X87923000Y-54230500D01*
X87923604Y-54218199D01*
X87925411Y-54206016D01*
X87928404Y-54194069D01*
X87932553Y-54182473D01*
X87937819Y-54171340D01*
X87944151Y-54160776D01*
X87951487Y-54150884D01*
X87959758Y-54141758D01*
X87968884Y-54133487D01*
X87978776Y-54126151D01*
X87989340Y-54119819D01*
X88000473Y-54114553D01*
X88012069Y-54110404D01*
X88024016Y-54107411D01*
X88036199Y-54105604D01*
X88048500Y-54105000D01*
X88359500Y-54105000D01*
X88371801Y-54105604D01*
X88371801Y-54105604D01*
G37*
D17*
X88204000Y-54356000D03*
G04 #@! TD*
D16*
G04 #@! TO.C,C27*
G36*
X63601801Y-23371604D02*
X63613984Y-23373411D01*
X63625931Y-23376404D01*
X63637527Y-23380553D01*
X63648660Y-23385819D01*
X63659224Y-23392151D01*
X63669116Y-23399487D01*
X63678242Y-23407758D01*
X63686513Y-23416884D01*
X63693849Y-23426776D01*
X63700181Y-23437340D01*
X63705447Y-23448473D01*
X63709596Y-23460069D01*
X63712589Y-23472016D01*
X63714396Y-23484199D01*
X63715000Y-23496500D01*
X63715000Y-23747500D01*
X63714396Y-23759801D01*
X63712589Y-23771984D01*
X63709596Y-23783931D01*
X63705447Y-23795527D01*
X63700181Y-23806660D01*
X63693849Y-23817224D01*
X63686513Y-23827116D01*
X63678242Y-23836242D01*
X63669116Y-23844513D01*
X63659224Y-23851849D01*
X63648660Y-23858181D01*
X63637527Y-23863447D01*
X63625931Y-23867596D01*
X63613984Y-23870589D01*
X63601801Y-23872396D01*
X63589500Y-23873000D01*
X63278500Y-23873000D01*
X63266199Y-23872396D01*
X63254016Y-23870589D01*
X63242069Y-23867596D01*
X63230473Y-23863447D01*
X63219340Y-23858181D01*
X63208776Y-23851849D01*
X63198884Y-23844513D01*
X63189758Y-23836242D01*
X63181487Y-23827116D01*
X63174151Y-23817224D01*
X63167819Y-23806660D01*
X63162553Y-23795527D01*
X63158404Y-23783931D01*
X63155411Y-23771984D01*
X63153604Y-23759801D01*
X63153000Y-23747500D01*
X63153000Y-23496500D01*
X63153604Y-23484199D01*
X63155411Y-23472016D01*
X63158404Y-23460069D01*
X63162553Y-23448473D01*
X63167819Y-23437340D01*
X63174151Y-23426776D01*
X63181487Y-23416884D01*
X63189758Y-23407758D01*
X63198884Y-23399487D01*
X63208776Y-23392151D01*
X63219340Y-23385819D01*
X63230473Y-23380553D01*
X63242069Y-23376404D01*
X63254016Y-23373411D01*
X63266199Y-23371604D01*
X63278500Y-23371000D01*
X63589500Y-23371000D01*
X63601801Y-23371604D01*
X63601801Y-23371604D01*
G37*
D17*
X63434000Y-23622000D03*
D16*
G36*
X64241801Y-23371604D02*
X64253984Y-23373411D01*
X64265931Y-23376404D01*
X64277527Y-23380553D01*
X64288660Y-23385819D01*
X64299224Y-23392151D01*
X64309116Y-23399487D01*
X64318242Y-23407758D01*
X64326513Y-23416884D01*
X64333849Y-23426776D01*
X64340181Y-23437340D01*
X64345447Y-23448473D01*
X64349596Y-23460069D01*
X64352589Y-23472016D01*
X64354396Y-23484199D01*
X64355000Y-23496500D01*
X64355000Y-23747500D01*
X64354396Y-23759801D01*
X64352589Y-23771984D01*
X64349596Y-23783931D01*
X64345447Y-23795527D01*
X64340181Y-23806660D01*
X64333849Y-23817224D01*
X64326513Y-23827116D01*
X64318242Y-23836242D01*
X64309116Y-23844513D01*
X64299224Y-23851849D01*
X64288660Y-23858181D01*
X64277527Y-23863447D01*
X64265931Y-23867596D01*
X64253984Y-23870589D01*
X64241801Y-23872396D01*
X64229500Y-23873000D01*
X63918500Y-23873000D01*
X63906199Y-23872396D01*
X63894016Y-23870589D01*
X63882069Y-23867596D01*
X63870473Y-23863447D01*
X63859340Y-23858181D01*
X63848776Y-23851849D01*
X63838884Y-23844513D01*
X63829758Y-23836242D01*
X63821487Y-23827116D01*
X63814151Y-23817224D01*
X63807819Y-23806660D01*
X63802553Y-23795527D01*
X63798404Y-23783931D01*
X63795411Y-23771984D01*
X63793604Y-23759801D01*
X63793000Y-23747500D01*
X63793000Y-23496500D01*
X63793604Y-23484199D01*
X63795411Y-23472016D01*
X63798404Y-23460069D01*
X63802553Y-23448473D01*
X63807819Y-23437340D01*
X63814151Y-23426776D01*
X63821487Y-23416884D01*
X63829758Y-23407758D01*
X63838884Y-23399487D01*
X63848776Y-23392151D01*
X63859340Y-23385819D01*
X63870473Y-23380553D01*
X63882069Y-23376404D01*
X63894016Y-23373411D01*
X63906199Y-23371604D01*
X63918500Y-23371000D01*
X64229500Y-23371000D01*
X64241801Y-23371604D01*
X64241801Y-23371604D01*
G37*
D17*
X64074000Y-23622000D03*
G04 #@! TD*
D16*
G04 #@! TO.C,C29*
G36*
X54457801Y-23371604D02*
X54469984Y-23373411D01*
X54481931Y-23376404D01*
X54493527Y-23380553D01*
X54504660Y-23385819D01*
X54515224Y-23392151D01*
X54525116Y-23399487D01*
X54534242Y-23407758D01*
X54542513Y-23416884D01*
X54549849Y-23426776D01*
X54556181Y-23437340D01*
X54561447Y-23448473D01*
X54565596Y-23460069D01*
X54568589Y-23472016D01*
X54570396Y-23484199D01*
X54571000Y-23496500D01*
X54571000Y-23747500D01*
X54570396Y-23759801D01*
X54568589Y-23771984D01*
X54565596Y-23783931D01*
X54561447Y-23795527D01*
X54556181Y-23806660D01*
X54549849Y-23817224D01*
X54542513Y-23827116D01*
X54534242Y-23836242D01*
X54525116Y-23844513D01*
X54515224Y-23851849D01*
X54504660Y-23858181D01*
X54493527Y-23863447D01*
X54481931Y-23867596D01*
X54469984Y-23870589D01*
X54457801Y-23872396D01*
X54445500Y-23873000D01*
X54134500Y-23873000D01*
X54122199Y-23872396D01*
X54110016Y-23870589D01*
X54098069Y-23867596D01*
X54086473Y-23863447D01*
X54075340Y-23858181D01*
X54064776Y-23851849D01*
X54054884Y-23844513D01*
X54045758Y-23836242D01*
X54037487Y-23827116D01*
X54030151Y-23817224D01*
X54023819Y-23806660D01*
X54018553Y-23795527D01*
X54014404Y-23783931D01*
X54011411Y-23771984D01*
X54009604Y-23759801D01*
X54009000Y-23747500D01*
X54009000Y-23496500D01*
X54009604Y-23484199D01*
X54011411Y-23472016D01*
X54014404Y-23460069D01*
X54018553Y-23448473D01*
X54023819Y-23437340D01*
X54030151Y-23426776D01*
X54037487Y-23416884D01*
X54045758Y-23407758D01*
X54054884Y-23399487D01*
X54064776Y-23392151D01*
X54075340Y-23385819D01*
X54086473Y-23380553D01*
X54098069Y-23376404D01*
X54110016Y-23373411D01*
X54122199Y-23371604D01*
X54134500Y-23371000D01*
X54445500Y-23371000D01*
X54457801Y-23371604D01*
X54457801Y-23371604D01*
G37*
D17*
X54290000Y-23622000D03*
D16*
G36*
X55097801Y-23371604D02*
X55109984Y-23373411D01*
X55121931Y-23376404D01*
X55133527Y-23380553D01*
X55144660Y-23385819D01*
X55155224Y-23392151D01*
X55165116Y-23399487D01*
X55174242Y-23407758D01*
X55182513Y-23416884D01*
X55189849Y-23426776D01*
X55196181Y-23437340D01*
X55201447Y-23448473D01*
X55205596Y-23460069D01*
X55208589Y-23472016D01*
X55210396Y-23484199D01*
X55211000Y-23496500D01*
X55211000Y-23747500D01*
X55210396Y-23759801D01*
X55208589Y-23771984D01*
X55205596Y-23783931D01*
X55201447Y-23795527D01*
X55196181Y-23806660D01*
X55189849Y-23817224D01*
X55182513Y-23827116D01*
X55174242Y-23836242D01*
X55165116Y-23844513D01*
X55155224Y-23851849D01*
X55144660Y-23858181D01*
X55133527Y-23863447D01*
X55121931Y-23867596D01*
X55109984Y-23870589D01*
X55097801Y-23872396D01*
X55085500Y-23873000D01*
X54774500Y-23873000D01*
X54762199Y-23872396D01*
X54750016Y-23870589D01*
X54738069Y-23867596D01*
X54726473Y-23863447D01*
X54715340Y-23858181D01*
X54704776Y-23851849D01*
X54694884Y-23844513D01*
X54685758Y-23836242D01*
X54677487Y-23827116D01*
X54670151Y-23817224D01*
X54663819Y-23806660D01*
X54658553Y-23795527D01*
X54654404Y-23783931D01*
X54651411Y-23771984D01*
X54649604Y-23759801D01*
X54649000Y-23747500D01*
X54649000Y-23496500D01*
X54649604Y-23484199D01*
X54651411Y-23472016D01*
X54654404Y-23460069D01*
X54658553Y-23448473D01*
X54663819Y-23437340D01*
X54670151Y-23426776D01*
X54677487Y-23416884D01*
X54685758Y-23407758D01*
X54694884Y-23399487D01*
X54704776Y-23392151D01*
X54715340Y-23385819D01*
X54726473Y-23380553D01*
X54738069Y-23376404D01*
X54750016Y-23373411D01*
X54762199Y-23371604D01*
X54774500Y-23371000D01*
X55085500Y-23371000D01*
X55097801Y-23371604D01*
X55097801Y-23371604D01*
G37*
D17*
X54930000Y-23622000D03*
G04 #@! TD*
D16*
G04 #@! TO.C,C31*
G36*
X63601801Y-30610604D02*
X63613984Y-30612411D01*
X63625931Y-30615404D01*
X63637527Y-30619553D01*
X63648660Y-30624819D01*
X63659224Y-30631151D01*
X63669116Y-30638487D01*
X63678242Y-30646758D01*
X63686513Y-30655884D01*
X63693849Y-30665776D01*
X63700181Y-30676340D01*
X63705447Y-30687473D01*
X63709596Y-30699069D01*
X63712589Y-30711016D01*
X63714396Y-30723199D01*
X63715000Y-30735500D01*
X63715000Y-30986500D01*
X63714396Y-30998801D01*
X63712589Y-31010984D01*
X63709596Y-31022931D01*
X63705447Y-31034527D01*
X63700181Y-31045660D01*
X63693849Y-31056224D01*
X63686513Y-31066116D01*
X63678242Y-31075242D01*
X63669116Y-31083513D01*
X63659224Y-31090849D01*
X63648660Y-31097181D01*
X63637527Y-31102447D01*
X63625931Y-31106596D01*
X63613984Y-31109589D01*
X63601801Y-31111396D01*
X63589500Y-31112000D01*
X63278500Y-31112000D01*
X63266199Y-31111396D01*
X63254016Y-31109589D01*
X63242069Y-31106596D01*
X63230473Y-31102447D01*
X63219340Y-31097181D01*
X63208776Y-31090849D01*
X63198884Y-31083513D01*
X63189758Y-31075242D01*
X63181487Y-31066116D01*
X63174151Y-31056224D01*
X63167819Y-31045660D01*
X63162553Y-31034527D01*
X63158404Y-31022931D01*
X63155411Y-31010984D01*
X63153604Y-30998801D01*
X63153000Y-30986500D01*
X63153000Y-30735500D01*
X63153604Y-30723199D01*
X63155411Y-30711016D01*
X63158404Y-30699069D01*
X63162553Y-30687473D01*
X63167819Y-30676340D01*
X63174151Y-30665776D01*
X63181487Y-30655884D01*
X63189758Y-30646758D01*
X63198884Y-30638487D01*
X63208776Y-30631151D01*
X63219340Y-30624819D01*
X63230473Y-30619553D01*
X63242069Y-30615404D01*
X63254016Y-30612411D01*
X63266199Y-30610604D01*
X63278500Y-30610000D01*
X63589500Y-30610000D01*
X63601801Y-30610604D01*
X63601801Y-30610604D01*
G37*
D17*
X63434000Y-30861000D03*
D16*
G36*
X64241801Y-30610604D02*
X64253984Y-30612411D01*
X64265931Y-30615404D01*
X64277527Y-30619553D01*
X64288660Y-30624819D01*
X64299224Y-30631151D01*
X64309116Y-30638487D01*
X64318242Y-30646758D01*
X64326513Y-30655884D01*
X64333849Y-30665776D01*
X64340181Y-30676340D01*
X64345447Y-30687473D01*
X64349596Y-30699069D01*
X64352589Y-30711016D01*
X64354396Y-30723199D01*
X64355000Y-30735500D01*
X64355000Y-30986500D01*
X64354396Y-30998801D01*
X64352589Y-31010984D01*
X64349596Y-31022931D01*
X64345447Y-31034527D01*
X64340181Y-31045660D01*
X64333849Y-31056224D01*
X64326513Y-31066116D01*
X64318242Y-31075242D01*
X64309116Y-31083513D01*
X64299224Y-31090849D01*
X64288660Y-31097181D01*
X64277527Y-31102447D01*
X64265931Y-31106596D01*
X64253984Y-31109589D01*
X64241801Y-31111396D01*
X64229500Y-31112000D01*
X63918500Y-31112000D01*
X63906199Y-31111396D01*
X63894016Y-31109589D01*
X63882069Y-31106596D01*
X63870473Y-31102447D01*
X63859340Y-31097181D01*
X63848776Y-31090849D01*
X63838884Y-31083513D01*
X63829758Y-31075242D01*
X63821487Y-31066116D01*
X63814151Y-31056224D01*
X63807819Y-31045660D01*
X63802553Y-31034527D01*
X63798404Y-31022931D01*
X63795411Y-31010984D01*
X63793604Y-30998801D01*
X63793000Y-30986500D01*
X63793000Y-30735500D01*
X63793604Y-30723199D01*
X63795411Y-30711016D01*
X63798404Y-30699069D01*
X63802553Y-30687473D01*
X63807819Y-30676340D01*
X63814151Y-30665776D01*
X63821487Y-30655884D01*
X63829758Y-30646758D01*
X63838884Y-30638487D01*
X63848776Y-30631151D01*
X63859340Y-30624819D01*
X63870473Y-30619553D01*
X63882069Y-30615404D01*
X63894016Y-30612411D01*
X63906199Y-30610604D01*
X63918500Y-30610000D01*
X64229500Y-30610000D01*
X64241801Y-30610604D01*
X64241801Y-30610604D01*
G37*
D17*
X64074000Y-30861000D03*
G04 #@! TD*
D16*
G04 #@! TO.C,C33*
G36*
X55097801Y-30610604D02*
X55109984Y-30612411D01*
X55121931Y-30615404D01*
X55133527Y-30619553D01*
X55144660Y-30624819D01*
X55155224Y-30631151D01*
X55165116Y-30638487D01*
X55174242Y-30646758D01*
X55182513Y-30655884D01*
X55189849Y-30665776D01*
X55196181Y-30676340D01*
X55201447Y-30687473D01*
X55205596Y-30699069D01*
X55208589Y-30711016D01*
X55210396Y-30723199D01*
X55211000Y-30735500D01*
X55211000Y-30986500D01*
X55210396Y-30998801D01*
X55208589Y-31010984D01*
X55205596Y-31022931D01*
X55201447Y-31034527D01*
X55196181Y-31045660D01*
X55189849Y-31056224D01*
X55182513Y-31066116D01*
X55174242Y-31075242D01*
X55165116Y-31083513D01*
X55155224Y-31090849D01*
X55144660Y-31097181D01*
X55133527Y-31102447D01*
X55121931Y-31106596D01*
X55109984Y-31109589D01*
X55097801Y-31111396D01*
X55085500Y-31112000D01*
X54774500Y-31112000D01*
X54762199Y-31111396D01*
X54750016Y-31109589D01*
X54738069Y-31106596D01*
X54726473Y-31102447D01*
X54715340Y-31097181D01*
X54704776Y-31090849D01*
X54694884Y-31083513D01*
X54685758Y-31075242D01*
X54677487Y-31066116D01*
X54670151Y-31056224D01*
X54663819Y-31045660D01*
X54658553Y-31034527D01*
X54654404Y-31022931D01*
X54651411Y-31010984D01*
X54649604Y-30998801D01*
X54649000Y-30986500D01*
X54649000Y-30735500D01*
X54649604Y-30723199D01*
X54651411Y-30711016D01*
X54654404Y-30699069D01*
X54658553Y-30687473D01*
X54663819Y-30676340D01*
X54670151Y-30665776D01*
X54677487Y-30655884D01*
X54685758Y-30646758D01*
X54694884Y-30638487D01*
X54704776Y-30631151D01*
X54715340Y-30624819D01*
X54726473Y-30619553D01*
X54738069Y-30615404D01*
X54750016Y-30612411D01*
X54762199Y-30610604D01*
X54774500Y-30610000D01*
X55085500Y-30610000D01*
X55097801Y-30610604D01*
X55097801Y-30610604D01*
G37*
D17*
X54930000Y-30861000D03*
D16*
G36*
X54457801Y-30610604D02*
X54469984Y-30612411D01*
X54481931Y-30615404D01*
X54493527Y-30619553D01*
X54504660Y-30624819D01*
X54515224Y-30631151D01*
X54525116Y-30638487D01*
X54534242Y-30646758D01*
X54542513Y-30655884D01*
X54549849Y-30665776D01*
X54556181Y-30676340D01*
X54561447Y-30687473D01*
X54565596Y-30699069D01*
X54568589Y-30711016D01*
X54570396Y-30723199D01*
X54571000Y-30735500D01*
X54571000Y-30986500D01*
X54570396Y-30998801D01*
X54568589Y-31010984D01*
X54565596Y-31022931D01*
X54561447Y-31034527D01*
X54556181Y-31045660D01*
X54549849Y-31056224D01*
X54542513Y-31066116D01*
X54534242Y-31075242D01*
X54525116Y-31083513D01*
X54515224Y-31090849D01*
X54504660Y-31097181D01*
X54493527Y-31102447D01*
X54481931Y-31106596D01*
X54469984Y-31109589D01*
X54457801Y-31111396D01*
X54445500Y-31112000D01*
X54134500Y-31112000D01*
X54122199Y-31111396D01*
X54110016Y-31109589D01*
X54098069Y-31106596D01*
X54086473Y-31102447D01*
X54075340Y-31097181D01*
X54064776Y-31090849D01*
X54054884Y-31083513D01*
X54045758Y-31075242D01*
X54037487Y-31066116D01*
X54030151Y-31056224D01*
X54023819Y-31045660D01*
X54018553Y-31034527D01*
X54014404Y-31022931D01*
X54011411Y-31010984D01*
X54009604Y-30998801D01*
X54009000Y-30986500D01*
X54009000Y-30735500D01*
X54009604Y-30723199D01*
X54011411Y-30711016D01*
X54014404Y-30699069D01*
X54018553Y-30687473D01*
X54023819Y-30676340D01*
X54030151Y-30665776D01*
X54037487Y-30655884D01*
X54045758Y-30646758D01*
X54054884Y-30638487D01*
X54064776Y-30631151D01*
X54075340Y-30624819D01*
X54086473Y-30619553D01*
X54098069Y-30615404D01*
X54110016Y-30612411D01*
X54122199Y-30610604D01*
X54134500Y-30610000D01*
X54445500Y-30610000D01*
X54457801Y-30610604D01*
X54457801Y-30610604D01*
G37*
D17*
X54290000Y-30861000D03*
G04 #@! TD*
D16*
G04 #@! TO.C,C35*
G36*
X64241801Y-37976604D02*
X64253984Y-37978411D01*
X64265931Y-37981404D01*
X64277527Y-37985553D01*
X64288660Y-37990819D01*
X64299224Y-37997151D01*
X64309116Y-38004487D01*
X64318242Y-38012758D01*
X64326513Y-38021884D01*
X64333849Y-38031776D01*
X64340181Y-38042340D01*
X64345447Y-38053473D01*
X64349596Y-38065069D01*
X64352589Y-38077016D01*
X64354396Y-38089199D01*
X64355000Y-38101500D01*
X64355000Y-38352500D01*
X64354396Y-38364801D01*
X64352589Y-38376984D01*
X64349596Y-38388931D01*
X64345447Y-38400527D01*
X64340181Y-38411660D01*
X64333849Y-38422224D01*
X64326513Y-38432116D01*
X64318242Y-38441242D01*
X64309116Y-38449513D01*
X64299224Y-38456849D01*
X64288660Y-38463181D01*
X64277527Y-38468447D01*
X64265931Y-38472596D01*
X64253984Y-38475589D01*
X64241801Y-38477396D01*
X64229500Y-38478000D01*
X63918500Y-38478000D01*
X63906199Y-38477396D01*
X63894016Y-38475589D01*
X63882069Y-38472596D01*
X63870473Y-38468447D01*
X63859340Y-38463181D01*
X63848776Y-38456849D01*
X63838884Y-38449513D01*
X63829758Y-38441242D01*
X63821487Y-38432116D01*
X63814151Y-38422224D01*
X63807819Y-38411660D01*
X63802553Y-38400527D01*
X63798404Y-38388931D01*
X63795411Y-38376984D01*
X63793604Y-38364801D01*
X63793000Y-38352500D01*
X63793000Y-38101500D01*
X63793604Y-38089199D01*
X63795411Y-38077016D01*
X63798404Y-38065069D01*
X63802553Y-38053473D01*
X63807819Y-38042340D01*
X63814151Y-38031776D01*
X63821487Y-38021884D01*
X63829758Y-38012758D01*
X63838884Y-38004487D01*
X63848776Y-37997151D01*
X63859340Y-37990819D01*
X63870473Y-37985553D01*
X63882069Y-37981404D01*
X63894016Y-37978411D01*
X63906199Y-37976604D01*
X63918500Y-37976000D01*
X64229500Y-37976000D01*
X64241801Y-37976604D01*
X64241801Y-37976604D01*
G37*
D17*
X64074000Y-38227000D03*
D16*
G36*
X63601801Y-37976604D02*
X63613984Y-37978411D01*
X63625931Y-37981404D01*
X63637527Y-37985553D01*
X63648660Y-37990819D01*
X63659224Y-37997151D01*
X63669116Y-38004487D01*
X63678242Y-38012758D01*
X63686513Y-38021884D01*
X63693849Y-38031776D01*
X63700181Y-38042340D01*
X63705447Y-38053473D01*
X63709596Y-38065069D01*
X63712589Y-38077016D01*
X63714396Y-38089199D01*
X63715000Y-38101500D01*
X63715000Y-38352500D01*
X63714396Y-38364801D01*
X63712589Y-38376984D01*
X63709596Y-38388931D01*
X63705447Y-38400527D01*
X63700181Y-38411660D01*
X63693849Y-38422224D01*
X63686513Y-38432116D01*
X63678242Y-38441242D01*
X63669116Y-38449513D01*
X63659224Y-38456849D01*
X63648660Y-38463181D01*
X63637527Y-38468447D01*
X63625931Y-38472596D01*
X63613984Y-38475589D01*
X63601801Y-38477396D01*
X63589500Y-38478000D01*
X63278500Y-38478000D01*
X63266199Y-38477396D01*
X63254016Y-38475589D01*
X63242069Y-38472596D01*
X63230473Y-38468447D01*
X63219340Y-38463181D01*
X63208776Y-38456849D01*
X63198884Y-38449513D01*
X63189758Y-38441242D01*
X63181487Y-38432116D01*
X63174151Y-38422224D01*
X63167819Y-38411660D01*
X63162553Y-38400527D01*
X63158404Y-38388931D01*
X63155411Y-38376984D01*
X63153604Y-38364801D01*
X63153000Y-38352500D01*
X63153000Y-38101500D01*
X63153604Y-38089199D01*
X63155411Y-38077016D01*
X63158404Y-38065069D01*
X63162553Y-38053473D01*
X63167819Y-38042340D01*
X63174151Y-38031776D01*
X63181487Y-38021884D01*
X63189758Y-38012758D01*
X63198884Y-38004487D01*
X63208776Y-37997151D01*
X63219340Y-37990819D01*
X63230473Y-37985553D01*
X63242069Y-37981404D01*
X63254016Y-37978411D01*
X63266199Y-37976604D01*
X63278500Y-37976000D01*
X63589500Y-37976000D01*
X63601801Y-37976604D01*
X63601801Y-37976604D01*
G37*
D17*
X63434000Y-38227000D03*
G04 #@! TD*
D16*
G04 #@! TO.C,C37*
G36*
X54457801Y-37976604D02*
X54469984Y-37978411D01*
X54481931Y-37981404D01*
X54493527Y-37985553D01*
X54504660Y-37990819D01*
X54515224Y-37997151D01*
X54525116Y-38004487D01*
X54534242Y-38012758D01*
X54542513Y-38021884D01*
X54549849Y-38031776D01*
X54556181Y-38042340D01*
X54561447Y-38053473D01*
X54565596Y-38065069D01*
X54568589Y-38077016D01*
X54570396Y-38089199D01*
X54571000Y-38101500D01*
X54571000Y-38352500D01*
X54570396Y-38364801D01*
X54568589Y-38376984D01*
X54565596Y-38388931D01*
X54561447Y-38400527D01*
X54556181Y-38411660D01*
X54549849Y-38422224D01*
X54542513Y-38432116D01*
X54534242Y-38441242D01*
X54525116Y-38449513D01*
X54515224Y-38456849D01*
X54504660Y-38463181D01*
X54493527Y-38468447D01*
X54481931Y-38472596D01*
X54469984Y-38475589D01*
X54457801Y-38477396D01*
X54445500Y-38478000D01*
X54134500Y-38478000D01*
X54122199Y-38477396D01*
X54110016Y-38475589D01*
X54098069Y-38472596D01*
X54086473Y-38468447D01*
X54075340Y-38463181D01*
X54064776Y-38456849D01*
X54054884Y-38449513D01*
X54045758Y-38441242D01*
X54037487Y-38432116D01*
X54030151Y-38422224D01*
X54023819Y-38411660D01*
X54018553Y-38400527D01*
X54014404Y-38388931D01*
X54011411Y-38376984D01*
X54009604Y-38364801D01*
X54009000Y-38352500D01*
X54009000Y-38101500D01*
X54009604Y-38089199D01*
X54011411Y-38077016D01*
X54014404Y-38065069D01*
X54018553Y-38053473D01*
X54023819Y-38042340D01*
X54030151Y-38031776D01*
X54037487Y-38021884D01*
X54045758Y-38012758D01*
X54054884Y-38004487D01*
X54064776Y-37997151D01*
X54075340Y-37990819D01*
X54086473Y-37985553D01*
X54098069Y-37981404D01*
X54110016Y-37978411D01*
X54122199Y-37976604D01*
X54134500Y-37976000D01*
X54445500Y-37976000D01*
X54457801Y-37976604D01*
X54457801Y-37976604D01*
G37*
D17*
X54290000Y-38227000D03*
D16*
G36*
X55097801Y-37976604D02*
X55109984Y-37978411D01*
X55121931Y-37981404D01*
X55133527Y-37985553D01*
X55144660Y-37990819D01*
X55155224Y-37997151D01*
X55165116Y-38004487D01*
X55174242Y-38012758D01*
X55182513Y-38021884D01*
X55189849Y-38031776D01*
X55196181Y-38042340D01*
X55201447Y-38053473D01*
X55205596Y-38065069D01*
X55208589Y-38077016D01*
X55210396Y-38089199D01*
X55211000Y-38101500D01*
X55211000Y-38352500D01*
X55210396Y-38364801D01*
X55208589Y-38376984D01*
X55205596Y-38388931D01*
X55201447Y-38400527D01*
X55196181Y-38411660D01*
X55189849Y-38422224D01*
X55182513Y-38432116D01*
X55174242Y-38441242D01*
X55165116Y-38449513D01*
X55155224Y-38456849D01*
X55144660Y-38463181D01*
X55133527Y-38468447D01*
X55121931Y-38472596D01*
X55109984Y-38475589D01*
X55097801Y-38477396D01*
X55085500Y-38478000D01*
X54774500Y-38478000D01*
X54762199Y-38477396D01*
X54750016Y-38475589D01*
X54738069Y-38472596D01*
X54726473Y-38468447D01*
X54715340Y-38463181D01*
X54704776Y-38456849D01*
X54694884Y-38449513D01*
X54685758Y-38441242D01*
X54677487Y-38432116D01*
X54670151Y-38422224D01*
X54663819Y-38411660D01*
X54658553Y-38400527D01*
X54654404Y-38388931D01*
X54651411Y-38376984D01*
X54649604Y-38364801D01*
X54649000Y-38352500D01*
X54649000Y-38101500D01*
X54649604Y-38089199D01*
X54651411Y-38077016D01*
X54654404Y-38065069D01*
X54658553Y-38053473D01*
X54663819Y-38042340D01*
X54670151Y-38031776D01*
X54677487Y-38021884D01*
X54685758Y-38012758D01*
X54694884Y-38004487D01*
X54704776Y-37997151D01*
X54715340Y-37990819D01*
X54726473Y-37985553D01*
X54738069Y-37981404D01*
X54750016Y-37978411D01*
X54762199Y-37976604D01*
X54774500Y-37976000D01*
X55085500Y-37976000D01*
X55097801Y-37976604D01*
X55097801Y-37976604D01*
G37*
D17*
X54930000Y-38227000D03*
G04 #@! TD*
D16*
G04 #@! TO.C,C40*
G36*
X64241801Y-45088604D02*
X64253984Y-45090411D01*
X64265931Y-45093404D01*
X64277527Y-45097553D01*
X64288660Y-45102819D01*
X64299224Y-45109151D01*
X64309116Y-45116487D01*
X64318242Y-45124758D01*
X64326513Y-45133884D01*
X64333849Y-45143776D01*
X64340181Y-45154340D01*
X64345447Y-45165473D01*
X64349596Y-45177069D01*
X64352589Y-45189016D01*
X64354396Y-45201199D01*
X64355000Y-45213500D01*
X64355000Y-45464500D01*
X64354396Y-45476801D01*
X64352589Y-45488984D01*
X64349596Y-45500931D01*
X64345447Y-45512527D01*
X64340181Y-45523660D01*
X64333849Y-45534224D01*
X64326513Y-45544116D01*
X64318242Y-45553242D01*
X64309116Y-45561513D01*
X64299224Y-45568849D01*
X64288660Y-45575181D01*
X64277527Y-45580447D01*
X64265931Y-45584596D01*
X64253984Y-45587589D01*
X64241801Y-45589396D01*
X64229500Y-45590000D01*
X63918500Y-45590000D01*
X63906199Y-45589396D01*
X63894016Y-45587589D01*
X63882069Y-45584596D01*
X63870473Y-45580447D01*
X63859340Y-45575181D01*
X63848776Y-45568849D01*
X63838884Y-45561513D01*
X63829758Y-45553242D01*
X63821487Y-45544116D01*
X63814151Y-45534224D01*
X63807819Y-45523660D01*
X63802553Y-45512527D01*
X63798404Y-45500931D01*
X63795411Y-45488984D01*
X63793604Y-45476801D01*
X63793000Y-45464500D01*
X63793000Y-45213500D01*
X63793604Y-45201199D01*
X63795411Y-45189016D01*
X63798404Y-45177069D01*
X63802553Y-45165473D01*
X63807819Y-45154340D01*
X63814151Y-45143776D01*
X63821487Y-45133884D01*
X63829758Y-45124758D01*
X63838884Y-45116487D01*
X63848776Y-45109151D01*
X63859340Y-45102819D01*
X63870473Y-45097553D01*
X63882069Y-45093404D01*
X63894016Y-45090411D01*
X63906199Y-45088604D01*
X63918500Y-45088000D01*
X64229500Y-45088000D01*
X64241801Y-45088604D01*
X64241801Y-45088604D01*
G37*
D17*
X64074000Y-45339000D03*
D16*
G36*
X63601801Y-45088604D02*
X63613984Y-45090411D01*
X63625931Y-45093404D01*
X63637527Y-45097553D01*
X63648660Y-45102819D01*
X63659224Y-45109151D01*
X63669116Y-45116487D01*
X63678242Y-45124758D01*
X63686513Y-45133884D01*
X63693849Y-45143776D01*
X63700181Y-45154340D01*
X63705447Y-45165473D01*
X63709596Y-45177069D01*
X63712589Y-45189016D01*
X63714396Y-45201199D01*
X63715000Y-45213500D01*
X63715000Y-45464500D01*
X63714396Y-45476801D01*
X63712589Y-45488984D01*
X63709596Y-45500931D01*
X63705447Y-45512527D01*
X63700181Y-45523660D01*
X63693849Y-45534224D01*
X63686513Y-45544116D01*
X63678242Y-45553242D01*
X63669116Y-45561513D01*
X63659224Y-45568849D01*
X63648660Y-45575181D01*
X63637527Y-45580447D01*
X63625931Y-45584596D01*
X63613984Y-45587589D01*
X63601801Y-45589396D01*
X63589500Y-45590000D01*
X63278500Y-45590000D01*
X63266199Y-45589396D01*
X63254016Y-45587589D01*
X63242069Y-45584596D01*
X63230473Y-45580447D01*
X63219340Y-45575181D01*
X63208776Y-45568849D01*
X63198884Y-45561513D01*
X63189758Y-45553242D01*
X63181487Y-45544116D01*
X63174151Y-45534224D01*
X63167819Y-45523660D01*
X63162553Y-45512527D01*
X63158404Y-45500931D01*
X63155411Y-45488984D01*
X63153604Y-45476801D01*
X63153000Y-45464500D01*
X63153000Y-45213500D01*
X63153604Y-45201199D01*
X63155411Y-45189016D01*
X63158404Y-45177069D01*
X63162553Y-45165473D01*
X63167819Y-45154340D01*
X63174151Y-45143776D01*
X63181487Y-45133884D01*
X63189758Y-45124758D01*
X63198884Y-45116487D01*
X63208776Y-45109151D01*
X63219340Y-45102819D01*
X63230473Y-45097553D01*
X63242069Y-45093404D01*
X63254016Y-45090411D01*
X63266199Y-45088604D01*
X63278500Y-45088000D01*
X63589500Y-45088000D01*
X63601801Y-45088604D01*
X63601801Y-45088604D01*
G37*
D17*
X63434000Y-45339000D03*
G04 #@! TD*
D16*
G04 #@! TO.C,C42*
G36*
X55097801Y-45088604D02*
X55109984Y-45090411D01*
X55121931Y-45093404D01*
X55133527Y-45097553D01*
X55144660Y-45102819D01*
X55155224Y-45109151D01*
X55165116Y-45116487D01*
X55174242Y-45124758D01*
X55182513Y-45133884D01*
X55189849Y-45143776D01*
X55196181Y-45154340D01*
X55201447Y-45165473D01*
X55205596Y-45177069D01*
X55208589Y-45189016D01*
X55210396Y-45201199D01*
X55211000Y-45213500D01*
X55211000Y-45464500D01*
X55210396Y-45476801D01*
X55208589Y-45488984D01*
X55205596Y-45500931D01*
X55201447Y-45512527D01*
X55196181Y-45523660D01*
X55189849Y-45534224D01*
X55182513Y-45544116D01*
X55174242Y-45553242D01*
X55165116Y-45561513D01*
X55155224Y-45568849D01*
X55144660Y-45575181D01*
X55133527Y-45580447D01*
X55121931Y-45584596D01*
X55109984Y-45587589D01*
X55097801Y-45589396D01*
X55085500Y-45590000D01*
X54774500Y-45590000D01*
X54762199Y-45589396D01*
X54750016Y-45587589D01*
X54738069Y-45584596D01*
X54726473Y-45580447D01*
X54715340Y-45575181D01*
X54704776Y-45568849D01*
X54694884Y-45561513D01*
X54685758Y-45553242D01*
X54677487Y-45544116D01*
X54670151Y-45534224D01*
X54663819Y-45523660D01*
X54658553Y-45512527D01*
X54654404Y-45500931D01*
X54651411Y-45488984D01*
X54649604Y-45476801D01*
X54649000Y-45464500D01*
X54649000Y-45213500D01*
X54649604Y-45201199D01*
X54651411Y-45189016D01*
X54654404Y-45177069D01*
X54658553Y-45165473D01*
X54663819Y-45154340D01*
X54670151Y-45143776D01*
X54677487Y-45133884D01*
X54685758Y-45124758D01*
X54694884Y-45116487D01*
X54704776Y-45109151D01*
X54715340Y-45102819D01*
X54726473Y-45097553D01*
X54738069Y-45093404D01*
X54750016Y-45090411D01*
X54762199Y-45088604D01*
X54774500Y-45088000D01*
X55085500Y-45088000D01*
X55097801Y-45088604D01*
X55097801Y-45088604D01*
G37*
D17*
X54930000Y-45339000D03*
D16*
G36*
X54457801Y-45088604D02*
X54469984Y-45090411D01*
X54481931Y-45093404D01*
X54493527Y-45097553D01*
X54504660Y-45102819D01*
X54515224Y-45109151D01*
X54525116Y-45116487D01*
X54534242Y-45124758D01*
X54542513Y-45133884D01*
X54549849Y-45143776D01*
X54556181Y-45154340D01*
X54561447Y-45165473D01*
X54565596Y-45177069D01*
X54568589Y-45189016D01*
X54570396Y-45201199D01*
X54571000Y-45213500D01*
X54571000Y-45464500D01*
X54570396Y-45476801D01*
X54568589Y-45488984D01*
X54565596Y-45500931D01*
X54561447Y-45512527D01*
X54556181Y-45523660D01*
X54549849Y-45534224D01*
X54542513Y-45544116D01*
X54534242Y-45553242D01*
X54525116Y-45561513D01*
X54515224Y-45568849D01*
X54504660Y-45575181D01*
X54493527Y-45580447D01*
X54481931Y-45584596D01*
X54469984Y-45587589D01*
X54457801Y-45589396D01*
X54445500Y-45590000D01*
X54134500Y-45590000D01*
X54122199Y-45589396D01*
X54110016Y-45587589D01*
X54098069Y-45584596D01*
X54086473Y-45580447D01*
X54075340Y-45575181D01*
X54064776Y-45568849D01*
X54054884Y-45561513D01*
X54045758Y-45553242D01*
X54037487Y-45544116D01*
X54030151Y-45534224D01*
X54023819Y-45523660D01*
X54018553Y-45512527D01*
X54014404Y-45500931D01*
X54011411Y-45488984D01*
X54009604Y-45476801D01*
X54009000Y-45464500D01*
X54009000Y-45213500D01*
X54009604Y-45201199D01*
X54011411Y-45189016D01*
X54014404Y-45177069D01*
X54018553Y-45165473D01*
X54023819Y-45154340D01*
X54030151Y-45143776D01*
X54037487Y-45133884D01*
X54045758Y-45124758D01*
X54054884Y-45116487D01*
X54064776Y-45109151D01*
X54075340Y-45102819D01*
X54086473Y-45097553D01*
X54098069Y-45093404D01*
X54110016Y-45090411D01*
X54122199Y-45088604D01*
X54134500Y-45088000D01*
X54445500Y-45088000D01*
X54457801Y-45088604D01*
X54457801Y-45088604D01*
G37*
D17*
X54290000Y-45339000D03*
G04 #@! TD*
D16*
G04 #@! TO.C,C43*
G36*
X63601801Y-52835604D02*
X63613984Y-52837411D01*
X63625931Y-52840404D01*
X63637527Y-52844553D01*
X63648660Y-52849819D01*
X63659224Y-52856151D01*
X63669116Y-52863487D01*
X63678242Y-52871758D01*
X63686513Y-52880884D01*
X63693849Y-52890776D01*
X63700181Y-52901340D01*
X63705447Y-52912473D01*
X63709596Y-52924069D01*
X63712589Y-52936016D01*
X63714396Y-52948199D01*
X63715000Y-52960500D01*
X63715000Y-53211500D01*
X63714396Y-53223801D01*
X63712589Y-53235984D01*
X63709596Y-53247931D01*
X63705447Y-53259527D01*
X63700181Y-53270660D01*
X63693849Y-53281224D01*
X63686513Y-53291116D01*
X63678242Y-53300242D01*
X63669116Y-53308513D01*
X63659224Y-53315849D01*
X63648660Y-53322181D01*
X63637527Y-53327447D01*
X63625931Y-53331596D01*
X63613984Y-53334589D01*
X63601801Y-53336396D01*
X63589500Y-53337000D01*
X63278500Y-53337000D01*
X63266199Y-53336396D01*
X63254016Y-53334589D01*
X63242069Y-53331596D01*
X63230473Y-53327447D01*
X63219340Y-53322181D01*
X63208776Y-53315849D01*
X63198884Y-53308513D01*
X63189758Y-53300242D01*
X63181487Y-53291116D01*
X63174151Y-53281224D01*
X63167819Y-53270660D01*
X63162553Y-53259527D01*
X63158404Y-53247931D01*
X63155411Y-53235984D01*
X63153604Y-53223801D01*
X63153000Y-53211500D01*
X63153000Y-52960500D01*
X63153604Y-52948199D01*
X63155411Y-52936016D01*
X63158404Y-52924069D01*
X63162553Y-52912473D01*
X63167819Y-52901340D01*
X63174151Y-52890776D01*
X63181487Y-52880884D01*
X63189758Y-52871758D01*
X63198884Y-52863487D01*
X63208776Y-52856151D01*
X63219340Y-52849819D01*
X63230473Y-52844553D01*
X63242069Y-52840404D01*
X63254016Y-52837411D01*
X63266199Y-52835604D01*
X63278500Y-52835000D01*
X63589500Y-52835000D01*
X63601801Y-52835604D01*
X63601801Y-52835604D01*
G37*
D17*
X63434000Y-53086000D03*
D16*
G36*
X64241801Y-52835604D02*
X64253984Y-52837411D01*
X64265931Y-52840404D01*
X64277527Y-52844553D01*
X64288660Y-52849819D01*
X64299224Y-52856151D01*
X64309116Y-52863487D01*
X64318242Y-52871758D01*
X64326513Y-52880884D01*
X64333849Y-52890776D01*
X64340181Y-52901340D01*
X64345447Y-52912473D01*
X64349596Y-52924069D01*
X64352589Y-52936016D01*
X64354396Y-52948199D01*
X64355000Y-52960500D01*
X64355000Y-53211500D01*
X64354396Y-53223801D01*
X64352589Y-53235984D01*
X64349596Y-53247931D01*
X64345447Y-53259527D01*
X64340181Y-53270660D01*
X64333849Y-53281224D01*
X64326513Y-53291116D01*
X64318242Y-53300242D01*
X64309116Y-53308513D01*
X64299224Y-53315849D01*
X64288660Y-53322181D01*
X64277527Y-53327447D01*
X64265931Y-53331596D01*
X64253984Y-53334589D01*
X64241801Y-53336396D01*
X64229500Y-53337000D01*
X63918500Y-53337000D01*
X63906199Y-53336396D01*
X63894016Y-53334589D01*
X63882069Y-53331596D01*
X63870473Y-53327447D01*
X63859340Y-53322181D01*
X63848776Y-53315849D01*
X63838884Y-53308513D01*
X63829758Y-53300242D01*
X63821487Y-53291116D01*
X63814151Y-53281224D01*
X63807819Y-53270660D01*
X63802553Y-53259527D01*
X63798404Y-53247931D01*
X63795411Y-53235984D01*
X63793604Y-53223801D01*
X63793000Y-53211500D01*
X63793000Y-52960500D01*
X63793604Y-52948199D01*
X63795411Y-52936016D01*
X63798404Y-52924069D01*
X63802553Y-52912473D01*
X63807819Y-52901340D01*
X63814151Y-52890776D01*
X63821487Y-52880884D01*
X63829758Y-52871758D01*
X63838884Y-52863487D01*
X63848776Y-52856151D01*
X63859340Y-52849819D01*
X63870473Y-52844553D01*
X63882069Y-52840404D01*
X63894016Y-52837411D01*
X63906199Y-52835604D01*
X63918500Y-52835000D01*
X64229500Y-52835000D01*
X64241801Y-52835604D01*
X64241801Y-52835604D01*
G37*
D17*
X64074000Y-53086000D03*
G04 #@! TD*
D16*
G04 #@! TO.C,C45*
G36*
X54457801Y-52835604D02*
X54469984Y-52837411D01*
X54481931Y-52840404D01*
X54493527Y-52844553D01*
X54504660Y-52849819D01*
X54515224Y-52856151D01*
X54525116Y-52863487D01*
X54534242Y-52871758D01*
X54542513Y-52880884D01*
X54549849Y-52890776D01*
X54556181Y-52901340D01*
X54561447Y-52912473D01*
X54565596Y-52924069D01*
X54568589Y-52936016D01*
X54570396Y-52948199D01*
X54571000Y-52960500D01*
X54571000Y-53211500D01*
X54570396Y-53223801D01*
X54568589Y-53235984D01*
X54565596Y-53247931D01*
X54561447Y-53259527D01*
X54556181Y-53270660D01*
X54549849Y-53281224D01*
X54542513Y-53291116D01*
X54534242Y-53300242D01*
X54525116Y-53308513D01*
X54515224Y-53315849D01*
X54504660Y-53322181D01*
X54493527Y-53327447D01*
X54481931Y-53331596D01*
X54469984Y-53334589D01*
X54457801Y-53336396D01*
X54445500Y-53337000D01*
X54134500Y-53337000D01*
X54122199Y-53336396D01*
X54110016Y-53334589D01*
X54098069Y-53331596D01*
X54086473Y-53327447D01*
X54075340Y-53322181D01*
X54064776Y-53315849D01*
X54054884Y-53308513D01*
X54045758Y-53300242D01*
X54037487Y-53291116D01*
X54030151Y-53281224D01*
X54023819Y-53270660D01*
X54018553Y-53259527D01*
X54014404Y-53247931D01*
X54011411Y-53235984D01*
X54009604Y-53223801D01*
X54009000Y-53211500D01*
X54009000Y-52960500D01*
X54009604Y-52948199D01*
X54011411Y-52936016D01*
X54014404Y-52924069D01*
X54018553Y-52912473D01*
X54023819Y-52901340D01*
X54030151Y-52890776D01*
X54037487Y-52880884D01*
X54045758Y-52871758D01*
X54054884Y-52863487D01*
X54064776Y-52856151D01*
X54075340Y-52849819D01*
X54086473Y-52844553D01*
X54098069Y-52840404D01*
X54110016Y-52837411D01*
X54122199Y-52835604D01*
X54134500Y-52835000D01*
X54445500Y-52835000D01*
X54457801Y-52835604D01*
X54457801Y-52835604D01*
G37*
D17*
X54290000Y-53086000D03*
D16*
G36*
X55097801Y-52835604D02*
X55109984Y-52837411D01*
X55121931Y-52840404D01*
X55133527Y-52844553D01*
X55144660Y-52849819D01*
X55155224Y-52856151D01*
X55165116Y-52863487D01*
X55174242Y-52871758D01*
X55182513Y-52880884D01*
X55189849Y-52890776D01*
X55196181Y-52901340D01*
X55201447Y-52912473D01*
X55205596Y-52924069D01*
X55208589Y-52936016D01*
X55210396Y-52948199D01*
X55211000Y-52960500D01*
X55211000Y-53211500D01*
X55210396Y-53223801D01*
X55208589Y-53235984D01*
X55205596Y-53247931D01*
X55201447Y-53259527D01*
X55196181Y-53270660D01*
X55189849Y-53281224D01*
X55182513Y-53291116D01*
X55174242Y-53300242D01*
X55165116Y-53308513D01*
X55155224Y-53315849D01*
X55144660Y-53322181D01*
X55133527Y-53327447D01*
X55121931Y-53331596D01*
X55109984Y-53334589D01*
X55097801Y-53336396D01*
X55085500Y-53337000D01*
X54774500Y-53337000D01*
X54762199Y-53336396D01*
X54750016Y-53334589D01*
X54738069Y-53331596D01*
X54726473Y-53327447D01*
X54715340Y-53322181D01*
X54704776Y-53315849D01*
X54694884Y-53308513D01*
X54685758Y-53300242D01*
X54677487Y-53291116D01*
X54670151Y-53281224D01*
X54663819Y-53270660D01*
X54658553Y-53259527D01*
X54654404Y-53247931D01*
X54651411Y-53235984D01*
X54649604Y-53223801D01*
X54649000Y-53211500D01*
X54649000Y-52960500D01*
X54649604Y-52948199D01*
X54651411Y-52936016D01*
X54654404Y-52924069D01*
X54658553Y-52912473D01*
X54663819Y-52901340D01*
X54670151Y-52890776D01*
X54677487Y-52880884D01*
X54685758Y-52871758D01*
X54694884Y-52863487D01*
X54704776Y-52856151D01*
X54715340Y-52849819D01*
X54726473Y-52844553D01*
X54738069Y-52840404D01*
X54750016Y-52837411D01*
X54762199Y-52835604D01*
X54774500Y-52835000D01*
X55085500Y-52835000D01*
X55097801Y-52835604D01*
X55097801Y-52835604D01*
G37*
D17*
X54930000Y-53086000D03*
G04 #@! TD*
D16*
G04 #@! TO.C,C47*
G36*
X64241801Y-59693604D02*
X64253984Y-59695411D01*
X64265931Y-59698404D01*
X64277527Y-59702553D01*
X64288660Y-59707819D01*
X64299224Y-59714151D01*
X64309116Y-59721487D01*
X64318242Y-59729758D01*
X64326513Y-59738884D01*
X64333849Y-59748776D01*
X64340181Y-59759340D01*
X64345447Y-59770473D01*
X64349596Y-59782069D01*
X64352589Y-59794016D01*
X64354396Y-59806199D01*
X64355000Y-59818500D01*
X64355000Y-60069500D01*
X64354396Y-60081801D01*
X64352589Y-60093984D01*
X64349596Y-60105931D01*
X64345447Y-60117527D01*
X64340181Y-60128660D01*
X64333849Y-60139224D01*
X64326513Y-60149116D01*
X64318242Y-60158242D01*
X64309116Y-60166513D01*
X64299224Y-60173849D01*
X64288660Y-60180181D01*
X64277527Y-60185447D01*
X64265931Y-60189596D01*
X64253984Y-60192589D01*
X64241801Y-60194396D01*
X64229500Y-60195000D01*
X63918500Y-60195000D01*
X63906199Y-60194396D01*
X63894016Y-60192589D01*
X63882069Y-60189596D01*
X63870473Y-60185447D01*
X63859340Y-60180181D01*
X63848776Y-60173849D01*
X63838884Y-60166513D01*
X63829758Y-60158242D01*
X63821487Y-60149116D01*
X63814151Y-60139224D01*
X63807819Y-60128660D01*
X63802553Y-60117527D01*
X63798404Y-60105931D01*
X63795411Y-60093984D01*
X63793604Y-60081801D01*
X63793000Y-60069500D01*
X63793000Y-59818500D01*
X63793604Y-59806199D01*
X63795411Y-59794016D01*
X63798404Y-59782069D01*
X63802553Y-59770473D01*
X63807819Y-59759340D01*
X63814151Y-59748776D01*
X63821487Y-59738884D01*
X63829758Y-59729758D01*
X63838884Y-59721487D01*
X63848776Y-59714151D01*
X63859340Y-59707819D01*
X63870473Y-59702553D01*
X63882069Y-59698404D01*
X63894016Y-59695411D01*
X63906199Y-59693604D01*
X63918500Y-59693000D01*
X64229500Y-59693000D01*
X64241801Y-59693604D01*
X64241801Y-59693604D01*
G37*
D17*
X64074000Y-59944000D03*
D16*
G36*
X63601801Y-59693604D02*
X63613984Y-59695411D01*
X63625931Y-59698404D01*
X63637527Y-59702553D01*
X63648660Y-59707819D01*
X63659224Y-59714151D01*
X63669116Y-59721487D01*
X63678242Y-59729758D01*
X63686513Y-59738884D01*
X63693849Y-59748776D01*
X63700181Y-59759340D01*
X63705447Y-59770473D01*
X63709596Y-59782069D01*
X63712589Y-59794016D01*
X63714396Y-59806199D01*
X63715000Y-59818500D01*
X63715000Y-60069500D01*
X63714396Y-60081801D01*
X63712589Y-60093984D01*
X63709596Y-60105931D01*
X63705447Y-60117527D01*
X63700181Y-60128660D01*
X63693849Y-60139224D01*
X63686513Y-60149116D01*
X63678242Y-60158242D01*
X63669116Y-60166513D01*
X63659224Y-60173849D01*
X63648660Y-60180181D01*
X63637527Y-60185447D01*
X63625931Y-60189596D01*
X63613984Y-60192589D01*
X63601801Y-60194396D01*
X63589500Y-60195000D01*
X63278500Y-60195000D01*
X63266199Y-60194396D01*
X63254016Y-60192589D01*
X63242069Y-60189596D01*
X63230473Y-60185447D01*
X63219340Y-60180181D01*
X63208776Y-60173849D01*
X63198884Y-60166513D01*
X63189758Y-60158242D01*
X63181487Y-60149116D01*
X63174151Y-60139224D01*
X63167819Y-60128660D01*
X63162553Y-60117527D01*
X63158404Y-60105931D01*
X63155411Y-60093984D01*
X63153604Y-60081801D01*
X63153000Y-60069500D01*
X63153000Y-59818500D01*
X63153604Y-59806199D01*
X63155411Y-59794016D01*
X63158404Y-59782069D01*
X63162553Y-59770473D01*
X63167819Y-59759340D01*
X63174151Y-59748776D01*
X63181487Y-59738884D01*
X63189758Y-59729758D01*
X63198884Y-59721487D01*
X63208776Y-59714151D01*
X63219340Y-59707819D01*
X63230473Y-59702553D01*
X63242069Y-59698404D01*
X63254016Y-59695411D01*
X63266199Y-59693604D01*
X63278500Y-59693000D01*
X63589500Y-59693000D01*
X63601801Y-59693604D01*
X63601801Y-59693604D01*
G37*
D17*
X63434000Y-59944000D03*
G04 #@! TD*
D16*
G04 #@! TO.C,C49*
G36*
X54330801Y-59693604D02*
X54342984Y-59695411D01*
X54354931Y-59698404D01*
X54366527Y-59702553D01*
X54377660Y-59707819D01*
X54388224Y-59714151D01*
X54398116Y-59721487D01*
X54407242Y-59729758D01*
X54415513Y-59738884D01*
X54422849Y-59748776D01*
X54429181Y-59759340D01*
X54434447Y-59770473D01*
X54438596Y-59782069D01*
X54441589Y-59794016D01*
X54443396Y-59806199D01*
X54444000Y-59818500D01*
X54444000Y-60069500D01*
X54443396Y-60081801D01*
X54441589Y-60093984D01*
X54438596Y-60105931D01*
X54434447Y-60117527D01*
X54429181Y-60128660D01*
X54422849Y-60139224D01*
X54415513Y-60149116D01*
X54407242Y-60158242D01*
X54398116Y-60166513D01*
X54388224Y-60173849D01*
X54377660Y-60180181D01*
X54366527Y-60185447D01*
X54354931Y-60189596D01*
X54342984Y-60192589D01*
X54330801Y-60194396D01*
X54318500Y-60195000D01*
X54007500Y-60195000D01*
X53995199Y-60194396D01*
X53983016Y-60192589D01*
X53971069Y-60189596D01*
X53959473Y-60185447D01*
X53948340Y-60180181D01*
X53937776Y-60173849D01*
X53927884Y-60166513D01*
X53918758Y-60158242D01*
X53910487Y-60149116D01*
X53903151Y-60139224D01*
X53896819Y-60128660D01*
X53891553Y-60117527D01*
X53887404Y-60105931D01*
X53884411Y-60093984D01*
X53882604Y-60081801D01*
X53882000Y-60069500D01*
X53882000Y-59818500D01*
X53882604Y-59806199D01*
X53884411Y-59794016D01*
X53887404Y-59782069D01*
X53891553Y-59770473D01*
X53896819Y-59759340D01*
X53903151Y-59748776D01*
X53910487Y-59738884D01*
X53918758Y-59729758D01*
X53927884Y-59721487D01*
X53937776Y-59714151D01*
X53948340Y-59707819D01*
X53959473Y-59702553D01*
X53971069Y-59698404D01*
X53983016Y-59695411D01*
X53995199Y-59693604D01*
X54007500Y-59693000D01*
X54318500Y-59693000D01*
X54330801Y-59693604D01*
X54330801Y-59693604D01*
G37*
D17*
X54163000Y-59944000D03*
D16*
G36*
X54970801Y-59693604D02*
X54982984Y-59695411D01*
X54994931Y-59698404D01*
X55006527Y-59702553D01*
X55017660Y-59707819D01*
X55028224Y-59714151D01*
X55038116Y-59721487D01*
X55047242Y-59729758D01*
X55055513Y-59738884D01*
X55062849Y-59748776D01*
X55069181Y-59759340D01*
X55074447Y-59770473D01*
X55078596Y-59782069D01*
X55081589Y-59794016D01*
X55083396Y-59806199D01*
X55084000Y-59818500D01*
X55084000Y-60069500D01*
X55083396Y-60081801D01*
X55081589Y-60093984D01*
X55078596Y-60105931D01*
X55074447Y-60117527D01*
X55069181Y-60128660D01*
X55062849Y-60139224D01*
X55055513Y-60149116D01*
X55047242Y-60158242D01*
X55038116Y-60166513D01*
X55028224Y-60173849D01*
X55017660Y-60180181D01*
X55006527Y-60185447D01*
X54994931Y-60189596D01*
X54982984Y-60192589D01*
X54970801Y-60194396D01*
X54958500Y-60195000D01*
X54647500Y-60195000D01*
X54635199Y-60194396D01*
X54623016Y-60192589D01*
X54611069Y-60189596D01*
X54599473Y-60185447D01*
X54588340Y-60180181D01*
X54577776Y-60173849D01*
X54567884Y-60166513D01*
X54558758Y-60158242D01*
X54550487Y-60149116D01*
X54543151Y-60139224D01*
X54536819Y-60128660D01*
X54531553Y-60117527D01*
X54527404Y-60105931D01*
X54524411Y-60093984D01*
X54522604Y-60081801D01*
X54522000Y-60069500D01*
X54522000Y-59818500D01*
X54522604Y-59806199D01*
X54524411Y-59794016D01*
X54527404Y-59782069D01*
X54531553Y-59770473D01*
X54536819Y-59759340D01*
X54543151Y-59748776D01*
X54550487Y-59738884D01*
X54558758Y-59729758D01*
X54567884Y-59721487D01*
X54577776Y-59714151D01*
X54588340Y-59707819D01*
X54599473Y-59702553D01*
X54611069Y-59698404D01*
X54623016Y-59695411D01*
X54635199Y-59693604D01*
X54647500Y-59693000D01*
X54958500Y-59693000D01*
X54970801Y-59693604D01*
X54970801Y-59693604D01*
G37*
D17*
X54803000Y-59944000D03*
G04 #@! TD*
D16*
G04 #@! TO.C,C51*
G36*
X64241801Y-67567604D02*
X64253984Y-67569411D01*
X64265931Y-67572404D01*
X64277527Y-67576553D01*
X64288660Y-67581819D01*
X64299224Y-67588151D01*
X64309116Y-67595487D01*
X64318242Y-67603758D01*
X64326513Y-67612884D01*
X64333849Y-67622776D01*
X64340181Y-67633340D01*
X64345447Y-67644473D01*
X64349596Y-67656069D01*
X64352589Y-67668016D01*
X64354396Y-67680199D01*
X64355000Y-67692500D01*
X64355000Y-67943500D01*
X64354396Y-67955801D01*
X64352589Y-67967984D01*
X64349596Y-67979931D01*
X64345447Y-67991527D01*
X64340181Y-68002660D01*
X64333849Y-68013224D01*
X64326513Y-68023116D01*
X64318242Y-68032242D01*
X64309116Y-68040513D01*
X64299224Y-68047849D01*
X64288660Y-68054181D01*
X64277527Y-68059447D01*
X64265931Y-68063596D01*
X64253984Y-68066589D01*
X64241801Y-68068396D01*
X64229500Y-68069000D01*
X63918500Y-68069000D01*
X63906199Y-68068396D01*
X63894016Y-68066589D01*
X63882069Y-68063596D01*
X63870473Y-68059447D01*
X63859340Y-68054181D01*
X63848776Y-68047849D01*
X63838884Y-68040513D01*
X63829758Y-68032242D01*
X63821487Y-68023116D01*
X63814151Y-68013224D01*
X63807819Y-68002660D01*
X63802553Y-67991527D01*
X63798404Y-67979931D01*
X63795411Y-67967984D01*
X63793604Y-67955801D01*
X63793000Y-67943500D01*
X63793000Y-67692500D01*
X63793604Y-67680199D01*
X63795411Y-67668016D01*
X63798404Y-67656069D01*
X63802553Y-67644473D01*
X63807819Y-67633340D01*
X63814151Y-67622776D01*
X63821487Y-67612884D01*
X63829758Y-67603758D01*
X63838884Y-67595487D01*
X63848776Y-67588151D01*
X63859340Y-67581819D01*
X63870473Y-67576553D01*
X63882069Y-67572404D01*
X63894016Y-67569411D01*
X63906199Y-67567604D01*
X63918500Y-67567000D01*
X64229500Y-67567000D01*
X64241801Y-67567604D01*
X64241801Y-67567604D01*
G37*
D17*
X64074000Y-67818000D03*
D16*
G36*
X63601801Y-67567604D02*
X63613984Y-67569411D01*
X63625931Y-67572404D01*
X63637527Y-67576553D01*
X63648660Y-67581819D01*
X63659224Y-67588151D01*
X63669116Y-67595487D01*
X63678242Y-67603758D01*
X63686513Y-67612884D01*
X63693849Y-67622776D01*
X63700181Y-67633340D01*
X63705447Y-67644473D01*
X63709596Y-67656069D01*
X63712589Y-67668016D01*
X63714396Y-67680199D01*
X63715000Y-67692500D01*
X63715000Y-67943500D01*
X63714396Y-67955801D01*
X63712589Y-67967984D01*
X63709596Y-67979931D01*
X63705447Y-67991527D01*
X63700181Y-68002660D01*
X63693849Y-68013224D01*
X63686513Y-68023116D01*
X63678242Y-68032242D01*
X63669116Y-68040513D01*
X63659224Y-68047849D01*
X63648660Y-68054181D01*
X63637527Y-68059447D01*
X63625931Y-68063596D01*
X63613984Y-68066589D01*
X63601801Y-68068396D01*
X63589500Y-68069000D01*
X63278500Y-68069000D01*
X63266199Y-68068396D01*
X63254016Y-68066589D01*
X63242069Y-68063596D01*
X63230473Y-68059447D01*
X63219340Y-68054181D01*
X63208776Y-68047849D01*
X63198884Y-68040513D01*
X63189758Y-68032242D01*
X63181487Y-68023116D01*
X63174151Y-68013224D01*
X63167819Y-68002660D01*
X63162553Y-67991527D01*
X63158404Y-67979931D01*
X63155411Y-67967984D01*
X63153604Y-67955801D01*
X63153000Y-67943500D01*
X63153000Y-67692500D01*
X63153604Y-67680199D01*
X63155411Y-67668016D01*
X63158404Y-67656069D01*
X63162553Y-67644473D01*
X63167819Y-67633340D01*
X63174151Y-67622776D01*
X63181487Y-67612884D01*
X63189758Y-67603758D01*
X63198884Y-67595487D01*
X63208776Y-67588151D01*
X63219340Y-67581819D01*
X63230473Y-67576553D01*
X63242069Y-67572404D01*
X63254016Y-67569411D01*
X63266199Y-67567604D01*
X63278500Y-67567000D01*
X63589500Y-67567000D01*
X63601801Y-67567604D01*
X63601801Y-67567604D01*
G37*
D17*
X63434000Y-67818000D03*
G04 #@! TD*
D16*
G04 #@! TO.C,C53*
G36*
X54330801Y-67567604D02*
X54342984Y-67569411D01*
X54354931Y-67572404D01*
X54366527Y-67576553D01*
X54377660Y-67581819D01*
X54388224Y-67588151D01*
X54398116Y-67595487D01*
X54407242Y-67603758D01*
X54415513Y-67612884D01*
X54422849Y-67622776D01*
X54429181Y-67633340D01*
X54434447Y-67644473D01*
X54438596Y-67656069D01*
X54441589Y-67668016D01*
X54443396Y-67680199D01*
X54444000Y-67692500D01*
X54444000Y-67943500D01*
X54443396Y-67955801D01*
X54441589Y-67967984D01*
X54438596Y-67979931D01*
X54434447Y-67991527D01*
X54429181Y-68002660D01*
X54422849Y-68013224D01*
X54415513Y-68023116D01*
X54407242Y-68032242D01*
X54398116Y-68040513D01*
X54388224Y-68047849D01*
X54377660Y-68054181D01*
X54366527Y-68059447D01*
X54354931Y-68063596D01*
X54342984Y-68066589D01*
X54330801Y-68068396D01*
X54318500Y-68069000D01*
X54007500Y-68069000D01*
X53995199Y-68068396D01*
X53983016Y-68066589D01*
X53971069Y-68063596D01*
X53959473Y-68059447D01*
X53948340Y-68054181D01*
X53937776Y-68047849D01*
X53927884Y-68040513D01*
X53918758Y-68032242D01*
X53910487Y-68023116D01*
X53903151Y-68013224D01*
X53896819Y-68002660D01*
X53891553Y-67991527D01*
X53887404Y-67979931D01*
X53884411Y-67967984D01*
X53882604Y-67955801D01*
X53882000Y-67943500D01*
X53882000Y-67692500D01*
X53882604Y-67680199D01*
X53884411Y-67668016D01*
X53887404Y-67656069D01*
X53891553Y-67644473D01*
X53896819Y-67633340D01*
X53903151Y-67622776D01*
X53910487Y-67612884D01*
X53918758Y-67603758D01*
X53927884Y-67595487D01*
X53937776Y-67588151D01*
X53948340Y-67581819D01*
X53959473Y-67576553D01*
X53971069Y-67572404D01*
X53983016Y-67569411D01*
X53995199Y-67567604D01*
X54007500Y-67567000D01*
X54318500Y-67567000D01*
X54330801Y-67567604D01*
X54330801Y-67567604D01*
G37*
D17*
X54163000Y-67818000D03*
D16*
G36*
X54970801Y-67567604D02*
X54982984Y-67569411D01*
X54994931Y-67572404D01*
X55006527Y-67576553D01*
X55017660Y-67581819D01*
X55028224Y-67588151D01*
X55038116Y-67595487D01*
X55047242Y-67603758D01*
X55055513Y-67612884D01*
X55062849Y-67622776D01*
X55069181Y-67633340D01*
X55074447Y-67644473D01*
X55078596Y-67656069D01*
X55081589Y-67668016D01*
X55083396Y-67680199D01*
X55084000Y-67692500D01*
X55084000Y-67943500D01*
X55083396Y-67955801D01*
X55081589Y-67967984D01*
X55078596Y-67979931D01*
X55074447Y-67991527D01*
X55069181Y-68002660D01*
X55062849Y-68013224D01*
X55055513Y-68023116D01*
X55047242Y-68032242D01*
X55038116Y-68040513D01*
X55028224Y-68047849D01*
X55017660Y-68054181D01*
X55006527Y-68059447D01*
X54994931Y-68063596D01*
X54982984Y-68066589D01*
X54970801Y-68068396D01*
X54958500Y-68069000D01*
X54647500Y-68069000D01*
X54635199Y-68068396D01*
X54623016Y-68066589D01*
X54611069Y-68063596D01*
X54599473Y-68059447D01*
X54588340Y-68054181D01*
X54577776Y-68047849D01*
X54567884Y-68040513D01*
X54558758Y-68032242D01*
X54550487Y-68023116D01*
X54543151Y-68013224D01*
X54536819Y-68002660D01*
X54531553Y-67991527D01*
X54527404Y-67979931D01*
X54524411Y-67967984D01*
X54522604Y-67955801D01*
X54522000Y-67943500D01*
X54522000Y-67692500D01*
X54522604Y-67680199D01*
X54524411Y-67668016D01*
X54527404Y-67656069D01*
X54531553Y-67644473D01*
X54536819Y-67633340D01*
X54543151Y-67622776D01*
X54550487Y-67612884D01*
X54558758Y-67603758D01*
X54567884Y-67595487D01*
X54577776Y-67588151D01*
X54588340Y-67581819D01*
X54599473Y-67576553D01*
X54611069Y-67572404D01*
X54623016Y-67569411D01*
X54635199Y-67567604D01*
X54647500Y-67567000D01*
X54958500Y-67567000D01*
X54970801Y-67567604D01*
X54970801Y-67567604D01*
G37*
D17*
X54803000Y-67818000D03*
G04 #@! TD*
D16*
G04 #@! TO.C,C55*
G36*
X63601801Y-74933604D02*
X63613984Y-74935411D01*
X63625931Y-74938404D01*
X63637527Y-74942553D01*
X63648660Y-74947819D01*
X63659224Y-74954151D01*
X63669116Y-74961487D01*
X63678242Y-74969758D01*
X63686513Y-74978884D01*
X63693849Y-74988776D01*
X63700181Y-74999340D01*
X63705447Y-75010473D01*
X63709596Y-75022069D01*
X63712589Y-75034016D01*
X63714396Y-75046199D01*
X63715000Y-75058500D01*
X63715000Y-75309500D01*
X63714396Y-75321801D01*
X63712589Y-75333984D01*
X63709596Y-75345931D01*
X63705447Y-75357527D01*
X63700181Y-75368660D01*
X63693849Y-75379224D01*
X63686513Y-75389116D01*
X63678242Y-75398242D01*
X63669116Y-75406513D01*
X63659224Y-75413849D01*
X63648660Y-75420181D01*
X63637527Y-75425447D01*
X63625931Y-75429596D01*
X63613984Y-75432589D01*
X63601801Y-75434396D01*
X63589500Y-75435000D01*
X63278500Y-75435000D01*
X63266199Y-75434396D01*
X63254016Y-75432589D01*
X63242069Y-75429596D01*
X63230473Y-75425447D01*
X63219340Y-75420181D01*
X63208776Y-75413849D01*
X63198884Y-75406513D01*
X63189758Y-75398242D01*
X63181487Y-75389116D01*
X63174151Y-75379224D01*
X63167819Y-75368660D01*
X63162553Y-75357527D01*
X63158404Y-75345931D01*
X63155411Y-75333984D01*
X63153604Y-75321801D01*
X63153000Y-75309500D01*
X63153000Y-75058500D01*
X63153604Y-75046199D01*
X63155411Y-75034016D01*
X63158404Y-75022069D01*
X63162553Y-75010473D01*
X63167819Y-74999340D01*
X63174151Y-74988776D01*
X63181487Y-74978884D01*
X63189758Y-74969758D01*
X63198884Y-74961487D01*
X63208776Y-74954151D01*
X63219340Y-74947819D01*
X63230473Y-74942553D01*
X63242069Y-74938404D01*
X63254016Y-74935411D01*
X63266199Y-74933604D01*
X63278500Y-74933000D01*
X63589500Y-74933000D01*
X63601801Y-74933604D01*
X63601801Y-74933604D01*
G37*
D17*
X63434000Y-75184000D03*
D16*
G36*
X64241801Y-74933604D02*
X64253984Y-74935411D01*
X64265931Y-74938404D01*
X64277527Y-74942553D01*
X64288660Y-74947819D01*
X64299224Y-74954151D01*
X64309116Y-74961487D01*
X64318242Y-74969758D01*
X64326513Y-74978884D01*
X64333849Y-74988776D01*
X64340181Y-74999340D01*
X64345447Y-75010473D01*
X64349596Y-75022069D01*
X64352589Y-75034016D01*
X64354396Y-75046199D01*
X64355000Y-75058500D01*
X64355000Y-75309500D01*
X64354396Y-75321801D01*
X64352589Y-75333984D01*
X64349596Y-75345931D01*
X64345447Y-75357527D01*
X64340181Y-75368660D01*
X64333849Y-75379224D01*
X64326513Y-75389116D01*
X64318242Y-75398242D01*
X64309116Y-75406513D01*
X64299224Y-75413849D01*
X64288660Y-75420181D01*
X64277527Y-75425447D01*
X64265931Y-75429596D01*
X64253984Y-75432589D01*
X64241801Y-75434396D01*
X64229500Y-75435000D01*
X63918500Y-75435000D01*
X63906199Y-75434396D01*
X63894016Y-75432589D01*
X63882069Y-75429596D01*
X63870473Y-75425447D01*
X63859340Y-75420181D01*
X63848776Y-75413849D01*
X63838884Y-75406513D01*
X63829758Y-75398242D01*
X63821487Y-75389116D01*
X63814151Y-75379224D01*
X63807819Y-75368660D01*
X63802553Y-75357527D01*
X63798404Y-75345931D01*
X63795411Y-75333984D01*
X63793604Y-75321801D01*
X63793000Y-75309500D01*
X63793000Y-75058500D01*
X63793604Y-75046199D01*
X63795411Y-75034016D01*
X63798404Y-75022069D01*
X63802553Y-75010473D01*
X63807819Y-74999340D01*
X63814151Y-74988776D01*
X63821487Y-74978884D01*
X63829758Y-74969758D01*
X63838884Y-74961487D01*
X63848776Y-74954151D01*
X63859340Y-74947819D01*
X63870473Y-74942553D01*
X63882069Y-74938404D01*
X63894016Y-74935411D01*
X63906199Y-74933604D01*
X63918500Y-74933000D01*
X64229500Y-74933000D01*
X64241801Y-74933604D01*
X64241801Y-74933604D01*
G37*
D17*
X64074000Y-75184000D03*
G04 #@! TD*
D16*
G04 #@! TO.C,C57*
G36*
X54264801Y-74933604D02*
X54276984Y-74935411D01*
X54288931Y-74938404D01*
X54300527Y-74942553D01*
X54311660Y-74947819D01*
X54322224Y-74954151D01*
X54332116Y-74961487D01*
X54341242Y-74969758D01*
X54349513Y-74978884D01*
X54356849Y-74988776D01*
X54363181Y-74999340D01*
X54368447Y-75010473D01*
X54372596Y-75022069D01*
X54375589Y-75034016D01*
X54377396Y-75046199D01*
X54378000Y-75058500D01*
X54378000Y-75309500D01*
X54377396Y-75321801D01*
X54375589Y-75333984D01*
X54372596Y-75345931D01*
X54368447Y-75357527D01*
X54363181Y-75368660D01*
X54356849Y-75379224D01*
X54349513Y-75389116D01*
X54341242Y-75398242D01*
X54332116Y-75406513D01*
X54322224Y-75413849D01*
X54311660Y-75420181D01*
X54300527Y-75425447D01*
X54288931Y-75429596D01*
X54276984Y-75432589D01*
X54264801Y-75434396D01*
X54252500Y-75435000D01*
X53941500Y-75435000D01*
X53929199Y-75434396D01*
X53917016Y-75432589D01*
X53905069Y-75429596D01*
X53893473Y-75425447D01*
X53882340Y-75420181D01*
X53871776Y-75413849D01*
X53861884Y-75406513D01*
X53852758Y-75398242D01*
X53844487Y-75389116D01*
X53837151Y-75379224D01*
X53830819Y-75368660D01*
X53825553Y-75357527D01*
X53821404Y-75345931D01*
X53818411Y-75333984D01*
X53816604Y-75321801D01*
X53816000Y-75309500D01*
X53816000Y-75058500D01*
X53816604Y-75046199D01*
X53818411Y-75034016D01*
X53821404Y-75022069D01*
X53825553Y-75010473D01*
X53830819Y-74999340D01*
X53837151Y-74988776D01*
X53844487Y-74978884D01*
X53852758Y-74969758D01*
X53861884Y-74961487D01*
X53871776Y-74954151D01*
X53882340Y-74947819D01*
X53893473Y-74942553D01*
X53905069Y-74938404D01*
X53917016Y-74935411D01*
X53929199Y-74933604D01*
X53941500Y-74933000D01*
X54252500Y-74933000D01*
X54264801Y-74933604D01*
X54264801Y-74933604D01*
G37*
D17*
X54097000Y-75184000D03*
D16*
G36*
X54904801Y-74933604D02*
X54916984Y-74935411D01*
X54928931Y-74938404D01*
X54940527Y-74942553D01*
X54951660Y-74947819D01*
X54962224Y-74954151D01*
X54972116Y-74961487D01*
X54981242Y-74969758D01*
X54989513Y-74978884D01*
X54996849Y-74988776D01*
X55003181Y-74999340D01*
X55008447Y-75010473D01*
X55012596Y-75022069D01*
X55015589Y-75034016D01*
X55017396Y-75046199D01*
X55018000Y-75058500D01*
X55018000Y-75309500D01*
X55017396Y-75321801D01*
X55015589Y-75333984D01*
X55012596Y-75345931D01*
X55008447Y-75357527D01*
X55003181Y-75368660D01*
X54996849Y-75379224D01*
X54989513Y-75389116D01*
X54981242Y-75398242D01*
X54972116Y-75406513D01*
X54962224Y-75413849D01*
X54951660Y-75420181D01*
X54940527Y-75425447D01*
X54928931Y-75429596D01*
X54916984Y-75432589D01*
X54904801Y-75434396D01*
X54892500Y-75435000D01*
X54581500Y-75435000D01*
X54569199Y-75434396D01*
X54557016Y-75432589D01*
X54545069Y-75429596D01*
X54533473Y-75425447D01*
X54522340Y-75420181D01*
X54511776Y-75413849D01*
X54501884Y-75406513D01*
X54492758Y-75398242D01*
X54484487Y-75389116D01*
X54477151Y-75379224D01*
X54470819Y-75368660D01*
X54465553Y-75357527D01*
X54461404Y-75345931D01*
X54458411Y-75333984D01*
X54456604Y-75321801D01*
X54456000Y-75309500D01*
X54456000Y-75058500D01*
X54456604Y-75046199D01*
X54458411Y-75034016D01*
X54461404Y-75022069D01*
X54465553Y-75010473D01*
X54470819Y-74999340D01*
X54477151Y-74988776D01*
X54484487Y-74978884D01*
X54492758Y-74969758D01*
X54501884Y-74961487D01*
X54511776Y-74954151D01*
X54522340Y-74947819D01*
X54533473Y-74942553D01*
X54545069Y-74938404D01*
X54557016Y-74935411D01*
X54569199Y-74933604D01*
X54581500Y-74933000D01*
X54892500Y-74933000D01*
X54904801Y-74933604D01*
X54904801Y-74933604D01*
G37*
D17*
X54737000Y-75184000D03*
G04 #@! TD*
D16*
G04 #@! TO.C,C58*
G36*
X87223801Y-61217604D02*
X87235984Y-61219411D01*
X87247931Y-61222404D01*
X87259527Y-61226553D01*
X87270660Y-61231819D01*
X87281224Y-61238151D01*
X87291116Y-61245487D01*
X87300242Y-61253758D01*
X87308513Y-61262884D01*
X87315849Y-61272776D01*
X87322181Y-61283340D01*
X87327447Y-61294473D01*
X87331596Y-61306069D01*
X87334589Y-61318016D01*
X87336396Y-61330199D01*
X87337000Y-61342500D01*
X87337000Y-61593500D01*
X87336396Y-61605801D01*
X87334589Y-61617984D01*
X87331596Y-61629931D01*
X87327447Y-61641527D01*
X87322181Y-61652660D01*
X87315849Y-61663224D01*
X87308513Y-61673116D01*
X87300242Y-61682242D01*
X87291116Y-61690513D01*
X87281224Y-61697849D01*
X87270660Y-61704181D01*
X87259527Y-61709447D01*
X87247931Y-61713596D01*
X87235984Y-61716589D01*
X87223801Y-61718396D01*
X87211500Y-61719000D01*
X86900500Y-61719000D01*
X86888199Y-61718396D01*
X86876016Y-61716589D01*
X86864069Y-61713596D01*
X86852473Y-61709447D01*
X86841340Y-61704181D01*
X86830776Y-61697849D01*
X86820884Y-61690513D01*
X86811758Y-61682242D01*
X86803487Y-61673116D01*
X86796151Y-61663224D01*
X86789819Y-61652660D01*
X86784553Y-61641527D01*
X86780404Y-61629931D01*
X86777411Y-61617984D01*
X86775604Y-61605801D01*
X86775000Y-61593500D01*
X86775000Y-61342500D01*
X86775604Y-61330199D01*
X86777411Y-61318016D01*
X86780404Y-61306069D01*
X86784553Y-61294473D01*
X86789819Y-61283340D01*
X86796151Y-61272776D01*
X86803487Y-61262884D01*
X86811758Y-61253758D01*
X86820884Y-61245487D01*
X86830776Y-61238151D01*
X86841340Y-61231819D01*
X86852473Y-61226553D01*
X86864069Y-61222404D01*
X86876016Y-61219411D01*
X86888199Y-61217604D01*
X86900500Y-61217000D01*
X87211500Y-61217000D01*
X87223801Y-61217604D01*
X87223801Y-61217604D01*
G37*
D17*
X87056000Y-61468000D03*
D16*
G36*
X87863801Y-61217604D02*
X87875984Y-61219411D01*
X87887931Y-61222404D01*
X87899527Y-61226553D01*
X87910660Y-61231819D01*
X87921224Y-61238151D01*
X87931116Y-61245487D01*
X87940242Y-61253758D01*
X87948513Y-61262884D01*
X87955849Y-61272776D01*
X87962181Y-61283340D01*
X87967447Y-61294473D01*
X87971596Y-61306069D01*
X87974589Y-61318016D01*
X87976396Y-61330199D01*
X87977000Y-61342500D01*
X87977000Y-61593500D01*
X87976396Y-61605801D01*
X87974589Y-61617984D01*
X87971596Y-61629931D01*
X87967447Y-61641527D01*
X87962181Y-61652660D01*
X87955849Y-61663224D01*
X87948513Y-61673116D01*
X87940242Y-61682242D01*
X87931116Y-61690513D01*
X87921224Y-61697849D01*
X87910660Y-61704181D01*
X87899527Y-61709447D01*
X87887931Y-61713596D01*
X87875984Y-61716589D01*
X87863801Y-61718396D01*
X87851500Y-61719000D01*
X87540500Y-61719000D01*
X87528199Y-61718396D01*
X87516016Y-61716589D01*
X87504069Y-61713596D01*
X87492473Y-61709447D01*
X87481340Y-61704181D01*
X87470776Y-61697849D01*
X87460884Y-61690513D01*
X87451758Y-61682242D01*
X87443487Y-61673116D01*
X87436151Y-61663224D01*
X87429819Y-61652660D01*
X87424553Y-61641527D01*
X87420404Y-61629931D01*
X87417411Y-61617984D01*
X87415604Y-61605801D01*
X87415000Y-61593500D01*
X87415000Y-61342500D01*
X87415604Y-61330199D01*
X87417411Y-61318016D01*
X87420404Y-61306069D01*
X87424553Y-61294473D01*
X87429819Y-61283340D01*
X87436151Y-61272776D01*
X87443487Y-61262884D01*
X87451758Y-61253758D01*
X87460884Y-61245487D01*
X87470776Y-61238151D01*
X87481340Y-61231819D01*
X87492473Y-61226553D01*
X87504069Y-61222404D01*
X87516016Y-61219411D01*
X87528199Y-61217604D01*
X87540500Y-61217000D01*
X87851500Y-61217000D01*
X87863801Y-61217604D01*
X87863801Y-61217604D01*
G37*
D17*
X87696000Y-61468000D03*
G04 #@! TD*
D16*
G04 #@! TO.C,C59*
G36*
X87157801Y-25403604D02*
X87169984Y-25405411D01*
X87181931Y-25408404D01*
X87193527Y-25412553D01*
X87204660Y-25417819D01*
X87215224Y-25424151D01*
X87225116Y-25431487D01*
X87234242Y-25439758D01*
X87242513Y-25448884D01*
X87249849Y-25458776D01*
X87256181Y-25469340D01*
X87261447Y-25480473D01*
X87265596Y-25492069D01*
X87268589Y-25504016D01*
X87270396Y-25516199D01*
X87271000Y-25528500D01*
X87271000Y-25779500D01*
X87270396Y-25791801D01*
X87268589Y-25803984D01*
X87265596Y-25815931D01*
X87261447Y-25827527D01*
X87256181Y-25838660D01*
X87249849Y-25849224D01*
X87242513Y-25859116D01*
X87234242Y-25868242D01*
X87225116Y-25876513D01*
X87215224Y-25883849D01*
X87204660Y-25890181D01*
X87193527Y-25895447D01*
X87181931Y-25899596D01*
X87169984Y-25902589D01*
X87157801Y-25904396D01*
X87145500Y-25905000D01*
X86834500Y-25905000D01*
X86822199Y-25904396D01*
X86810016Y-25902589D01*
X86798069Y-25899596D01*
X86786473Y-25895447D01*
X86775340Y-25890181D01*
X86764776Y-25883849D01*
X86754884Y-25876513D01*
X86745758Y-25868242D01*
X86737487Y-25859116D01*
X86730151Y-25849224D01*
X86723819Y-25838660D01*
X86718553Y-25827527D01*
X86714404Y-25815931D01*
X86711411Y-25803984D01*
X86709604Y-25791801D01*
X86709000Y-25779500D01*
X86709000Y-25528500D01*
X86709604Y-25516199D01*
X86711411Y-25504016D01*
X86714404Y-25492069D01*
X86718553Y-25480473D01*
X86723819Y-25469340D01*
X86730151Y-25458776D01*
X86737487Y-25448884D01*
X86745758Y-25439758D01*
X86754884Y-25431487D01*
X86764776Y-25424151D01*
X86775340Y-25417819D01*
X86786473Y-25412553D01*
X86798069Y-25408404D01*
X86810016Y-25405411D01*
X86822199Y-25403604D01*
X86834500Y-25403000D01*
X87145500Y-25403000D01*
X87157801Y-25403604D01*
X87157801Y-25403604D01*
G37*
D17*
X86990000Y-25654000D03*
D16*
G36*
X87797801Y-25403604D02*
X87809984Y-25405411D01*
X87821931Y-25408404D01*
X87833527Y-25412553D01*
X87844660Y-25417819D01*
X87855224Y-25424151D01*
X87865116Y-25431487D01*
X87874242Y-25439758D01*
X87882513Y-25448884D01*
X87889849Y-25458776D01*
X87896181Y-25469340D01*
X87901447Y-25480473D01*
X87905596Y-25492069D01*
X87908589Y-25504016D01*
X87910396Y-25516199D01*
X87911000Y-25528500D01*
X87911000Y-25779500D01*
X87910396Y-25791801D01*
X87908589Y-25803984D01*
X87905596Y-25815931D01*
X87901447Y-25827527D01*
X87896181Y-25838660D01*
X87889849Y-25849224D01*
X87882513Y-25859116D01*
X87874242Y-25868242D01*
X87865116Y-25876513D01*
X87855224Y-25883849D01*
X87844660Y-25890181D01*
X87833527Y-25895447D01*
X87821931Y-25899596D01*
X87809984Y-25902589D01*
X87797801Y-25904396D01*
X87785500Y-25905000D01*
X87474500Y-25905000D01*
X87462199Y-25904396D01*
X87450016Y-25902589D01*
X87438069Y-25899596D01*
X87426473Y-25895447D01*
X87415340Y-25890181D01*
X87404776Y-25883849D01*
X87394884Y-25876513D01*
X87385758Y-25868242D01*
X87377487Y-25859116D01*
X87370151Y-25849224D01*
X87363819Y-25838660D01*
X87358553Y-25827527D01*
X87354404Y-25815931D01*
X87351411Y-25803984D01*
X87349604Y-25791801D01*
X87349000Y-25779500D01*
X87349000Y-25528500D01*
X87349604Y-25516199D01*
X87351411Y-25504016D01*
X87354404Y-25492069D01*
X87358553Y-25480473D01*
X87363819Y-25469340D01*
X87370151Y-25458776D01*
X87377487Y-25448884D01*
X87385758Y-25439758D01*
X87394884Y-25431487D01*
X87404776Y-25424151D01*
X87415340Y-25417819D01*
X87426473Y-25412553D01*
X87438069Y-25408404D01*
X87450016Y-25405411D01*
X87462199Y-25403604D01*
X87474500Y-25403000D01*
X87785500Y-25403000D01*
X87797801Y-25403604D01*
X87797801Y-25403604D01*
G37*
D17*
X87630000Y-25654000D03*
G04 #@! TD*
D16*
G04 #@! TO.C,C60*
G36*
X92648801Y-21593604D02*
X92660984Y-21595411D01*
X92672931Y-21598404D01*
X92684527Y-21602553D01*
X92695660Y-21607819D01*
X92706224Y-21614151D01*
X92716116Y-21621487D01*
X92725242Y-21629758D01*
X92733513Y-21638884D01*
X92740849Y-21648776D01*
X92747181Y-21659340D01*
X92752447Y-21670473D01*
X92756596Y-21682069D01*
X92759589Y-21694016D01*
X92761396Y-21706199D01*
X92762000Y-21718500D01*
X92762000Y-21969500D01*
X92761396Y-21981801D01*
X92759589Y-21993984D01*
X92756596Y-22005931D01*
X92752447Y-22017527D01*
X92747181Y-22028660D01*
X92740849Y-22039224D01*
X92733513Y-22049116D01*
X92725242Y-22058242D01*
X92716116Y-22066513D01*
X92706224Y-22073849D01*
X92695660Y-22080181D01*
X92684527Y-22085447D01*
X92672931Y-22089596D01*
X92660984Y-22092589D01*
X92648801Y-22094396D01*
X92636500Y-22095000D01*
X92325500Y-22095000D01*
X92313199Y-22094396D01*
X92301016Y-22092589D01*
X92289069Y-22089596D01*
X92277473Y-22085447D01*
X92266340Y-22080181D01*
X92255776Y-22073849D01*
X92245884Y-22066513D01*
X92236758Y-22058242D01*
X92228487Y-22049116D01*
X92221151Y-22039224D01*
X92214819Y-22028660D01*
X92209553Y-22017527D01*
X92205404Y-22005931D01*
X92202411Y-21993984D01*
X92200604Y-21981801D01*
X92200000Y-21969500D01*
X92200000Y-21718500D01*
X92200604Y-21706199D01*
X92202411Y-21694016D01*
X92205404Y-21682069D01*
X92209553Y-21670473D01*
X92214819Y-21659340D01*
X92221151Y-21648776D01*
X92228487Y-21638884D01*
X92236758Y-21629758D01*
X92245884Y-21621487D01*
X92255776Y-21614151D01*
X92266340Y-21607819D01*
X92277473Y-21602553D01*
X92289069Y-21598404D01*
X92301016Y-21595411D01*
X92313199Y-21593604D01*
X92325500Y-21593000D01*
X92636500Y-21593000D01*
X92648801Y-21593604D01*
X92648801Y-21593604D01*
G37*
D17*
X92481000Y-21844000D03*
D16*
G36*
X93288801Y-21593604D02*
X93300984Y-21595411D01*
X93312931Y-21598404D01*
X93324527Y-21602553D01*
X93335660Y-21607819D01*
X93346224Y-21614151D01*
X93356116Y-21621487D01*
X93365242Y-21629758D01*
X93373513Y-21638884D01*
X93380849Y-21648776D01*
X93387181Y-21659340D01*
X93392447Y-21670473D01*
X93396596Y-21682069D01*
X93399589Y-21694016D01*
X93401396Y-21706199D01*
X93402000Y-21718500D01*
X93402000Y-21969500D01*
X93401396Y-21981801D01*
X93399589Y-21993984D01*
X93396596Y-22005931D01*
X93392447Y-22017527D01*
X93387181Y-22028660D01*
X93380849Y-22039224D01*
X93373513Y-22049116D01*
X93365242Y-22058242D01*
X93356116Y-22066513D01*
X93346224Y-22073849D01*
X93335660Y-22080181D01*
X93324527Y-22085447D01*
X93312931Y-22089596D01*
X93300984Y-22092589D01*
X93288801Y-22094396D01*
X93276500Y-22095000D01*
X92965500Y-22095000D01*
X92953199Y-22094396D01*
X92941016Y-22092589D01*
X92929069Y-22089596D01*
X92917473Y-22085447D01*
X92906340Y-22080181D01*
X92895776Y-22073849D01*
X92885884Y-22066513D01*
X92876758Y-22058242D01*
X92868487Y-22049116D01*
X92861151Y-22039224D01*
X92854819Y-22028660D01*
X92849553Y-22017527D01*
X92845404Y-22005931D01*
X92842411Y-21993984D01*
X92840604Y-21981801D01*
X92840000Y-21969500D01*
X92840000Y-21718500D01*
X92840604Y-21706199D01*
X92842411Y-21694016D01*
X92845404Y-21682069D01*
X92849553Y-21670473D01*
X92854819Y-21659340D01*
X92861151Y-21648776D01*
X92868487Y-21638884D01*
X92876758Y-21629758D01*
X92885884Y-21621487D01*
X92895776Y-21614151D01*
X92906340Y-21607819D01*
X92917473Y-21602553D01*
X92929069Y-21598404D01*
X92941016Y-21595411D01*
X92953199Y-21593604D01*
X92965500Y-21593000D01*
X93276500Y-21593000D01*
X93288801Y-21593604D01*
X93288801Y-21593604D01*
G37*
D17*
X93121000Y-21844000D03*
G04 #@! TD*
D16*
G04 #@! TO.C,C61*
G36*
X92557801Y-57407604D02*
X92569984Y-57409411D01*
X92581931Y-57412404D01*
X92593527Y-57416553D01*
X92604660Y-57421819D01*
X92615224Y-57428151D01*
X92625116Y-57435487D01*
X92634242Y-57443758D01*
X92642513Y-57452884D01*
X92649849Y-57462776D01*
X92656181Y-57473340D01*
X92661447Y-57484473D01*
X92665596Y-57496069D01*
X92668589Y-57508016D01*
X92670396Y-57520199D01*
X92671000Y-57532500D01*
X92671000Y-57783500D01*
X92670396Y-57795801D01*
X92668589Y-57807984D01*
X92665596Y-57819931D01*
X92661447Y-57831527D01*
X92656181Y-57842660D01*
X92649849Y-57853224D01*
X92642513Y-57863116D01*
X92634242Y-57872242D01*
X92625116Y-57880513D01*
X92615224Y-57887849D01*
X92604660Y-57894181D01*
X92593527Y-57899447D01*
X92581931Y-57903596D01*
X92569984Y-57906589D01*
X92557801Y-57908396D01*
X92545500Y-57909000D01*
X92234500Y-57909000D01*
X92222199Y-57908396D01*
X92210016Y-57906589D01*
X92198069Y-57903596D01*
X92186473Y-57899447D01*
X92175340Y-57894181D01*
X92164776Y-57887849D01*
X92154884Y-57880513D01*
X92145758Y-57872242D01*
X92137487Y-57863116D01*
X92130151Y-57853224D01*
X92123819Y-57842660D01*
X92118553Y-57831527D01*
X92114404Y-57819931D01*
X92111411Y-57807984D01*
X92109604Y-57795801D01*
X92109000Y-57783500D01*
X92109000Y-57532500D01*
X92109604Y-57520199D01*
X92111411Y-57508016D01*
X92114404Y-57496069D01*
X92118553Y-57484473D01*
X92123819Y-57473340D01*
X92130151Y-57462776D01*
X92137487Y-57452884D01*
X92145758Y-57443758D01*
X92154884Y-57435487D01*
X92164776Y-57428151D01*
X92175340Y-57421819D01*
X92186473Y-57416553D01*
X92198069Y-57412404D01*
X92210016Y-57409411D01*
X92222199Y-57407604D01*
X92234500Y-57407000D01*
X92545500Y-57407000D01*
X92557801Y-57407604D01*
X92557801Y-57407604D01*
G37*
D17*
X92390000Y-57658000D03*
D16*
G36*
X93197801Y-57407604D02*
X93209984Y-57409411D01*
X93221931Y-57412404D01*
X93233527Y-57416553D01*
X93244660Y-57421819D01*
X93255224Y-57428151D01*
X93265116Y-57435487D01*
X93274242Y-57443758D01*
X93282513Y-57452884D01*
X93289849Y-57462776D01*
X93296181Y-57473340D01*
X93301447Y-57484473D01*
X93305596Y-57496069D01*
X93308589Y-57508016D01*
X93310396Y-57520199D01*
X93311000Y-57532500D01*
X93311000Y-57783500D01*
X93310396Y-57795801D01*
X93308589Y-57807984D01*
X93305596Y-57819931D01*
X93301447Y-57831527D01*
X93296181Y-57842660D01*
X93289849Y-57853224D01*
X93282513Y-57863116D01*
X93274242Y-57872242D01*
X93265116Y-57880513D01*
X93255224Y-57887849D01*
X93244660Y-57894181D01*
X93233527Y-57899447D01*
X93221931Y-57903596D01*
X93209984Y-57906589D01*
X93197801Y-57908396D01*
X93185500Y-57909000D01*
X92874500Y-57909000D01*
X92862199Y-57908396D01*
X92850016Y-57906589D01*
X92838069Y-57903596D01*
X92826473Y-57899447D01*
X92815340Y-57894181D01*
X92804776Y-57887849D01*
X92794884Y-57880513D01*
X92785758Y-57872242D01*
X92777487Y-57863116D01*
X92770151Y-57853224D01*
X92763819Y-57842660D01*
X92758553Y-57831527D01*
X92754404Y-57819931D01*
X92751411Y-57807984D01*
X92749604Y-57795801D01*
X92749000Y-57783500D01*
X92749000Y-57532500D01*
X92749604Y-57520199D01*
X92751411Y-57508016D01*
X92754404Y-57496069D01*
X92758553Y-57484473D01*
X92763819Y-57473340D01*
X92770151Y-57462776D01*
X92777487Y-57452884D01*
X92785758Y-57443758D01*
X92794884Y-57435487D01*
X92804776Y-57428151D01*
X92815340Y-57421819D01*
X92826473Y-57416553D01*
X92838069Y-57412404D01*
X92850016Y-57409411D01*
X92862199Y-57407604D01*
X92874500Y-57407000D01*
X93185500Y-57407000D01*
X93197801Y-57407604D01*
X93197801Y-57407604D01*
G37*
D17*
X93030000Y-57658000D03*
G04 #@! TD*
D16*
G04 #@! TO.C,C62*
G36*
X87863801Y-48263604D02*
X87875984Y-48265411D01*
X87887931Y-48268404D01*
X87899527Y-48272553D01*
X87910660Y-48277819D01*
X87921224Y-48284151D01*
X87931116Y-48291487D01*
X87940242Y-48299758D01*
X87948513Y-48308884D01*
X87955849Y-48318776D01*
X87962181Y-48329340D01*
X87967447Y-48340473D01*
X87971596Y-48352069D01*
X87974589Y-48364016D01*
X87976396Y-48376199D01*
X87977000Y-48388500D01*
X87977000Y-48639500D01*
X87976396Y-48651801D01*
X87974589Y-48663984D01*
X87971596Y-48675931D01*
X87967447Y-48687527D01*
X87962181Y-48698660D01*
X87955849Y-48709224D01*
X87948513Y-48719116D01*
X87940242Y-48728242D01*
X87931116Y-48736513D01*
X87921224Y-48743849D01*
X87910660Y-48750181D01*
X87899527Y-48755447D01*
X87887931Y-48759596D01*
X87875984Y-48762589D01*
X87863801Y-48764396D01*
X87851500Y-48765000D01*
X87540500Y-48765000D01*
X87528199Y-48764396D01*
X87516016Y-48762589D01*
X87504069Y-48759596D01*
X87492473Y-48755447D01*
X87481340Y-48750181D01*
X87470776Y-48743849D01*
X87460884Y-48736513D01*
X87451758Y-48728242D01*
X87443487Y-48719116D01*
X87436151Y-48709224D01*
X87429819Y-48698660D01*
X87424553Y-48687527D01*
X87420404Y-48675931D01*
X87417411Y-48663984D01*
X87415604Y-48651801D01*
X87415000Y-48639500D01*
X87415000Y-48388500D01*
X87415604Y-48376199D01*
X87417411Y-48364016D01*
X87420404Y-48352069D01*
X87424553Y-48340473D01*
X87429819Y-48329340D01*
X87436151Y-48318776D01*
X87443487Y-48308884D01*
X87451758Y-48299758D01*
X87460884Y-48291487D01*
X87470776Y-48284151D01*
X87481340Y-48277819D01*
X87492473Y-48272553D01*
X87504069Y-48268404D01*
X87516016Y-48265411D01*
X87528199Y-48263604D01*
X87540500Y-48263000D01*
X87851500Y-48263000D01*
X87863801Y-48263604D01*
X87863801Y-48263604D01*
G37*
D17*
X87696000Y-48514000D03*
D16*
G36*
X87223801Y-48263604D02*
X87235984Y-48265411D01*
X87247931Y-48268404D01*
X87259527Y-48272553D01*
X87270660Y-48277819D01*
X87281224Y-48284151D01*
X87291116Y-48291487D01*
X87300242Y-48299758D01*
X87308513Y-48308884D01*
X87315849Y-48318776D01*
X87322181Y-48329340D01*
X87327447Y-48340473D01*
X87331596Y-48352069D01*
X87334589Y-48364016D01*
X87336396Y-48376199D01*
X87337000Y-48388500D01*
X87337000Y-48639500D01*
X87336396Y-48651801D01*
X87334589Y-48663984D01*
X87331596Y-48675931D01*
X87327447Y-48687527D01*
X87322181Y-48698660D01*
X87315849Y-48709224D01*
X87308513Y-48719116D01*
X87300242Y-48728242D01*
X87291116Y-48736513D01*
X87281224Y-48743849D01*
X87270660Y-48750181D01*
X87259527Y-48755447D01*
X87247931Y-48759596D01*
X87235984Y-48762589D01*
X87223801Y-48764396D01*
X87211500Y-48765000D01*
X86900500Y-48765000D01*
X86888199Y-48764396D01*
X86876016Y-48762589D01*
X86864069Y-48759596D01*
X86852473Y-48755447D01*
X86841340Y-48750181D01*
X86830776Y-48743849D01*
X86820884Y-48736513D01*
X86811758Y-48728242D01*
X86803487Y-48719116D01*
X86796151Y-48709224D01*
X86789819Y-48698660D01*
X86784553Y-48687527D01*
X86780404Y-48675931D01*
X86777411Y-48663984D01*
X86775604Y-48651801D01*
X86775000Y-48639500D01*
X86775000Y-48388500D01*
X86775604Y-48376199D01*
X86777411Y-48364016D01*
X86780404Y-48352069D01*
X86784553Y-48340473D01*
X86789819Y-48329340D01*
X86796151Y-48318776D01*
X86803487Y-48308884D01*
X86811758Y-48299758D01*
X86820884Y-48291487D01*
X86830776Y-48284151D01*
X86841340Y-48277819D01*
X86852473Y-48272553D01*
X86864069Y-48268404D01*
X86876016Y-48265411D01*
X86888199Y-48263604D01*
X86900500Y-48263000D01*
X87211500Y-48263000D01*
X87223801Y-48263604D01*
X87223801Y-48263604D01*
G37*
D17*
X87056000Y-48514000D03*
G04 #@! TD*
D16*
G04 #@! TO.C,C63*
G36*
X92557801Y-44453604D02*
X92569984Y-44455411D01*
X92581931Y-44458404D01*
X92593527Y-44462553D01*
X92604660Y-44467819D01*
X92615224Y-44474151D01*
X92625116Y-44481487D01*
X92634242Y-44489758D01*
X92642513Y-44498884D01*
X92649849Y-44508776D01*
X92656181Y-44519340D01*
X92661447Y-44530473D01*
X92665596Y-44542069D01*
X92668589Y-44554016D01*
X92670396Y-44566199D01*
X92671000Y-44578500D01*
X92671000Y-44829500D01*
X92670396Y-44841801D01*
X92668589Y-44853984D01*
X92665596Y-44865931D01*
X92661447Y-44877527D01*
X92656181Y-44888660D01*
X92649849Y-44899224D01*
X92642513Y-44909116D01*
X92634242Y-44918242D01*
X92625116Y-44926513D01*
X92615224Y-44933849D01*
X92604660Y-44940181D01*
X92593527Y-44945447D01*
X92581931Y-44949596D01*
X92569984Y-44952589D01*
X92557801Y-44954396D01*
X92545500Y-44955000D01*
X92234500Y-44955000D01*
X92222199Y-44954396D01*
X92210016Y-44952589D01*
X92198069Y-44949596D01*
X92186473Y-44945447D01*
X92175340Y-44940181D01*
X92164776Y-44933849D01*
X92154884Y-44926513D01*
X92145758Y-44918242D01*
X92137487Y-44909116D01*
X92130151Y-44899224D01*
X92123819Y-44888660D01*
X92118553Y-44877527D01*
X92114404Y-44865931D01*
X92111411Y-44853984D01*
X92109604Y-44841801D01*
X92109000Y-44829500D01*
X92109000Y-44578500D01*
X92109604Y-44566199D01*
X92111411Y-44554016D01*
X92114404Y-44542069D01*
X92118553Y-44530473D01*
X92123819Y-44519340D01*
X92130151Y-44508776D01*
X92137487Y-44498884D01*
X92145758Y-44489758D01*
X92154884Y-44481487D01*
X92164776Y-44474151D01*
X92175340Y-44467819D01*
X92186473Y-44462553D01*
X92198069Y-44458404D01*
X92210016Y-44455411D01*
X92222199Y-44453604D01*
X92234500Y-44453000D01*
X92545500Y-44453000D01*
X92557801Y-44453604D01*
X92557801Y-44453604D01*
G37*
D17*
X92390000Y-44704000D03*
D16*
G36*
X93197801Y-44453604D02*
X93209984Y-44455411D01*
X93221931Y-44458404D01*
X93233527Y-44462553D01*
X93244660Y-44467819D01*
X93255224Y-44474151D01*
X93265116Y-44481487D01*
X93274242Y-44489758D01*
X93282513Y-44498884D01*
X93289849Y-44508776D01*
X93296181Y-44519340D01*
X93301447Y-44530473D01*
X93305596Y-44542069D01*
X93308589Y-44554016D01*
X93310396Y-44566199D01*
X93311000Y-44578500D01*
X93311000Y-44829500D01*
X93310396Y-44841801D01*
X93308589Y-44853984D01*
X93305596Y-44865931D01*
X93301447Y-44877527D01*
X93296181Y-44888660D01*
X93289849Y-44899224D01*
X93282513Y-44909116D01*
X93274242Y-44918242D01*
X93265116Y-44926513D01*
X93255224Y-44933849D01*
X93244660Y-44940181D01*
X93233527Y-44945447D01*
X93221931Y-44949596D01*
X93209984Y-44952589D01*
X93197801Y-44954396D01*
X93185500Y-44955000D01*
X92874500Y-44955000D01*
X92862199Y-44954396D01*
X92850016Y-44952589D01*
X92838069Y-44949596D01*
X92826473Y-44945447D01*
X92815340Y-44940181D01*
X92804776Y-44933849D01*
X92794884Y-44926513D01*
X92785758Y-44918242D01*
X92777487Y-44909116D01*
X92770151Y-44899224D01*
X92763819Y-44888660D01*
X92758553Y-44877527D01*
X92754404Y-44865931D01*
X92751411Y-44853984D01*
X92749604Y-44841801D01*
X92749000Y-44829500D01*
X92749000Y-44578500D01*
X92749604Y-44566199D01*
X92751411Y-44554016D01*
X92754404Y-44542069D01*
X92758553Y-44530473D01*
X92763819Y-44519340D01*
X92770151Y-44508776D01*
X92777487Y-44498884D01*
X92785758Y-44489758D01*
X92794884Y-44481487D01*
X92804776Y-44474151D01*
X92815340Y-44467819D01*
X92826473Y-44462553D01*
X92838069Y-44458404D01*
X92850016Y-44455411D01*
X92862199Y-44453604D01*
X92874500Y-44453000D01*
X93185500Y-44453000D01*
X93197801Y-44453604D01*
X93197801Y-44453604D01*
G37*
D17*
X93030000Y-44704000D03*
G04 #@! TD*
D14*
G04 #@! TO.C,IC9*
X66466000Y-22352000D03*
X66466000Y-21082000D03*
X66466000Y-19812000D03*
X66466000Y-18542000D03*
X61042000Y-18542000D03*
X61042000Y-19812000D03*
X61042000Y-21082000D03*
X61042000Y-22352000D03*
G04 #@! TD*
G04 #@! TO.C,IC13*
X66466000Y-29591000D03*
X66466000Y-28321000D03*
X66466000Y-27051000D03*
X66466000Y-25781000D03*
X61042000Y-25781000D03*
X61042000Y-27051000D03*
X61042000Y-28321000D03*
X61042000Y-29591000D03*
G04 #@! TD*
G04 #@! TO.C,IC15*
X57195000Y-29591000D03*
X57195000Y-28321000D03*
X57195000Y-27051000D03*
X57195000Y-25781000D03*
X51771000Y-25781000D03*
X51771000Y-27051000D03*
X51771000Y-28321000D03*
X51771000Y-29591000D03*
G04 #@! TD*
G04 #@! TO.C,IC17*
X66466000Y-36957000D03*
X66466000Y-35687000D03*
X66466000Y-34417000D03*
X66466000Y-33147000D03*
X61042000Y-33147000D03*
X61042000Y-34417000D03*
X61042000Y-35687000D03*
X61042000Y-36957000D03*
G04 #@! TD*
G04 #@! TO.C,IC19*
X57195000Y-36957000D03*
X57195000Y-35687000D03*
X57195000Y-34417000D03*
X57195000Y-33147000D03*
X51771000Y-33147000D03*
X51771000Y-34417000D03*
X51771000Y-35687000D03*
X51771000Y-36957000D03*
G04 #@! TD*
G04 #@! TO.C,IC21*
X66466000Y-44069000D03*
X66466000Y-42799000D03*
X66466000Y-41529000D03*
X66466000Y-40259000D03*
X61042000Y-40259000D03*
X61042000Y-41529000D03*
X61042000Y-42799000D03*
X61042000Y-44069000D03*
G04 #@! TD*
G04 #@! TO.C,IC23*
X57195000Y-44069000D03*
X57195000Y-42799000D03*
X57195000Y-41529000D03*
X57195000Y-40259000D03*
X51771000Y-40259000D03*
X51771000Y-41529000D03*
X51771000Y-42799000D03*
X51771000Y-44069000D03*
G04 #@! TD*
G04 #@! TO.C,IC25*
X66466000Y-51816000D03*
X66466000Y-50546000D03*
X66466000Y-49276000D03*
X66466000Y-48006000D03*
X61042000Y-48006000D03*
X61042000Y-49276000D03*
X61042000Y-50546000D03*
X61042000Y-51816000D03*
G04 #@! TD*
G04 #@! TO.C,IC27*
X57195000Y-51816000D03*
X57195000Y-50546000D03*
X57195000Y-49276000D03*
X57195000Y-48006000D03*
X51771000Y-48006000D03*
X51771000Y-49276000D03*
X51771000Y-50546000D03*
X51771000Y-51816000D03*
G04 #@! TD*
G04 #@! TO.C,IC29*
X66466000Y-58674000D03*
X66466000Y-57404000D03*
X66466000Y-56134000D03*
X66466000Y-54864000D03*
X61042000Y-54864000D03*
X61042000Y-56134000D03*
X61042000Y-57404000D03*
X61042000Y-58674000D03*
G04 #@! TD*
G04 #@! TO.C,IC31*
X57195000Y-58674000D03*
X57195000Y-57404000D03*
X57195000Y-56134000D03*
X57195000Y-54864000D03*
X51771000Y-54864000D03*
X51771000Y-56134000D03*
X51771000Y-57404000D03*
X51771000Y-58674000D03*
G04 #@! TD*
G04 #@! TO.C,IC33*
X66466000Y-66548000D03*
X66466000Y-65278000D03*
X66466000Y-64008000D03*
X66466000Y-62738000D03*
X61042000Y-62738000D03*
X61042000Y-64008000D03*
X61042000Y-65278000D03*
X61042000Y-66548000D03*
G04 #@! TD*
G04 #@! TO.C,IC35*
X57195000Y-66548000D03*
X57195000Y-65278000D03*
X57195000Y-64008000D03*
X57195000Y-62738000D03*
X51771000Y-62738000D03*
X51771000Y-64008000D03*
X51771000Y-65278000D03*
X51771000Y-66548000D03*
G04 #@! TD*
G04 #@! TO.C,IC37*
X66466000Y-73660000D03*
X66466000Y-72390000D03*
X66466000Y-71120000D03*
X66466000Y-69850000D03*
X61042000Y-69850000D03*
X61042000Y-71120000D03*
X61042000Y-72390000D03*
X61042000Y-73660000D03*
G04 #@! TD*
G04 #@! TO.C,IC39*
X57195000Y-73660000D03*
X57195000Y-72390000D03*
X57195000Y-71120000D03*
X57195000Y-69850000D03*
X51771000Y-69850000D03*
X51771000Y-71120000D03*
X51771000Y-72390000D03*
X51771000Y-73660000D03*
G04 #@! TD*
D18*
G04 #@! TO.C,J1*
X27472000Y-5842000D03*
D19*
X29972000Y-5842000D03*
G04 #@! TD*
G04 #@! TO.C,J2*
X44370000Y-5842000D03*
D18*
X41870000Y-5842000D03*
X39370000Y-5842000D03*
G04 #@! TD*
D19*
G04 #@! TO.C,J3*
X4572000Y-33354000D03*
D18*
X4572000Y-35854000D03*
X4572000Y-38354000D03*
X4572000Y-40854000D03*
X4572000Y-43354000D03*
X4572000Y-45854000D03*
G04 #@! TD*
D19*
G04 #@! TO.C,J4*
X17272000Y-5842000D03*
D18*
X14772000Y-5842000D03*
G04 #@! TD*
D19*
G04 #@! TO.C,J5*
X96520000Y-37592000D03*
D18*
X96520000Y-40092000D03*
G04 #@! TD*
D20*
G04 #@! TO.C,R35*
X80010000Y-18796000D03*
X77470000Y-18796000D03*
X74930000Y-18796000D03*
G04 #@! TD*
G04 #@! TO.C,R67*
X59182000Y-5588000D03*
X61722000Y-8128000D03*
X59182000Y-10668000D03*
G04 #@! TD*
D21*
G04 #@! TO.C,REF\002A\002A*
X2286000Y-2286000D03*
G04 #@! TD*
G04 #@! TO.C,REF\002A\002A*
X98044000Y-82804000D03*
G04 #@! TD*
G04 #@! TO.C,REF\002A\002A*
X2286000Y-82804000D03*
G04 #@! TD*
G04 #@! TO.C,REF\002A\002A*
X98044000Y-2286000D03*
G04 #@! TD*
M02*
